  0
SECTION
  2
HEADER
  9
$ACADVER
  1
AC1015
  9
$ACADMAINTVER
 70
     6
  9
$DWGCODEPAGE
  3
ANSI_874
  9
$INSBASE
 10
0.0
 20
0.0
 30
0.0
  9
$EXTMIN
 10
0.0
 20
0.0
 30
0.0
  9
$EXTMAX
 10
400.0
 20
300.0
 30
0.0
  9
$LIMMIN
 10
0.0
 20
0.0
  9
$LIMMAX
 10
400.0
 20
300.0
  9
$ORTHOMODE
 70
     0
  9
$REGENMODE
 70
     1
  9
$FILLMODE
 70
     1
  9
$QTEXTMODE
 70
     0
  9
$MIRRTEXT
 70
     1
  9
$LTSCALE
 40
1.0
  9
$ATTMODE
 70
     1
  9
$TEXTSIZE
 40
3.5
  9
$TRACEWID
 40
1.0
  9
$TEXTSTYLE
  7
STANDARD
  9
$CLAYER
  8
0
  9
$CELTYPE
  6
ByLayer
  9
$CECOLOR
 62
   256
  9
$CELTSCALE
 40
1.0
  9
$DISPSILH
 70
     0
  9
$DIMSCALE
 40
1.0
  9
$DIMASZ
 40
3.302
  9
$DIMEXO
 40
1.0
  9
$DIMDLI
 40
3.75
  9
$DIMRND
 40
0.0
  9
$DIMDLE
 40
0.0
  9
$DIMEXE
 40
1.0
  9
$DIMTP
 40
0.0
  9
$DIMTM
 40
0.0
  9
$DIMTXT
 40
3.5
  9
$DIMCEN
 40
2.5
  9
$DIMTSZ
 40
0.0
  9
$DIMTOL
 70
     0
  9
$DIMLIM
 70
     0
  9
$DIMTIH
 70
     1
  9
$DIMTOH
 70
     1
  9
$DIMSE1
 70
     0
  9
$DIMSE2
 70
     0
  9
$DIMTAD
 70
     1
  9
$DIMZIN
 70
     1
  9
$DIMBLK
  1

  9
$DIMASO
 70
     1
  9
$DIMSHO
 70
     1
  9
$DIMPOST
  1

  9
$DIMAPOST
  1

  9
$DIMALT
 70
     0
  9
$DIMALTD
 70
     3
  9
$DIMALTF
 40
0.0393700787
  9
$DIMLFAC
 40
5.0
  9
$DIMTOFL
 70
     1
  9
$DIMTVP
 40
0.0
  9
$DIMTIX
 70
     0
  9
$DIMSOXD
 70
     0
  9
$DIMSAH
 70
     0
  9
$DIMBLK1
  1

  9
$DIMBLK2
  1

  9
$DIMSTYLE
  2
ISO-25
  9
$DIMCLRD
 70
     0
  9
$DIMCLRE
 70
     0
  9
$DIMCLRT
 70
     0
  9
$DIMTFAC
 40
1.0
  9
$DIMGAP
 40
1.524
  9
$DIMJUST
 70
     0
  9
$DIMSD1
 70
     0
  9
$DIMSD2
 70
     0
  9
$DIMTOLJ
 70
     0
  9
$DIMTZIN
 70
     1
  9
$DIMALTZ
 70
     0
  9
$DIMALTTZ
 70
     0
  9
$DIMUPT
 70
     0
  9
$DIMDEC
 70
     2
  9
$DIMTDEC
 70
     2
  9
$DIMALTU
 70
     2
  9
$DIMALTTD
 70
     3
  9
$DIMTXSTY
  7
STANDARD
  9
$DIMAUNIT
 70
     0
  9
$DIMADEC
 70
     2
  9
$DIMALTRND
 40
0.0
  9
$DIMAZIN
 70
     0
  9
$DIMDSEP
 70
    44
  9
$DIMATFIT
 70
     3
  9
$DIMFRAC
 70
     0
  9
$DIMLDRBLK
  1

  9
$DIMLUNIT
 70
     2
  9
$DIMLWD
 70
    -2
  9
$DIMLWE
 70
    -2
  9
$DIMTMOVE
 70
     0
  9
$LUNITS
 70
     2
  9
$LUPREC
 70
     2
  9
$SKETCHINC
 40
1.0
  9
$FILLETRAD
 40
0.0
  9
$AUNITS
 70
     0
  9
$AUPREC
 70
     2
  9
$MENU
  1
.
  9
$ELEVATION
 40
0.0
  9
$PELEVATION
 40
0.0
  9
$THICKNESS
 40
0.0
  9
$LIMCHECK
 70
     0
  9
$CHAMFERA
 40
0.0
  9
$CHAMFERB
 40
0.0
  9
$CHAMFERC
 40
0.0
  9
$CHAMFERD
 40
0.0
  9
$SKPOLY
 70
     0
  9
$TDCREATE
 40
2460271.535489132
  9
$TDUCREATE
 40
2460271.243822465
  9
$TDUPDATE
 40
2460271.535491863
  9
$TDUUPDATE
 40
2460271.243825197
  9
$TDINDWG
 40
0.0000000116
  9
$TDUSRTIMER
 40
0.0000000116
  9
$USRTIMER
 70
     1
  9
$ANGBASE
 50
0.0
  9
$ANGDIR
 70
     0
  9
$PDMODE
 70
     0
  9
$PDSIZE
 40
-1.0
  9
$PLINEWID
 40
0.0
  9
$SPLFRAME
 70
     0
  9
$SPLINETYPE
 70
     6
  9
$SPLINESEGS
 70
     8
  9
$HANDSEED
  5
3B6
  9
$SURFTAB1
 70
     6
  9
$SURFTAB2
 70
     6
  9
$SURFTYPE
 70
     6
  9
$SURFU
 70
     6
  9
$SURFV
 70
     6
  9
$UCSBASE
  2

  9
$UCSNAME
  2

  9
$UCSORG
 10
0.0
 20
0.0
 30
0.0
  9
$UCSXDIR
 10
1.0
 20
0.0
 30
0.0
  9
$UCSYDIR
 10
0.0
 20
1.0
 30
0.0
  9
$UCSORTHOREF
  2

  9
$UCSORTHOVIEW
 70
     0
  9
$UCSORGTOP
 10
0.0
 20
0.0
 30
0.0
  9
$UCSORGBOTTOM
 10
0.0
 20
0.0
 30
0.0
  9
$UCSORGLEFT
 10
0.0
 20
0.0
 30
0.0
  9
$UCSORGRIGHT
 10
0.0
 20
0.0
 30
0.0
  9
$UCSORGFRONT
 10
0.0
 20
0.0
 30
0.0
  9
$UCSORGBACK
 10
0.0
 20
0.0
 30
0.0
  9
$PUCSBASE
  2

  9
$PUCSNAME
  2

  9
$PUCSORG
 10
0.0
 20
0.0
 30
0.0
  9
$PUCSXDIR
 10
1.0
 20
0.0
 30
0.0
  9
$PUCSYDIR
 10
0.0
 20
1.0
 30
0.0
  9
$PUCSORTHOREF
  2

  9
$PUCSORTHOVIEW
 70
     0
  9
$PUCSORGTOP
 10
0.0
 20
0.0
 30
0.0
  9
$PUCSORGBOTTOM
 10
0.0
 20
0.0
 30
0.0
  9
$PUCSORGLEFT
 10
0.0
 20
0.0
 30
0.0
  9
$PUCSORGRIGHT
 10
0.0
 20
0.0
 30
0.0
  9
$PUCSORGFRONT
 10
0.0
 20
0.0
 30
0.0
  9
$PUCSORGBACK
 10
0.0
 20
0.0
 30
0.0
  9
$USERI1
 70
     0
  9
$USERI2
 70
     0
  9
$USERI3
 70
     0
  9
$USERI4
 70
     0
  9
$USERI5
 70
     0
  9
$USERR1
 40
0.0
  9
$USERR2
 40
0.0
  9
$USERR3
 40
0.0
  9
$USERR4
 40
0.0
  9
$USERR5
 40
0.0
  9
$WORLDVIEW
 70
     1
  9
$SHADEDGE
 70
     3
  9
$SHADEDIF
 70
    70
  9
$TILEMODE
 70
     1
  9
$MAXACTVP
 70
    64
  9
$PINSBASE
 10
0.0
 20
0.0
 30
0.0
  9
$PLIMCHECK
 70
     0
  9
$PEXTMIN
 10
1.0000000000E+20
 20
1.0000000000E+20
 30
1.0000000000E+20
  9
$PEXTMAX
 10
-1.0000000000E+20
 20
-1.0000000000E+20
 30
-1.0000000000E+20
  9
$PLIMMIN
 10
0.0
 20
0.0
  9
$PLIMMAX
 10
420.0
 20
297.0
  9
$UNITMODE
 70
     0
  9
$VISRETAIN
 70
     1
  9
$PLINEGEN
 70
     0
  9
$PSLTSCALE
 70
     1
  9
$TREEDEPTH
 70
  3020
  9
$CMLSTYLE
  2
Standard
  9
$CMLJUST
 70
     0
  9
$CMLSCALE
 40
20.0
  9
$PROXYGRAPHICS
 70
     1
  9
$MEASUREMENT
 70
     1
  9
$CELWEIGHT
370
    -1
  9
$ENDCAPS
280
     0
  9
$JOINSTYLE
280
     0
  9
$LWDISPLAY
290
     1
  9
$INSUNITS
 70
     4
  9
$HYPERLINKBASE
  1

  9
$STYLESHEET
  1

  9
$XEDIT
290
     1
  9
$CEPSNTYPE
380
     0
  9
$PSTYLEMODE
290
     1
  9
$FINGERPRINTGUID
  2
{f0ba06cf-983a-4c51-ab3f-3d1a352b5852}
  9
$VERSIONGUID
  2
{FAEB1C32-E019-11D5-929B-00C0DF256EC4}
  9
$EXTNAMES
290
     1
  9
$PSVPSCALE
 40
0.0
  9
$OLESTARTUP
290
     0
  0
ENDSEC
  0
SECTION
  2
CLASSES
  0
CLASS
  1
ACDBDICTIONARYWDFLT
  2
AcDbDictionaryWithDefault
  3
ObjectDBX Classes
 90
        0
280
     0
281
     0
  0
CLASS
  1
VISUALSTYLE
  2
AcDbVisualStyle
  3
ObjectDBX Classes
 90
     4095
280
     0
281
     0
  0
CLASS
  1
MATERIAL
  2
AcDbMaterial
  3
ObjectDBX Classes
 90
     1153
280
     0
281
     0
  0
CLASS
  1
SCALE
  2
AcDbScale
  3
ObjectDBX Classes
 90
     1153
280
     0
281
     0
  0
CLASS
  1
TABLESTYLE
  2
AcDbTableStyle
  3
ObjectDBX Classes
 90
     4095
280
     0
281
     0
  0
CLASS
  1
MLEADERSTYLE
  2
AcDbMLeaderStyle
  3
ACDB_MLEADERSTYLE_CLASS
 90
     4095
280
     0
281
     0
  0
CLASS
  1
SUN
  2
AcDbSun
  3
SCENEOE
 90
     1153
280
     0
281
     0
  0
CLASS
  1
ACDBPLACEHOLDER
  2
AcDbPlaceHolder
  3
ObjectDBX Classes
 90
        0
280
     0
281
     0
  0
CLASS
  1
LAYOUT
  2
AcDbLayout
  3
ObjectDBX Classes
 90
        0
280
     0
281
     0
  0
ENDSEC
  0
SECTION
  2
TABLES
  0
TABLE
  2
VPORT
  5
8
330
0
100
AcDbSymbolTable
 70
     1
  0
VPORT
  5
29
330
8
100
AcDbSymbolTableRecord
100
AcDbViewportTableRecord
  2
*Active
 70
     0
 10
0.0
 20
0.0
 11
1.0
 21
1.0
 12
200.0
 22
150.0
 13
0.0
 23
0.0
 14
10.0
 24
10.0
 15
10.0
 25
10.0
 16
0.0
 26
0.0
 36
1.0
 17
0.0
 27
0.0
 37
0.0
 40
300.0
 41
1.3333333333
 42
50.0
 43
0.0
 44
0.0
 50
0.0
 51
0.0
 71
     0
 72
  2000
 73
     1
 74
     3
 75
     0
 76
     0
 77
     0
 78
     0
281
     0
 65
     1
110
0.0
120
0.0
130
0.0
111
1.0
121
0.0
131
0.0
112
0.0
122
1.0
132
0.0
 79
     0
146
0.0
  0
ENDTAB
  0
TABLE
  2
LTYPE
  5
5
330
0
100
AcDbSymbolTable
 70
     8
  0
LTYPE
  5
14
330
5
100
AcDbSymbolTableRecord
100
AcDbLinetypeTableRecord
  2
ByBlock
 70
     0
  3

 72
    65
 73
     0
 40
0.0
  0
LTYPE
  5
15
330
5
100
AcDbSymbolTableRecord
100
AcDbLinetypeTableRecord
  2
ByLayer
 70
     0
  3

 72
    65
 73
     0
 40
0.0
  0
LTYPE
  5
16
330
5
100
AcDbSymbolTableRecord
100
AcDbLinetypeTableRecord
  2
Continuous
 70
     0
  3
Solid line
 72
    65
 73
     0
 40
0.0
  0
LTYPE
  5
5E
330
5
100
AcDbSymbolTableRecord
100
AcDbLinetypeTableRecord
  2
SLD-Solid
 70
     0
  3
SolidWorks Line Style
 72
    65
 73
     0
 40
0.0
  0
LTYPE
  5
5F
330
5
100
AcDbSymbolTableRecord
100
AcDbLinetypeTableRecord
  2
SLD-Dashed
 70
     0
  3
SolidWorks Line Style
 72
    65
 73
     2
 40
1.905
 49
1.27
 74
     0
 49
-0.635
 74
     0
  0
LTYPE
  5
60
330
5
100
AcDbSymbolTableRecord
100
AcDbLinetypeTableRecord
  2
SLD-Phantom
 70
     0
  3
SolidWorks Line Style
 72
    65
 73
     6
 40
12.7
 49
6.35
 74
     0
 49
-1.27
 74
     0
 49
1.27
 74
     0
 49
-1.27
 74
     0
 49
1.27
 74
     0
 49
-1.27
 74
     0
  0
LTYPE
  5
61
330
5
100
AcDbSymbolTableRecord
100
AcDbLinetypeTableRecord
  2
SLD-Chain
 70
     0
  3
SolidWorks Line Style
 72
    65
 73
     4
 40
10.16
 49
6.35
 74
     0
 49
-1.27
 74
     0
 49
1.27
 74
     0
 49
-1.27
 74
     0
  0
LTYPE
  5
62
330
5
100
AcDbSymbolTableRecord
100
AcDbLinetypeTableRecord
  2
SLD-Center
 70
     0
  3
SolidWorks Line Style
 72
    65
 73
     4
 40
19.05
 49
15.24
 74
     0
 49
-1.27
 74
     0
 49
1.27
 74
     0
 49
-1.27
 74
     0
  0
LTYPE
  5
63
330
5
100
AcDbSymbolTableRecord
100
AcDbLinetypeTableRecord
  2
SLD-Stitch
 70
     0
  3
SolidWorks Line Style
 72
    65
 73
     2
 40
0.635
 49
0.0
 74
     0
 49
-0.635
 74
     0
  0
LTYPE
  5
64
330
5
100
AcDbSymbolTableRecord
100
AcDbLinetypeTableRecord
  2
SLD-Thin-Thick-Chain
 70
     0
  3
SolidWorks Line Style
 72
    65
 73
     4
 40
10.16
 49
6.35
 74
     0
 49
-1.27
 74
     0
 49
1.27
 74
     0
 49
-1.27
 74
     0
  0
ENDTAB
  0
TABLE
  2
LAYER
  5
2
330
0
100
AcDbSymbolTable
 70
     1
  0
LAYER
  5
10
330
2
100
AcDbSymbolTableRecord
100
AcDbLayerTableRecord
  2
0
 70
     0
 62
     7
  6
Continuous
370
    -3
390
F
  0
ENDTAB
  0
TABLE
  2
STYLE
  5
3
330
0
100
AcDbSymbolTable
 70
     2
  0
STYLE
  5
11
330
3
100
AcDbSymbolTableRecord
100
AcDbTextStyleTableRecord
  2
STANDARD
 70
     0
 40
0.0
 41
1.0
 50
0.0
 71
     0
 42
3.5
  3
GOTHIC.TTF
  4

1001
ACAD
1000
CENTURY GOTHIC
1071
       34
  0
STYLE
  5
10E
330
3
100
AcDbSymbolTableRecord
100
AcDbTextStyleTableRecord
  2
SLDTEXTSTYLE0
 70
     0
 40
0.0
 41
0.913
 50
0.0
 71
     0
 42
3.5
  3
GOTHIC.TTF
  4

1001
ACAD
1000
Century Gothic
1071
      290
  0
ENDTAB
  0
TABLE
  2
VIEW
  5
6
330
0
100
AcDbSymbolTable
 70
     0
  0
ENDTAB
  0
TABLE
  2
UCS
  5
7
330
0
100
AcDbSymbolTable
 70
     0
  0
ENDTAB
  0
TABLE
  2
APPID
  5
9
330
0
100
AcDbSymbolTable
 70
     1
  0
APPID
  5
12
330
9
100
AcDbSymbolTableRecord
100
AcDbRegAppTableRecord
  2
ACAD
 70
     0
  0
ENDTAB
  0
TABLE
  2
DIMSTYLE
  5
A
330
0
100
AcDbSymbolTable
 70
     1
100
AcDbDimStyleTable
  0
DIMSTYLE
105
27
330
A
100
AcDbSymbolTableRecord
100
AcDbDimStyleTableRecord
  2
ISO-25
 70
     0
 41
2.5
 42
0.625
 43
3.75
 44
1.25
 73
     0
 74
     0
 77
     1
 78
     8
140
2.5
141
2.5
143
0.0393700787
147
0.625
171
     3
172
     1
178
     0
271
     2
272
     2
274
     3
278
    44
283
     0
284
     8
340
11
  0
ENDTAB
  0
TABLE
  2
BLOCK_RECORD
  5
1
330
0
100
AcDbSymbolTable
 70
     2
  0
BLOCK_RECORD
  5
1F
330
1
100
AcDbSymbolTableRecord
100
AcDbBlockTableRecord
  2
*Model_Space
340
22
  0
BLOCK_RECORD
  5
1B
330
1
100
AcDbSymbolTableRecord
100
AcDbBlockTableRecord
  2
*Paper_Space
340
1E
  0
BLOCK_RECORD
  5
23
330
1
100
AcDbSymbolTableRecord
100
AcDbBlockTableRecord
  2
*Paper_Space0
340
26
  0
BLOCK_RECORD
  5
65
330
1
100
AcDbSymbolTableRecord
100
AcDbBlockTableRecord
  2
SW_TABLEANNOTATION_0
340
0
102
{BLKREFS
331
146
102
}
  0
ENDTAB
  0
ENDSEC
  0
SECTION
  2
BLOCKS
  0
BLOCK
  5
20
330
1F
100
AcDbEntity
  8
0
100
AcDbBlockBegin
  2
*Model_Space
 70
     0
 10
0.0
 20
0.0
 30
0.0
  3
*Model_Space
  1

  0
ENDBLK
  5
21
330
1F
100
AcDbEntity
  8
0
100
AcDbBlockEnd
  0
BLOCK
  5
1C
330
1B
100
AcDbEntity
 67
     1
  8
0
100
AcDbBlockBegin
  2
*Paper_Space
 70
     0
 10
0.0
 20
0.0
 30
0.0
  3
*Paper_Space
  1

  0
ENDBLK
  5
1D
330
1B
100
AcDbEntity
 67
     1
  8
0
100
AcDbBlockEnd
  0
BLOCK
  5
24
330
23
100
AcDbEntity
  8
0
100
AcDbBlockBegin
  2
*Paper_Space0
 70
     0
 10
0.0
 20
0.0
 30
0.0
  3
*Paper_Space0
  1

  0
ENDBLK
  5
25
330
23
100
AcDbEntity
  8
0
100
AcDbBlockEnd
  0
BLOCK
  5
66
330
65
100
AcDbEntity
  8
0
100
AcDbBlockBegin
  2
SW_TABLEANNOTATION_0
 70
     0
 10
0.0
 20
0.0
 30
0.0
  3
SW_TABLEANNOTATION_0
  1

  0
LINE
  5
68
330
65
100
AcDbEntity
  8
0
  6
SLD-Solid
 62
     0
370
    18
100
AcDbLine
 10
0.0
 20
0.0
 30
0.0
 11
0.0
 21
-7.3268809413
 31
0.0
  0
LINE
  5
69
330
65
100
AcDbEntity
  8
0
  6
SLD-Solid
 62
     0
370
    18
100
AcDbLine
 10
25.88
 20
0.0
 30
0.0
 11
25.88
 21
-7.3268809413
 31
0.0
  0
LINE
  5
6A
330
65
100
AcDbEntity
  8
0
  6
SLD-Solid
 62
     0
370
    18
100
AcDbLine
 10
74.0834771442
 20
0.0
 30
0.0
 11
74.0834771442
 21
-7.3268809413
 31
0.0
  0
LINE
  5
6B
330
65
100
AcDbEntity
  8
0
  6
SLD-Solid
 62
     0
370
    18
100
AcDbLine
 10
148.7079862014
 20
0.0
 30
0.0
 11
148.7079862014
 21
-7.3268809413
 31
0.0
  0
LINE
  5
6C
330
65
100
AcDbEntity
  8
0
  6
SLD-Solid
 62
     0
370
    18
100
AcDbLine
 10
170.1351893107
 20
0.0
 30
0.0
 11
170.1351893107
 21
-7.3268809413
 31
0.0
  0
LINE
  5
6D
330
65
100
AcDbEntity
  8
0
  6
SLD-Solid
 62
     0
370
    18
100
AcDbLine
 10
0.0
 20
0.0
 30
0.0
 11
25.88
 21
0.0
 31
0.0
  0
LINE
  5
6E
330
65
100
AcDbEntity
  8
0
  6
SLD-Solid
 62
     0
370
    18
100
AcDbLine
 10
0.0
 20
-7.3268809413
 30
0.0
 11
25.88
 21
-7.3268809413
 31
0.0
  0
LINE
  5
6F
330
65
100
AcDbEntity
  8
0
  6
SLD-Solid
 62
     0
370
    18
100
AcDbLine
 10
25.88
 20
0.0
 30
0.0
 11
74.0834771442
 21
0.0
 31
0.0
  0
LINE
  5
70
330
65
100
AcDbEntity
  8
0
  6
SLD-Solid
 62
     0
370
    18
100
AcDbLine
 10
25.88
 20
-7.3268809413
 30
0.0
 11
74.0834771442
 21
-7.3268809413
 31
0.0
  0
LINE
  5
71
330
65
100
AcDbEntity
  8
0
  6
SLD-Solid
 62
     0
370
    18
100
AcDbLine
 10
74.0834771442
 20
0.0
 30
0.0
 11
148.7079862014
 21
0.0
 31
0.0
  0
LINE
  5
72
330
65
100
AcDbEntity
  8
0
  6
SLD-Solid
 62
     0
370
    18
100
AcDbLine
 10
74.0834771442
 20
-7.3268809413
 30
0.0
 11
148.7079862014
 21
-7.3268809413
 31
0.0
  0
LINE
  5
73
330
65
100
AcDbEntity
  8
0
  6
SLD-Solid
 62
     0
370
    18
100
AcDbLine
 10
148.7079862014
 20
0.0
 30
0.0
 11
170.1351893107
 21
0.0
 31
0.0
  0
LINE
  5
74
330
65
100
AcDbEntity
  8
0
  6
SLD-Solid
 62
     0
370
    18
100
AcDbLine
 10
148.7079862014
 20
-7.3268809413
 30
0.0
 11
170.1351893107
 21
-7.3268809413
 31
0.0
  0
LINE
  5
75
330
65
100
AcDbEntity
  8
0
  6
SLD-Solid
 62
     0
370
    18
100
AcDbLine
 10
0.0
 20
-7.3268809413
 30
0.0
 11
0.0
 21
-14.6537618826
 31
0.0
  0
LINE
  5
76
330
65
100
AcDbEntity
  8
0
  6
SLD-Solid
 62
     0
370
    18
100
AcDbLine
 10
25.88
 20
-7.3268809413
 30
0.0
 11
25.88
 21
-14.6537618826
 31
0.0
  0
LINE
  5
77
330
65
100
AcDbEntity
  8
0
  6
SLD-Solid
 62
     0
370
    18
100
AcDbLine
 10
0.0
 20
-14.6537618826
 30
0.0
 11
0.0
 21
-21.980642824
 31
0.0
  0
LINE
  5
78
330
65
100
AcDbEntity
  8
0
  6
SLD-Solid
 62
     0
370
    18
100
AcDbLine
 10
25.88
 20
-14.6537618826
 30
0.0
 11
25.88
 21
-21.980642824
 31
0.0
  0
LINE
  5
79
330
65
100
AcDbEntity
  8
0
  6
SLD-Solid
 62
     0
370
    18
100
AcDbLine
 10
0.0
 20
-21.980642824
 30
0.0
 11
0.0
 21
-29.3075237653
 31
0.0
  0
LINE
  5
7A
330
65
100
AcDbEntity
  8
0
  6
SLD-Solid
 62
     0
370
    18
100
AcDbLine
 10
25.88
 20
-21.980642824
 30
0.0
 11
25.88
 21
-29.3075237653
 31
0.0
  0
LINE
  5
7B
330
65
100
AcDbEntity
  8
0
  6
SLD-Solid
 62
     0
370
    18
100
AcDbLine
 10
0.0
 20
-29.3075237653
 30
0.0
 11
0.0
 21
-36.6344047066
 31
0.0
  0
LINE
  5
7C
330
65
100
AcDbEntity
  8
0
  6
SLD-Solid
 62
     0
370
    18
100
AcDbLine
 10
25.88
 20
-29.3075237653
 30
0.0
 11
25.88
 21
-36.6344047066
 31
0.0
  0
LINE
  5
7D
330
65
100
AcDbEntity
  8
0
  6
SLD-Solid
 62
     0
370
    18
100
AcDbLine
 10
0.0
 20
-36.6344047066
 30
0.0
 11
0.0
 21
-43.9612856479
 31
0.0
  0
LINE
  5
7E
330
65
100
AcDbEntity
  8
0
  6
SLD-Solid
 62
     0
370
    18
100
AcDbLine
 10
25.88
 20
-36.6344047066
 30
0.0
 11
25.88
 21
-43.9612856479
 31
0.0
  0
LINE
  5
7F
330
65
100
AcDbEntity
  8
0
  6
SLD-Solid
 62
     0
370
    18
100
AcDbLine
 10
0.0
 20
-43.9612856479
 30
0.0
 11
0.0
 21
-51.2881665892
 31
0.0
  0
LINE
  5
80
330
65
100
AcDbEntity
  8
0
  6
SLD-Solid
 62
     0
370
    18
100
AcDbLine
 10
25.88
 20
-43.9612856479
 30
0.0
 11
25.88
 21
-51.2881665892
 31
0.0
  0
LINE
  5
81
330
65
100
AcDbEntity
  8
0
  6
SLD-Solid
 62
     0
370
    18
100
AcDbLine
 10
0.0
 20
-51.2881665892
 30
0.0
 11
0.0
 21
-58.6150475306
 31
0.0
  0
LINE
  5
82
330
65
100
AcDbEntity
  8
0
  6
SLD-Solid
 62
     0
370
    18
100
AcDbLine
 10
25.88
 20
-51.2881665892
 30
0.0
 11
25.88
 21
-58.6150475306
 31
0.0
  0
LINE
  5
83
330
65
100
AcDbEntity
  8
0
  6
SLD-Solid
 62
     0
370
    18
100
AcDbLine
 10
0.0
 20
-58.6150475306
 30
0.0
 11
0.0
 21
-65.9419284719
 31
0.0
  0
LINE
  5
84
330
65
100
AcDbEntity
  8
0
  6
SLD-Solid
 62
     0
370
    18
100
AcDbLine
 10
25.88
 20
-58.6150475306
 30
0.0
 11
25.88
 21
-65.9419284719
 31
0.0
  0
LINE
  5
85
330
65
100
AcDbEntity
  8
0
  6
SLD-Solid
 62
     0
370
    18
100
AcDbLine
 10
0.0
 20
-65.9419284719
 30
0.0
 11
0.0
 21
-73.2688094132
 31
0.0
  0
LINE
  5
86
330
65
100
AcDbEntity
  8
0
  6
SLD-Solid
 62
     0
370
    18
100
AcDbLine
 10
25.88
 20
-65.9419284719
 30
0.0
 11
25.88
 21
-73.2688094132
 31
0.0
  0
LINE
  5
87
330
65
100
AcDbEntity
  8
0
  6
SLD-Solid
 62
     0
370
    18
100
AcDbLine
 10
0.0
 20
-73.2688094132
 30
0.0
 11
0.0
 21
-80.5956903545
 31
0.0
  0
LINE
  5
88
330
65
100
AcDbEntity
  8
0
  6
SLD-Solid
 62
     0
370
    18
100
AcDbLine
 10
25.88
 20
-73.2688094132
 30
0.0
 11
25.88
 21
-80.5956903545
 31
0.0
  0
LINE
  5
89
330
65
100
AcDbEntity
  8
0
  6
SLD-Solid
 62
     0
370
    18
100
AcDbLine
 10
0.0
 20
-80.5956903545
 30
0.0
 11
0.0
 21
-87.9225712959
 31
0.0
  0
LINE
  5
8A
330
65
100
AcDbEntity
  8
0
  6
SLD-Solid
 62
     0
370
    18
100
AcDbLine
 10
25.88
 20
-80.5956903545
 30
0.0
 11
25.88
 21
-87.9225712959
 31
0.0
  0
LINE
  5
8B
330
65
100
AcDbEntity
  8
0
  6
SLD-Solid
 62
     0
370
    18
100
AcDbLine
 10
0.0
 20
-87.9225712959
 30
0.0
 11
0.0
 21
-95.2494522372
 31
0.0
  0
LINE
  5
8C
330
65
100
AcDbEntity
  8
0
  6
SLD-Solid
 62
     0
370
    18
100
AcDbLine
 10
25.88
 20
-87.9225712959
 30
0.0
 11
25.88
 21
-95.2494522372
 31
0.0
  0
LINE
  5
8D
330
65
100
AcDbEntity
  8
0
  6
SLD-Solid
 62
     0
370
    18
100
AcDbLine
 10
0.0
 20
-95.2494522372
 30
0.0
 11
0.0
 21
-102.5763331785
 31
0.0
  0
LINE
  5
8E
330
65
100
AcDbEntity
  8
0
  6
SLD-Solid
 62
     0
370
    18
100
AcDbLine
 10
25.88
 20
-95.2494522372
 30
0.0
 11
25.88
 21
-102.5763331785
 31
0.0
  0
LINE
  5
8F
330
65
100
AcDbEntity
  8
0
  6
SLD-Solid
 62
     0
370
    18
100
AcDbLine
 10
0.0
 20
-102.5763331785
 30
0.0
 11
0.0
 21
-109.9032141198
 31
0.0
  0
LINE
  5
90
330
65
100
AcDbEntity
  8
0
  6
SLD-Solid
 62
     0
370
    18
100
AcDbLine
 10
25.88
 20
-102.5763331785
 30
0.0
 11
25.88
 21
-109.9032141198
 31
0.0
  0
LINE
  5
91
330
65
100
AcDbEntity
  8
0
  6
SLD-Solid
 62
     0
370
    18
100
AcDbLine
 10
0.0
 20
-109.9032141198
 30
0.0
 11
0.0
 21
-117.2300950611
 31
0.0
  0
LINE
  5
92
330
65
100
AcDbEntity
  8
0
  6
SLD-Solid
 62
     0
370
    18
100
AcDbLine
 10
25.88
 20
-109.9032141198
 30
0.0
 11
25.88
 21
-117.2300950611
 31
0.0
  0
LINE
  5
93
330
65
100
AcDbEntity
  8
0
  6
SLD-Solid
 62
     0
370
    18
100
AcDbLine
 10
0.0
 20
-117.2300950611
 30
0.0
 11
0.0
 21
-124.5569760025
 31
0.0
  0
LINE
  5
94
330
65
100
AcDbEntity
  8
0
  6
SLD-Solid
 62
     0
370
    18
100
AcDbLine
 10
25.88
 20
-117.2300950611
 30
0.0
 11
25.88
 21
-124.5569760025
 31
0.0
  0
LINE
  5
95
330
65
100
AcDbEntity
  8
0
  6
SLD-Solid
 62
     0
370
    18
100
AcDbLine
 10
0.0
 20
-124.5569760025
 30
0.0
 11
0.0
 21
-131.8838569438
 31
0.0
  0
LINE
  5
96
330
65
100
AcDbEntity
  8
0
  6
SLD-Solid
 62
     0
370
    18
100
AcDbLine
 10
25.88
 20
-124.5569760025
 30
0.0
 11
25.88
 21
-131.8838569438
 31
0.0
  0
LINE
  5
97
330
65
100
AcDbEntity
  8
0
  6
SLD-Solid
 62
     0
370
    18
100
AcDbLine
 10
74.0834771442
 20
-7.3268809413
 30
0.0
 11
74.0834771442
 21
-14.6537618826
 31
0.0
  0
LINE
  5
98
330
65
100
AcDbEntity
  8
0
  6
SLD-Solid
 62
     0
370
    18
100
AcDbLine
 10
74.0834771442
 20
-14.6537618826
 30
0.0
 11
74.0834771442
 21
-21.980642824
 31
0.0
  0
LINE
  5
99
330
65
100
AcDbEntity
  8
0
  6
SLD-Solid
 62
     0
370
    18
100
AcDbLine
 10
74.0834771442
 20
-21.980642824
 30
0.0
 11
74.0834771442
 21
-29.3075237653
 31
0.0
  0
LINE
  5
9A
330
65
100
AcDbEntity
  8
0
  6
SLD-Solid
 62
     0
370
    18
100
AcDbLine
 10
74.0834771442
 20
-29.3075237653
 30
0.0
 11
74.0834771442
 21
-36.6344047066
 31
0.0
  0
LINE
  5
9B
330
65
100
AcDbEntity
  8
0
  6
SLD-Solid
 62
     0
370
    18
100
AcDbLine
 10
74.0834771442
 20
-36.6344047066
 30
0.0
 11
74.0834771442
 21
-43.9612856479
 31
0.0
  0
LINE
  5
9C
330
65
100
AcDbEntity
  8
0
  6
SLD-Solid
 62
     0
370
    18
100
AcDbLine
 10
74.0834771442
 20
-43.9612856479
 30
0.0
 11
74.0834771442
 21
-51.2881665892
 31
0.0
  0
LINE
  5
9D
330
65
100
AcDbEntity
  8
0
  6
SLD-Solid
 62
     0
370
    18
100
AcDbLine
 10
74.0834771442
 20
-51.2881665892
 30
0.0
 11
74.0834771442
 21
-58.6150475306
 31
0.0
  0
LINE
  5
9E
330
65
100
AcDbEntity
  8
0
  6
SLD-Solid
 62
     0
370
    18
100
AcDbLine
 10
74.0834771442
 20
-58.6150475306
 30
0.0
 11
74.0834771442
 21
-65.9419284719
 31
0.0
  0
LINE
  5
9F
330
65
100
AcDbEntity
  8
0
  6
SLD-Solid
 62
     0
370
    18
100
AcDbLine
 10
74.0834771442
 20
-65.9419284719
 30
0.0
 11
74.0834771442
 21
-73.2688094132
 31
0.0
  0
LINE
  5
A0
330
65
100
AcDbEntity
  8
0
  6
SLD-Solid
 62
     0
370
    18
100
AcDbLine
 10
74.0834771442
 20
-73.2688094132
 30
0.0
 11
74.0834771442
 21
-80.5956903545
 31
0.0
  0
LINE
  5
A1
330
65
100
AcDbEntity
  8
0
  6
SLD-Solid
 62
     0
370
    18
100
AcDbLine
 10
74.0834771442
 20
-80.5956903545
 30
0.0
 11
74.0834771442
 21
-87.9225712959
 31
0.0
  0
LINE
  5
A2
330
65
100
AcDbEntity
  8
0
  6
SLD-Solid
 62
     0
370
    18
100
AcDbLine
 10
74.0834771442
 20
-87.9225712959
 30
0.0
 11
74.0834771442
 21
-95.2494522372
 31
0.0
  0
LINE
  5
A3
330
65
100
AcDbEntity
  8
0
  6
SLD-Solid
 62
     0
370
    18
100
AcDbLine
 10
74.0834771442
 20
-95.2494522372
 30
0.0
 11
74.0834771442
 21
-102.5763331785
 31
0.0
  0
LINE
  5
A4
330
65
100
AcDbEntity
  8
0
  6
SLD-Solid
 62
     0
370
    18
100
AcDbLine
 10
74.0834771442
 20
-102.5763331785
 30
0.0
 11
74.0834771442
 21
-109.9032141198
 31
0.0
  0
LINE
  5
A5
330
65
100
AcDbEntity
  8
0
  6
SLD-Solid
 62
     0
370
    18
100
AcDbLine
 10
74.0834771442
 20
-109.9032141198
 30
0.0
 11
74.0834771442
 21
-117.2300950611
 31
0.0
  0
LINE
  5
A6
330
65
100
AcDbEntity
  8
0
  6
SLD-Solid
 62
     0
370
    18
100
AcDbLine
 10
74.0834771442
 20
-117.2300950611
 30
0.0
 11
74.0834771442
 21
-124.5569760025
 31
0.0
  0
LINE
  5
A7
330
65
100
AcDbEntity
  8
0
  6
SLD-Solid
 62
     0
370
    18
100
AcDbLine
 10
74.0834771442
 20
-124.5569760025
 30
0.0
 11
74.0834771442
 21
-131.8838569438
 31
0.0
  0
LINE
  5
A8
330
65
100
AcDbEntity
  8
0
  6
SLD-Solid
 62
     0
370
    18
100
AcDbLine
 10
148.7079862014
 20
-7.3268809413
 30
0.0
 11
148.7079862014
 21
-14.6537618826
 31
0.0
  0
LINE
  5
A9
330
65
100
AcDbEntity
  8
0
  6
SLD-Solid
 62
     0
370
    18
100
AcDbLine
 10
148.7079862014
 20
-14.6537618826
 30
0.0
 11
148.7079862014
 21
-21.980642824
 31
0.0
  0
LINE
  5
AA
330
65
100
AcDbEntity
  8
0
  6
SLD-Solid
 62
     0
370
    18
100
AcDbLine
 10
148.7079862014
 20
-21.980642824
 30
0.0
 11
148.7079862014
 21
-29.3075237653
 31
0.0
  0
LINE
  5
AB
330
65
100
AcDbEntity
  8
0
  6
SLD-Solid
 62
     0
370
    18
100
AcDbLine
 10
148.7079862014
 20
-29.3075237653
 30
0.0
 11
148.7079862014
 21
-36.6344047066
 31
0.0
  0
LINE
  5
AC
330
65
100
AcDbEntity
  8
0
  6
SLD-Solid
 62
     0
370
    18
100
AcDbLine
 10
148.7079862014
 20
-36.6344047066
 30
0.0
 11
148.7079862014
 21
-43.9612856479
 31
0.0
  0
LINE
  5
AD
330
65
100
AcDbEntity
  8
0
  6
SLD-Solid
 62
     0
370
    18
100
AcDbLine
 10
148.7079862014
 20
-43.9612856479
 30
0.0
 11
148.7079862014
 21
-51.2881665892
 31
0.0
  0
LINE
  5
AE
330
65
100
AcDbEntity
  8
0
  6
SLD-Solid
 62
     0
370
    18
100
AcDbLine
 10
148.7079862014
 20
-51.2881665892
 30
0.0
 11
148.7079862014
 21
-58.6150475306
 31
0.0
  0
LINE
  5
AF
330
65
100
AcDbEntity
  8
0
  6
SLD-Solid
 62
     0
370
    18
100
AcDbLine
 10
148.7079862014
 20
-58.6150475306
 30
0.0
 11
148.7079862014
 21
-65.9419284719
 31
0.0
  0
LINE
  5
B0
330
65
100
AcDbEntity
  8
0
  6
SLD-Solid
 62
     0
370
    18
100
AcDbLine
 10
148.7079862014
 20
-65.9419284719
 30
0.0
 11
148.7079862014
 21
-73.2688094132
 31
0.0
  0
LINE
  5
B1
330
65
100
AcDbEntity
  8
0
  6
SLD-Solid
 62
     0
370
    18
100
AcDbLine
 10
148.7079862014
 20
-73.2688094132
 30
0.0
 11
148.7079862014
 21
-80.5956903545
 31
0.0
  0
LINE
  5
B2
330
65
100
AcDbEntity
  8
0
  6
SLD-Solid
 62
     0
370
    18
100
AcDbLine
 10
148.7079862014
 20
-80.5956903545
 30
0.0
 11
148.7079862014
 21
-87.9225712959
 31
0.0
  0
LINE
  5
B3
330
65
100
AcDbEntity
  8
0
  6
SLD-Solid
 62
     0
370
    18
100
AcDbLine
 10
148.7079862014
 20
-87.9225712959
 30
0.0
 11
148.7079862014
 21
-95.2494522372
 31
0.0
  0
LINE
  5
B4
330
65
100
AcDbEntity
  8
0
  6
SLD-Solid
 62
     0
370
    18
100
AcDbLine
 10
148.7079862014
 20
-95.2494522372
 30
0.0
 11
148.7079862014
 21
-102.5763331785
 31
0.0
  0
LINE
  5
B5
330
65
100
AcDbEntity
  8
0
  6
SLD-Solid
 62
     0
370
    18
100
AcDbLine
 10
148.7079862014
 20
-102.5763331785
 30
0.0
 11
148.7079862014
 21
-109.9032141198
 31
0.0
  0
LINE
  5
B6
330
65
100
AcDbEntity
  8
0
  6
SLD-Solid
 62
     0
370
    18
100
AcDbLine
 10
148.7079862014
 20
-109.9032141198
 30
0.0
 11
148.7079862014
 21
-117.2300950611
 31
0.0
  0
LINE
  5
B7
330
65
100
AcDbEntity
  8
0
  6
SLD-Solid
 62
     0
370
    18
100
AcDbLine
 10
148.7079862014
 20
-117.2300950611
 30
0.0
 11
148.7079862014
 21
-124.5569760025
 31
0.0
  0
LINE
  5
B8
330
65
100
AcDbEntity
  8
0
  6
SLD-Solid
 62
     0
370
    18
100
AcDbLine
 10
148.7079862014
 20
-124.5569760025
 30
0.0
 11
148.7079862014
 21
-131.8838569438
 31
0.0
  0
LINE
  5
B9
330
65
100
AcDbEntity
  8
0
  6
SLD-Solid
 62
     0
370
    18
100
AcDbLine
 10
170.1351893107
 20
-7.3268809413
 30
0.0
 11
170.1351893107
 21
-14.6537618826
 31
0.0
  0
LINE
  5
BA
330
65
100
AcDbEntity
  8
0
  6
SLD-Solid
 62
     0
370
    18
100
AcDbLine
 10
170.1351893107
 20
-14.6537618826
 30
0.0
 11
170.1351893107
 21
-21.980642824
 31
0.0
  0
LINE
  5
BB
330
65
100
AcDbEntity
  8
0
  6
SLD-Solid
 62
     0
370
    18
100
AcDbLine
 10
170.1351893107
 20
-21.980642824
 30
0.0
 11
170.1351893107
 21
-29.3075237653
 31
0.0
  0
LINE
  5
BC
330
65
100
AcDbEntity
  8
0
  6
SLD-Solid
 62
     0
370
    18
100
AcDbLine
 10
170.1351893107
 20
-29.3075237653
 30
0.0
 11
170.1351893107
 21
-36.6344047066
 31
0.0
  0
LINE
  5
BD
330
65
100
AcDbEntity
  8
0
  6
SLD-Solid
 62
     0
370
    18
100
AcDbLine
 10
170.1351893107
 20
-36.6344047066
 30
0.0
 11
170.1351893107
 21
-43.9612856479
 31
0.0
  0
LINE
  5
BE
330
65
100
AcDbEntity
  8
0
  6
SLD-Solid
 62
     0
370
    18
100
AcDbLine
 10
170.1351893107
 20
-43.9612856479
 30
0.0
 11
170.1351893107
 21
-51.2881665892
 31
0.0
  0
LINE
  5
BF
330
65
100
AcDbEntity
  8
0
  6
SLD-Solid
 62
     0
370
    18
100
AcDbLine
 10
170.1351893107
 20
-51.2881665892
 30
0.0
 11
170.1351893107
 21
-58.6150475306
 31
0.0
  0
LINE
  5
C0
330
65
100
AcDbEntity
  8
0
  6
SLD-Solid
 62
     0
370
    18
100
AcDbLine
 10
170.1351893107
 20
-58.6150475306
 30
0.0
 11
170.1351893107
 21
-65.9419284719
 31
0.0
  0
LINE
  5
C1
330
65
100
AcDbEntity
  8
0
  6
SLD-Solid
 62
     0
370
    18
100
AcDbLine
 10
170.1351893107
 20
-65.9419284719
 30
0.0
 11
170.1351893107
 21
-73.2688094132
 31
0.0
  0
LINE
  5
C2
330
65
100
AcDbEntity
  8
0
  6
SLD-Solid
 62
     0
370
    18
100
AcDbLine
 10
170.1351893107
 20
-73.2688094132
 30
0.0
 11
170.1351893107
 21
-80.5956903545
 31
0.0
  0
LINE
  5
C3
330
65
100
AcDbEntity
  8
0
  6
SLD-Solid
 62
     0
370
    18
100
AcDbLine
 10
170.1351893107
 20
-80.5956903545
 30
0.0
 11
170.1351893107
 21
-87.9225712959
 31
0.0
  0
LINE
  5
C4
330
65
100
AcDbEntity
  8
0
  6
SLD-Solid
 62
     0
370
    18
100
AcDbLine
 10
170.1351893107
 20
-87.9225712959
 30
0.0
 11
170.1351893107
 21
-95.2494522372
 31
0.0
  0
LINE
  5
C5
330
65
100
AcDbEntity
  8
0
  6
SLD-Solid
 62
     0
370
    18
100
AcDbLine
 10
170.1351893107
 20
-95.2494522372
 30
0.0
 11
170.1351893107
 21
-102.5763331785
 31
0.0
  0
LINE
  5
C6
330
65
100
AcDbEntity
  8
0
  6
SLD-Solid
 62
     0
370
    18
100
AcDbLine
 10
170.1351893107
 20
-102.5763331785
 30
0.0
 11
170.1351893107
 21
-109.9032141198
 31
0.0
  0
LINE
  5
C7
330
65
100
AcDbEntity
  8
0
  6
SLD-Solid
 62
     0
370
    18
100
AcDbLine
 10
170.1351893107
 20
-109.9032141198
 30
0.0
 11
170.1351893107
 21
-117.2300950611
 31
0.0
  0
LINE
  5
C8
330
65
100
AcDbEntity
  8
0
  6
SLD-Solid
 62
     0
370
    18
100
AcDbLine
 10
170.1351893107
 20
-117.2300950611
 30
0.0
 11
170.1351893107
 21
-124.5569760025
 31
0.0
  0
LINE
  5
C9
330
65
100
AcDbEntity
  8
0
  6
SLD-Solid
 62
     0
370
    18
100
AcDbLine
 10
170.1351893107
 20
-124.5569760025
 30
0.0
 11
170.1351893107
 21
-131.8838569438
 31
0.0
  0
LINE
  5
CA
330
65
100
AcDbEntity
  8
0
  6
SLD-Solid
 62
     0
370
    18
100
AcDbLine
 10
0.0
 20
-14.6537618826
 30
0.0
 11
25.88
 21
-14.6537618826
 31
0.0
  0
LINE
  5
CB
330
65
100
AcDbEntity
  8
0
  6
SLD-Solid
 62
     0
370
    18
100
AcDbLine
 10
25.88
 20
-14.6537618826
 30
0.0
 11
74.0834771442
 21
-14.6537618826
 31
0.0
  0
LINE
  5
CC
330
65
100
AcDbEntity
  8
0
  6
SLD-Solid
 62
     0
370
    18
100
AcDbLine
 10
74.0834771442
 20
-14.6537618826
 30
0.0
 11
148.7079862014
 21
-14.6537618826
 31
0.0
  0
LINE
  5
CD
330
65
100
AcDbEntity
  8
0
  6
SLD-Solid
 62
     0
370
    18
100
AcDbLine
 10
148.7079862014
 20
-14.6537618826
 30
0.0
 11
170.1351893107
 21
-14.6537618826
 31
0.0
  0
LINE
  5
CE
330
65
100
AcDbEntity
  8
0
  6
SLD-Solid
 62
     0
370
    18
100
AcDbLine
 10
0.0
 20
-21.980642824
 30
0.0
 11
25.88
 21
-21.980642824
 31
0.0
  0
LINE
  5
CF
330
65
100
AcDbEntity
  8
0
  6
SLD-Solid
 62
     0
370
    18
100
AcDbLine
 10
25.88
 20
-21.980642824
 30
0.0
 11
74.0834771442
 21
-21.980642824
 31
0.0
  0
LINE
  5
D0
330
65
100
AcDbEntity
  8
0
  6
SLD-Solid
 62
     0
370
    18
100
AcDbLine
 10
74.0834771442
 20
-21.980642824
 30
0.0
 11
148.7079862014
 21
-21.980642824
 31
0.0
  0
LINE
  5
D1
330
65
100
AcDbEntity
  8
0
  6
SLD-Solid
 62
     0
370
    18
100
AcDbLine
 10
148.7079862014
 20
-21.980642824
 30
0.0
 11
170.1351893107
 21
-21.980642824
 31
0.0
  0
LINE
  5
D2
330
65
100
AcDbEntity
  8
0
  6
SLD-Solid
 62
     0
370
    18
100
AcDbLine
 10
0.0
 20
-29.3075237653
 30
0.0
 11
25.88
 21
-29.3075237653
 31
0.0
  0
LINE
  5
D3
330
65
100
AcDbEntity
  8
0
  6
SLD-Solid
 62
     0
370
    18
100
AcDbLine
 10
25.88
 20
-29.3075237653
 30
0.0
 11
74.0834771442
 21
-29.3075237653
 31
0.0
  0
LINE
  5
D4
330
65
100
AcDbEntity
  8
0
  6
SLD-Solid
 62
     0
370
    18
100
AcDbLine
 10
74.0834771442
 20
-29.3075237653
 30
0.0
 11
148.7079862014
 21
-29.3075237653
 31
0.0
  0
LINE
  5
D5
330
65
100
AcDbEntity
  8
0
  6
SLD-Solid
 62
     0
370
    18
100
AcDbLine
 10
148.7079862014
 20
-29.3075237653
 30
0.0
 11
170.1351893107
 21
-29.3075237653
 31
0.0
  0
LINE
  5
D6
330
65
100
AcDbEntity
  8
0
  6
SLD-Solid
 62
     0
370
    18
100
AcDbLine
 10
0.0
 20
-36.6344047066
 30
0.0
 11
25.88
 21
-36.6344047066
 31
0.0
  0
LINE
  5
D7
330
65
100
AcDbEntity
  8
0
  6
SLD-Solid
 62
     0
370
    18
100
AcDbLine
 10
25.88
 20
-36.6344047066
 30
0.0
 11
74.0834771442
 21
-36.6344047066
 31
0.0
  0
LINE
  5
D8
330
65
100
AcDbEntity
  8
0
  6
SLD-Solid
 62
     0
370
    18
100
AcDbLine
 10
74.0834771442
 20
-36.6344047066
 30
0.0
 11
148.7079862014
 21
-36.6344047066
 31
0.0
  0
LINE
  5
D9
330
65
100
AcDbEntity
  8
0
  6
SLD-Solid
 62
     0
370
    18
100
AcDbLine
 10
148.7079862014
 20
-36.6344047066
 30
0.0
 11
170.1351893107
 21
-36.6344047066
 31
0.0
  0
LINE
  5
DA
330
65
100
AcDbEntity
  8
0
  6
SLD-Solid
 62
     0
370
    18
100
AcDbLine
 10
0.0
 20
-43.9612856479
 30
0.0
 11
25.88
 21
-43.9612856479
 31
0.0
  0
LINE
  5
DB
330
65
100
AcDbEntity
  8
0
  6
SLD-Solid
 62
     0
370
    18
100
AcDbLine
 10
25.88
 20
-43.9612856479
 30
0.0
 11
74.0834771442
 21
-43.9612856479
 31
0.0
  0
LINE
  5
DC
330
65
100
AcDbEntity
  8
0
  6
SLD-Solid
 62
     0
370
    18
100
AcDbLine
 10
74.0834771442
 20
-43.9612856479
 30
0.0
 11
148.7079862014
 21
-43.9612856479
 31
0.0
  0
LINE
  5
DD
330
65
100
AcDbEntity
  8
0
  6
SLD-Solid
 62
     0
370
    18
100
AcDbLine
 10
148.7079862014
 20
-43.9612856479
 30
0.0
 11
170.1351893107
 21
-43.9612856479
 31
0.0
  0
LINE
  5
DE
330
65
100
AcDbEntity
  8
0
  6
SLD-Solid
 62
     0
370
    18
100
AcDbLine
 10
0.0
 20
-51.2881665892
 30
0.0
 11
25.88
 21
-51.2881665892
 31
0.0
  0
LINE
  5
DF
330
65
100
AcDbEntity
  8
0
  6
SLD-Solid
 62
     0
370
    18
100
AcDbLine
 10
25.88
 20
-51.2881665892
 30
0.0
 11
74.0834771442
 21
-51.2881665892
 31
0.0
  0
LINE
  5
E0
330
65
100
AcDbEntity
  8
0
  6
SLD-Solid
 62
     0
370
    18
100
AcDbLine
 10
74.0834771442
 20
-51.2881665892
 30
0.0
 11
148.7079862014
 21
-51.2881665892
 31
0.0
  0
LINE
  5
E1
330
65
100
AcDbEntity
  8
0
  6
SLD-Solid
 62
     0
370
    18
100
AcDbLine
 10
148.7079862014
 20
-51.2881665892
 30
0.0
 11
170.1351893107
 21
-51.2881665892
 31
0.0
  0
LINE
  5
E2
330
65
100
AcDbEntity
  8
0
  6
SLD-Solid
 62
     0
370
    18
100
AcDbLine
 10
0.0
 20
-58.6150475306
 30
0.0
 11
25.88
 21
-58.6150475306
 31
0.0
  0
LINE
  5
E3
330
65
100
AcDbEntity
  8
0
  6
SLD-Solid
 62
     0
370
    18
100
AcDbLine
 10
25.88
 20
-58.6150475306
 30
0.0
 11
74.0834771442
 21
-58.6150475306
 31
0.0
  0
LINE
  5
E4
330
65
100
AcDbEntity
  8
0
  6
SLD-Solid
 62
     0
370
    18
100
AcDbLine
 10
74.0834771442
 20
-58.6150475306
 30
0.0
 11
148.7079862014
 21
-58.6150475306
 31
0.0
  0
LINE
  5
E5
330
65
100
AcDbEntity
  8
0
  6
SLD-Solid
 62
     0
370
    18
100
AcDbLine
 10
148.7079862014
 20
-58.6150475306
 30
0.0
 11
170.1351893107
 21
-58.6150475306
 31
0.0
  0
LINE
  5
E6
330
65
100
AcDbEntity
  8
0
  6
SLD-Solid
 62
     0
370
    18
100
AcDbLine
 10
0.0
 20
-65.9419284719
 30
0.0
 11
25.88
 21
-65.9419284719
 31
0.0
  0
LINE
  5
E7
330
65
100
AcDbEntity
  8
0
  6
SLD-Solid
 62
     0
370
    18
100
AcDbLine
 10
25.88
 20
-65.9419284719
 30
0.0
 11
74.0834771442
 21
-65.9419284719
 31
0.0
  0
LINE
  5
E8
330
65
100
AcDbEntity
  8
0
  6
SLD-Solid
 62
     0
370
    18
100
AcDbLine
 10
74.0834771442
 20
-65.9419284719
 30
0.0
 11
148.7079862014
 21
-65.9419284719
 31
0.0
  0
LINE
  5
E9
330
65
100
AcDbEntity
  8
0
  6
SLD-Solid
 62
     0
370
    18
100
AcDbLine
 10
148.7079862014
 20
-65.9419284719
 30
0.0
 11
170.1351893107
 21
-65.9419284719
 31
0.0
  0
LINE
  5
EA
330
65
100
AcDbEntity
  8
0
  6
SLD-Solid
 62
     0
370
    18
100
AcDbLine
 10
0.0
 20
-73.2688094132
 30
0.0
 11
25.88
 21
-73.2688094132
 31
0.0
  0
LINE
  5
EB
330
65
100
AcDbEntity
  8
0
  6
SLD-Solid
 62
     0
370
    18
100
AcDbLine
 10
25.88
 20
-73.2688094132
 30
0.0
 11
74.0834771442
 21
-73.2688094132
 31
0.0
  0
LINE
  5
EC
330
65
100
AcDbEntity
  8
0
  6
SLD-Solid
 62
     0
370
    18
100
AcDbLine
 10
74.0834771442
 20
-73.2688094132
 30
0.0
 11
148.7079862014
 21
-73.2688094132
 31
0.0
  0
LINE
  5
ED
330
65
100
AcDbEntity
  8
0
  6
SLD-Solid
 62
     0
370
    18
100
AcDbLine
 10
148.7079862014
 20
-73.2688094132
 30
0.0
 11
170.1351893107
 21
-73.2688094132
 31
0.0
  0
LINE
  5
EE
330
65
100
AcDbEntity
  8
0
  6
SLD-Solid
 62
     0
370
    18
100
AcDbLine
 10
0.0
 20
-80.5956903545
 30
0.0
 11
25.88
 21
-80.5956903545
 31
0.0
  0
LINE
  5
EF
330
65
100
AcDbEntity
  8
0
  6
SLD-Solid
 62
     0
370
    18
100
AcDbLine
 10
25.88
 20
-80.5956903545
 30
0.0
 11
74.0834771442
 21
-80.5956903545
 31
0.0
  0
LINE
  5
F0
330
65
100
AcDbEntity
  8
0
  6
SLD-Solid
 62
     0
370
    18
100
AcDbLine
 10
74.0834771442
 20
-80.5956903545
 30
0.0
 11
148.7079862014
 21
-80.5956903545
 31
0.0
  0
LINE
  5
F1
330
65
100
AcDbEntity
  8
0
  6
SLD-Solid
 62
     0
370
    18
100
AcDbLine
 10
148.7079862014
 20
-80.5956903545
 30
0.0
 11
170.1351893107
 21
-80.5956903545
 31
0.0
  0
LINE
  5
F2
330
65
100
AcDbEntity
  8
0
  6
SLD-Solid
 62
     0
370
    18
100
AcDbLine
 10
0.0
 20
-87.9225712959
 30
0.0
 11
25.88
 21
-87.9225712959
 31
0.0
  0
LINE
  5
F3
330
65
100
AcDbEntity
  8
0
  6
SLD-Solid
 62
     0
370
    18
100
AcDbLine
 10
25.88
 20
-87.9225712959
 30
0.0
 11
74.0834771442
 21
-87.9225712959
 31
0.0
  0
LINE
  5
F4
330
65
100
AcDbEntity
  8
0
  6
SLD-Solid
 62
     0
370
    18
100
AcDbLine
 10
74.0834771442
 20
-87.9225712959
 30
0.0
 11
148.7079862014
 21
-87.9225712959
 31
0.0
  0
LINE
  5
F5
330
65
100
AcDbEntity
  8
0
  6
SLD-Solid
 62
     0
370
    18
100
AcDbLine
 10
148.7079862014
 20
-87.9225712959
 30
0.0
 11
170.1351893107
 21
-87.9225712959
 31
0.0
  0
LINE
  5
F6
330
65
100
AcDbEntity
  8
0
  6
SLD-Solid
 62
     0
370
    18
100
AcDbLine
 10
0.0
 20
-95.2494522372
 30
0.0
 11
25.88
 21
-95.2494522372
 31
0.0
  0
LINE
  5
F7
330
65
100
AcDbEntity
  8
0
  6
SLD-Solid
 62
     0
370
    18
100
AcDbLine
 10
25.88
 20
-95.2494522372
 30
0.0
 11
74.0834771442
 21
-95.2494522372
 31
0.0
  0
LINE
  5
F8
330
65
100
AcDbEntity
  8
0
  6
SLD-Solid
 62
     0
370
    18
100
AcDbLine
 10
74.0834771442
 20
-95.2494522372
 30
0.0
 11
148.7079862014
 21
-95.2494522372
 31
0.0
  0
LINE
  5
F9
330
65
100
AcDbEntity
  8
0
  6
SLD-Solid
 62
     0
370
    18
100
AcDbLine
 10
148.7079862014
 20
-95.2494522372
 30
0.0
 11
170.1351893107
 21
-95.2494522372
 31
0.0
  0
LINE
  5
FA
330
65
100
AcDbEntity
  8
0
  6
SLD-Solid
 62
     0
370
    18
100
AcDbLine
 10
0.0
 20
-102.5763331785
 30
0.0
 11
25.88
 21
-102.5763331785
 31
0.0
  0
LINE
  5
FB
330
65
100
AcDbEntity
  8
0
  6
SLD-Solid
 62
     0
370
    18
100
AcDbLine
 10
25.88
 20
-102.5763331785
 30
0.0
 11
74.0834771442
 21
-102.5763331785
 31
0.0
  0
LINE
  5
FC
330
65
100
AcDbEntity
  8
0
  6
SLD-Solid
 62
     0
370
    18
100
AcDbLine
 10
74.0834771442
 20
-102.5763331785
 30
0.0
 11
148.7079862014
 21
-102.5763331785
 31
0.0
  0
LINE
  5
FD
330
65
100
AcDbEntity
  8
0
  6
SLD-Solid
 62
     0
370
    18
100
AcDbLine
 10
148.7079862014
 20
-102.5763331785
 30
0.0
 11
170.1351893107
 21
-102.5763331785
 31
0.0
  0
LINE
  5
FE
330
65
100
AcDbEntity
  8
0
  6
SLD-Solid
 62
     0
370
    18
100
AcDbLine
 10
0.0
 20
-109.9032141198
 30
0.0
 11
25.88
 21
-109.9032141198
 31
0.0
  0
LINE
  5
FF
330
65
100
AcDbEntity
  8
0
  6
SLD-Solid
 62
     0
370
    18
100
AcDbLine
 10
25.88
 20
-109.9032141198
 30
0.0
 11
74.0834771442
 21
-109.9032141198
 31
0.0
  0
LINE
  5
100
330
65
100
AcDbEntity
  8
0
  6
SLD-Solid
 62
     0
370
    18
100
AcDbLine
 10
74.0834771442
 20
-109.9032141198
 30
0.0
 11
148.7079862014
 21
-109.9032141198
 31
0.0
  0
LINE
  5
101
330
65
100
AcDbEntity
  8
0
  6
SLD-Solid
 62
     0
370
    18
100
AcDbLine
 10
148.7079862014
 20
-109.9032141198
 30
0.0
 11
170.1351893107
 21
-109.9032141198
 31
0.0
  0
LINE
  5
102
330
65
100
AcDbEntity
  8
0
  6
SLD-Solid
 62
     0
370
    18
100
AcDbLine
 10
0.0
 20
-117.2300950611
 30
0.0
 11
25.88
 21
-117.2300950611
 31
0.0
  0
LINE
  5
103
330
65
100
AcDbEntity
  8
0
  6
SLD-Solid
 62
     0
370
    18
100
AcDbLine
 10
25.88
 20
-117.2300950611
 30
0.0
 11
74.0834771442
 21
-117.2300950611
 31
0.0
  0
LINE
  5
104
330
65
100
AcDbEntity
  8
0
  6
SLD-Solid
 62
     0
370
    18
100
AcDbLine
 10
74.0834771442
 20
-117.2300950611
 30
0.0
 11
148.7079862014
 21
-117.2300950611
 31
0.0
  0
LINE
  5
105
330
65
100
AcDbEntity
  8
0
  6
SLD-Solid
 62
     0
370
    18
100
AcDbLine
 10
148.7079862014
 20
-117.2300950611
 30
0.0
 11
170.1351893107
 21
-117.2300950611
 31
0.0
  0
LINE
  5
106
330
65
100
AcDbEntity
  8
0
  6
SLD-Solid
 62
     0
370
    18
100
AcDbLine
 10
0.0
 20
-124.5569760025
 30
0.0
 11
25.88
 21
-124.5569760025
 31
0.0
  0
LINE
  5
107
330
65
100
AcDbEntity
  8
0
  6
SLD-Solid
 62
     0
370
    18
100
AcDbLine
 10
25.88
 20
-124.5569760025
 30
0.0
 11
74.0834771442
 21
-124.5569760025
 31
0.0
  0
LINE
  5
108
330
65
100
AcDbEntity
  8
0
  6
SLD-Solid
 62
     0
370
    18
100
AcDbLine
 10
74.0834771442
 20
-124.5569760025
 30
0.0
 11
148.7079862014
 21
-124.5569760025
 31
0.0
  0
LINE
  5
109
330
65
100
AcDbEntity
  8
0
  6
SLD-Solid
 62
     0
370
    18
100
AcDbLine
 10
148.7079862014
 20
-124.5569760025
 30
0.0
 11
170.1351893107
 21
-124.5569760025
 31
0.0
  0
LINE
  5
10A
330
65
100
AcDbEntity
  8
0
  6
SLD-Solid
 62
     0
370
    18
100
AcDbLine
 10
0.0
 20
-131.8838569438
 30
0.0
 11
25.88
 21
-131.8838569438
 31
0.0
  0
LINE
  5
10B
330
65
100
AcDbEntity
  8
0
  6
SLD-Solid
 62
     0
370
    18
100
AcDbLine
 10
25.88
 20
-131.8838569438
 30
0.0
 11
74.0834771442
 21
-131.8838569438
 31
0.0
  0
LINE
  5
10C
330
65
100
AcDbEntity
  8
0
  6
SLD-Solid
 62
     0
370
    18
100
AcDbLine
 10
74.0834771442
 20
-131.8838569438
 30
0.0
 11
148.7079862014
 21
-131.8838569438
 31
0.0
  0
LINE
  5
10D
330
65
100
AcDbEntity
  8
0
  6
SLD-Solid
 62
     0
370
    18
100
AcDbLine
 10
148.7079862014
 20
-131.8838569438
 30
0.0
 11
170.1351893107
 21
-131.8838569438
 31
0.0
  0
MTEXT
  5
10F
330
65
100
AcDbEntity
  8
0
  6
Continuous
 62
     0
370
     0
100
AcDbMText
 10
2.9771525437
 20
-1.8879689525
 30
0.0
 40
3.5
 41
0.0
 71
     1
 72
     1
  1
ITEM NO.
  7
SLDTEXTSTYLE0
 73
     1
 44
1.0
  0
MTEXT
  5
110
330
65
100
AcDbEntity
  8
0
  6
Continuous
 62
     0
370
     0
100
AcDbMText
 10
34.4116009223
 20
-1.8879689525
 30
0.0
 40
3.5
 41
0.0
 71
     1
 72
     1
  1
PART NUMBER
  7
SLDTEXTSTYLE0
 73
     1
 44
1.0
  0
MTEXT
  5
111
330
65
100
AcDbEntity
  8
0
  6
Continuous
 62
     0
370
     0
100
AcDbMText
 10
96.7516350674
 20
-1.8879689525
 30
0.0
 40
3.5
 41
0.0
 71
     1
 72
     1
  1
DESCRIPTION
  7
SLDTEXTSTYLE0
 73
     1
 44
1.0
  0
MTEXT
  5
112
330
65
100
AcDbEntity
  8
0
  6
Continuous
 62
     0
370
     0
100
AcDbMText
 10
154.3684624342
 20
-1.8879689525
 30
0.0
 40
3.5
 41
0.0
 71
     1
 72
     1
  1
QTY.
  7
SLDTEXTSTYLE0
 73
     1
 44
1.0
  0
MTEXT
  5
113
330
65
100
AcDbEntity
  8
0
  6
Continuous
 62
     0
370
     0
100
AcDbMText
 10
11.6469444032
 20
-9.2148498938
 30
0.0
 40
3.5
 41
0.0
 71
     1
 72
     1
  1
1
  7
SLDTEXTSTYLE0
 73
     1
 44
1.0
  0
MTEXT
  5
114
330
65
100
AcDbEntity
  8
0
  6
Continuous
 62
     0
370
     0
100
AcDbMText
 10
26.38
 20
-9.2148498938
 30
0.0
 40
3.5
 41
0.0
 71
     1
 72
     1
  1
base
  7
SLDTEXTSTYLE0
 73
     1
 44
1.0
  0
MTEXT
  5
115
330
65
100
AcDbEntity
  8
0
  6
Continuous
 62
     0
370
     0
100
AcDbMText
 10
158.1285321593
 20
-9.2148498938
 30
0.0
 40
3.5
 41
0.0
 71
     1
 72
     1
  1
1
  7
SLDTEXTSTYLE0
 73
     1
 44
1.0
  0
MTEXT
  5
116
330
65
100
AcDbEntity
  8
0
  6
Continuous
 62
     0
370
     0
100
AcDbMText
 10
11.6469444032
 20
-16.5417308352
 30
0.0
 40
3.5
 41
0.0
 71
     1
 72
     1
  1
2
  7
SLDTEXTSTYLE0
 73
     1
 44
1.0
  0
MTEXT
  5
117
330
65
100
AcDbEntity
  8
0
  6
Continuous
 62
     0
370
     0
100
AcDbMText
 10
26.38
 20
-16.5417308352
 30
0.0
 40
3.5
 41
0.0
 71
     1
 72
     1
  1
Tmotor
  7
SLDTEXTSTYLE0
 73
     1
 44
1.0
  0
MTEXT
  5
118
330
65
100
AcDbEntity
  8
0
  6
Continuous
 62
     0
370
     0
100
AcDbMText
 10
158.1285321593
 20
-16.5417308352
 30
0.0
 40
3.5
 41
0.0
 71
     1
 72
     1
  1
8
  7
SLDTEXTSTYLE0
 73
     1
 44
1.0
  0
MTEXT
  5
119
330
65
100
AcDbEntity
  8
0
  6
Continuous
 62
     0
370
     0
100
AcDbMText
 10
11.6469444032
 20
-23.8686117765
 30
0.0
 40
3.5
 41
0.0
 71
     1
 72
     1
  1
3
  7
SLDTEXTSTYLE0
 73
     1
 44
1.0
  0
MTEXT
  5
11A
330
65
100
AcDbEntity
  8
0
  6
Continuous
 62
     0
370
     0
100
AcDbMText
 10
26.38
 20
-23.8686117765
 30
0.0
 40
3.5
 41
0.0
 71
     1
 72
     1
  1
motor
  7
SLDTEXTSTYLE0
 73
     1
 44
1.0
  0
MTEXT
  5
11B
330
65
100
AcDbEntity
  8
0
  6
Continuous
 62
     0
370
     0
100
AcDbMText
 10
158.1285321593
 20
-23.8686117765
 30
0.0
 40
3.5
 41
0.0
 71
     1
 72
     1
  1
4
  7
SLDTEXTSTYLE0
 73
     1
 44
1.0
  0
MTEXT
  5
11C
330
65
100
AcDbEntity
  8
0
  6
Continuous
 62
     0
370
     0
100
AcDbMText
 10
11.6469444032
 20
-31.1954927178
 30
0.0
 40
3.5
 41
0.0
 71
     1
 72
     1
  1
4
  7
SLDTEXTSTYLE0
 73
     1
 44
1.0
  0
MTEXT
  5
11D
330
65
100
AcDbEntity
  8
0
  6
Continuous
 62
     0
370
     0
100
AcDbMText
 10
26.38
 20
-31.1954927178
 30
0.0
 40
3.5
 41
0.0
 71
     1
 72
     1
  1
wheel
  7
SLDTEXTSTYLE0
 73
     1
 44
1.0
  0
MTEXT
  5
11E
330
65
100
AcDbEntity
  8
0
  6
Continuous
 62
     0
370
     0
100
AcDbMText
 10
158.1285321593
 20
-31.1954927178
 30
0.0
 40
3.5
 41
0.0
 71
     1
 72
     1
  1
4
  7
SLDTEXTSTYLE0
 73
     1
 44
1.0
  0
MTEXT
  5
11F
330
65
100
AcDbEntity
  8
0
  6
Continuous
 62
     0
370
     0
100
AcDbMText
 10
11.6469444032
 20
-38.0899893175
 30
0.0
 40
3.5
 41
0.0
 71
     1
 72
     1
  1
5
  7
SLDTEXTSTYLE0
 73
     1
 44
1.0
  0
MTEXT
  5
120
330
65
100
AcDbEntity
  8
0
  6
Continuous
 62
     0
370
     0
100
AcDbMText
 10
26.38
 20
-38.0899893175
 30
0.0
 40
3.5
 41
0.0
 71
     1
 72
     1
  1
base up
  7
SLDTEXTSTYLE0
 73
     1
 44
1.0
  0
MTEXT
  5
121
330
65
100
AcDbEntity
  8
0
  6
Continuous
 62
     0
370
     0
100
AcDbMText
 10
158.1285321593
 20
-38.0899893175
 30
0.0
 40
3.5
 41
0.0
 71
     1
 72
     1
  1
1
  7
SLDTEXTSTYLE0
 73
     1
 44
1.0
  0
MTEXT
  5
122
330
65
100
AcDbEntity
  8
0
  6
Continuous
 62
     0
370
     0
100
AcDbMText
 10
11.6469444032
 20
-45.8492546005
 30
0.0
 40
3.5
 41
0.0
 71
     1
 72
     1
  1
6
  7
SLDTEXTSTYLE0
 73
     1
 44
1.0
  0
MTEXT
  5
123
330
65
100
AcDbEntity
  8
0
  6
Continuous
 62
     0
370
     0
100
AcDbMText
 10
26.38
 20
-45.8492546005
 30
0.0
 40
3.5
 41
0.0
 71
     1
 72
     1
  1
LL
  7
SLDTEXTSTYLE0
 73
     1
 44
1.0
  0
MTEXT
  5
124
330
65
100
AcDbEntity
  8
0
  6
Continuous
 62
     0
370
     0
100
AcDbMText
 10
158.1285321593
 20
-45.8492546005
 30
0.0
 40
3.5
 41
0.0
 71
     1
 72
     1
  1
1
  7
SLDTEXTSTYLE0
 73
     1
 44
1.0
  0
MTEXT
  5
125
330
65
100
AcDbEntity
  8
0
  6
Continuous
 62
     0
370
     0
100
AcDbMText
 10
11.6469444032
 20
-53.1761355418
 30
0.0
 40
3.5
 41
0.0
 71
     1
 72
     1
  1
7
  7
SLDTEXTSTYLE0
 73
     1
 44
1.0
  0
MTEXT
  5
126
330
65
100
AcDbEntity
  8
0
  6
Continuous
 62
     0
370
     0
100
AcDbMText
 10
26.38
 20
-53.1761355418
 30
0.0
 40
3.5
 41
0.0
 71
     1
 72
     1
  1
RR
  7
SLDTEXTSTYLE0
 73
     1
 44
1.0
  0
MTEXT
  5
127
330
65
100
AcDbEntity
  8
0
  6
Continuous
 62
     0
370
     0
100
AcDbMText
 10
158.1285321593
 20
-53.1761355418
 30
0.0
 40
3.5
 41
0.0
 71
     1
 72
     1
  1
1
  7
SLDTEXTSTYLE0
 73
     1
 44
1.0
  0
MTEXT
  5
128
330
65
100
AcDbEntity
  8
0
  6
Continuous
 62
     0
370
     0
100
AcDbMText
 10
11.6469444032
 20
-60.5030164831
 30
0.0
 40
3.5
 41
0.0
 71
     1
 72
     1
  1
8
  7
SLDTEXTSTYLE0
 73
     1
 44
1.0
  0
MTEXT
  5
129
330
65
100
AcDbEntity
  8
0
  6
Continuous
 62
     0
370
     0
100
AcDbMText
 10
26.38
 20
-60.5030164831
 30
0.0
 40
3.5
 41
0.0
 71
     1
 72
     1
  1
Servo RDS3115
  7
SLDTEXTSTYLE0
 73
     1
 44
1.0
  0
MTEXT
  5
12A
330
65
100
AcDbEntity
  8
0
  6
Continuous
 62
     0
370
     0
100
AcDbMText
 10
158.1285321593
 20
-60.5030164831
 30
0.0
 40
3.5
 41
0.0
 71
     1
 72
     1
  1
1
  7
SLDTEXTSTYLE0
 73
     1
 44
1.0
  0
MTEXT
  5
12B
330
65
100
AcDbEntity
  8
0
  6
Continuous
 62
     0
370
     0
100
AcDbMText
 10
11.6469444032
 20
-67.8298974244
 30
0.0
 40
3.5
 41
0.0
 71
     1
 72
     1
  1
9
  7
SLDTEXTSTYLE0
 73
     1
 44
1.0
  0
MTEXT
  5
12C
330
65
100
AcDbEntity
  8
0
  6
Continuous
 62
     0
370
     0
100
AcDbMText
 10
26.38
 20
-67.8298974244
 30
0.0
 40
3.5
 41
0.0
 71
     1
 72
     1
  1
lock_servo_R
  7
SLDTEXTSTYLE0
 73
     1
 44
1.0
  0
MTEXT
  5
12D
330
65
100
AcDbEntity
  8
0
  6
Continuous
 62
     0
370
     0
100
AcDbMText
 10
158.1285321593
 20
-67.8298974244
 30
0.0
 40
3.5
 41
0.0
 71
     1
 72
     1
  1
1
  7
SLDTEXTSTYLE0
 73
     1
 44
1.0
  0
MTEXT
  5
12E
330
65
100
AcDbEntity
  8
0
  6
Continuous
 62
     0
370
     0
100
AcDbMText
 10
10.3538888065
 20
-75.1567783657
 30
0.0
 40
3.5
 41
0.0
 71
     1
 72
     1
  1
10
  7
SLDTEXTSTYLE0
 73
     1
 44
1.0
  0
MTEXT
  5
12F
330
65
100
AcDbEntity
  8
0
  6
Continuous
 62
     0
370
     0
100
AcDbMText
 10
26.38
 20
-75.1567783657
 30
0.0
 40
3.5
 41
0.0
 71
     1
 72
     1
  1
lock_servo_L
  7
SLDTEXTSTYLE0
 73
     1
 44
1.0
  0
MTEXT
  5
130
330
65
100
AcDbEntity
  8
0
  6
Continuous
 62
     0
370
     0
100
AcDbMText
 10
158.1285321593
 20
-75.1567783657
 30
0.0
 40
3.5
 41
0.0
 71
     1
 72
     1
  1
1
  7
SLDTEXTSTYLE0
 73
     1
 44
1.0
  0
MTEXT
  5
131
330
65
100
AcDbEntity
  8
0
  6
Continuous
 62
     0
370
     0
100
AcDbMText
 10
10.3538888065
 20
-82.4836593071
 30
0.0
 40
3.5
 41
0.0
 71
     1
 72
     1
  1
11
  7
SLDTEXTSTYLE0
 73
     1
 44
1.0
  0
MTEXT
  5
132
330
65
100
AcDbEntity
  8
0
  6
Continuous
 62
     0
370
     0
100
AcDbMText
 10
26.38
 20
-82.4836593071
 30
0.0
 40
3.5
 41
0.0
 71
     1
 72
     1
  1
arm
  7
SLDTEXTSTYLE0
 73
     1
 44
1.0
  0
MTEXT
  5
133
330
65
100
AcDbEntity
  8
0
  6
Continuous
 62
     0
370
     0
100
AcDbMText
 10
158.1285321593
 20
-82.4836593071
 30
0.0
 40
3.5
 41
0.0
 71
     1
 72
     1
  1
2
  7
SLDTEXTSTYLE0
 73
     1
 44
1.0
  0
MTEXT
  5
134
330
65
100
AcDbEntity
  8
0
  6
Continuous
 62
     0
370
     0
100
AcDbMText
 10
10.3538888065
 20
-89.3781559067
 30
0.0
 40
3.5
 41
0.0
 71
     1
 72
     1
  1
12
  7
SLDTEXTSTYLE0
 73
     1
 44
1.0
  0
MTEXT
  5
135
330
65
100
AcDbEntity
  8
0
  6
Continuous
 62
     0
370
     0
100
AcDbMText
 10
26.38
 20
-89.3781559067
 30
0.0
 40
3.5
 41
0.0
 71
     1
 72
     1
  1
body_gripper
  7
SLDTEXTSTYLE0
 73
     1
 44
1.0
  0
MTEXT
  5
136
330
65
100
AcDbEntity
  8
0
  6
Continuous
 62
     0
370
     0
100
AcDbMText
 10
158.1285321593
 20
-89.3781559067
 30
0.0
 40
3.5
 41
0.0
 71
     1
 72
     1
  1
1
  7
SLDTEXTSTYLE0
 73
     1
 44
1.0
  0
MTEXT
  5
137
330
65
100
AcDbEntity
  8
0
  6
Continuous
 62
     0
370
     0
100
AcDbMText
 10
10.3538888065
 20
-96.7050368481
 30
0.0
 40
3.5
 41
0.0
 71
     1
 72
     1
  1
13
  7
SLDTEXTSTYLE0
 73
     1
 44
1.0
  0
MTEXT
  5
138
330
65
100
AcDbEntity
  8
0
  6
Continuous
 62
     0
370
     0
100
AcDbMText
 10
26.38
 20
-96.7050368481
 30
0.0
 40
3.5
 41
0.0
 71
     1
 72
     1
  1
obj
  7
SLDTEXTSTYLE0
 73
     1
 44
1.0
  0
MTEXT
  5
139
330
65
100
AcDbEntity
  8
0
  6
Continuous
 62
     0
370
     0
100
AcDbMText
 10
158.1285321593
 20
-96.7050368481
 30
0.0
 40
3.5
 41
0.0
 71
     1
 72
     1
  1
1
  7
SLDTEXTSTYLE0
 73
     1
 44
1.0
  0
MTEXT
  5
13A
330
65
100
AcDbEntity
  8
0
  6
Continuous
 62
     0
370
     0
100
AcDbMText
 10
10.3538888065
 20
-104.464302131
 30
0.0
 40
3.5
 41
0.0
 71
     1
 72
     1
  1
14
  7
SLDTEXTSTYLE0
 73
     1
 44
1.0
  0
MTEXT
  5
13B
330
65
100
AcDbEntity
  8
0
  6
Continuous
 62
     0
370
     0
100
AcDbMText
 10
26.38
 20
-104.464302131
 30
0.0
 40
3.5
 41
0.0
 71
     1
 72
     1
  1
servo
  7
SLDTEXTSTYLE0
 73
     1
 44
1.0
  0
MTEXT
  5
13C
330
65
100
AcDbEntity
  8
0
  6
Continuous
 62
     0
370
     0
100
AcDbMText
 10
158.1285321593
 20
-104.464302131
 30
0.0
 40
3.5
 41
0.0
 71
     1
 72
     1
  1
1
  7
SLDTEXTSTYLE0
 73
     1
 44
1.0
  0
MTEXT
  5
13D
330
65
100
AcDbEntity
  8
0
  6
Continuous
 62
     0
370
     0
100
AcDbMText
 10
10.3538888065
 20
-111.3587987307
 30
0.0
 40
3.5
 41
0.0
 71
     1
 72
     1
  1
15
  7
SLDTEXTSTYLE0
 73
     1
 44
1.0
  0
MTEXT
  5
13E
330
65
100
AcDbEntity
  8
0
  6
Continuous
 62
     0
370
     0
100
AcDbMText
 10
26.38
 20
-111.3587987307
 30
0.0
 40
3.5
 41
0.0
 71
     1
 72
     1
  1
body_lower_gripper
  7
SLDTEXTSTYLE0
 73
     1
 44
1.0
  0
MTEXT
  5
13F
330
65
100
AcDbEntity
  8
0
  6
Continuous
 62
     0
370
     0
100
AcDbMText
 10
158.1285321593
 20
-111.3587987307
 30
0.0
 40
3.5
 41
0.0
 71
     1
 72
     1
  1
1
  7
SLDTEXTSTYLE0
 73
     1
 44
1.0
  0
MTEXT
  5
140
330
65
100
AcDbEntity
  8
0
  6
Continuous
 62
     0
370
     0
100
AcDbMText
 10
10.3538888065
 20
-118.685679672
 30
0.0
 40
3.5
 41
0.0
 71
     1
 72
     1
  1
16
  7
SLDTEXTSTYLE0
 73
     1
 44
1.0
  0
MTEXT
  5
141
330
65
100
AcDbEntity
  8
0
  6
Continuous
 62
     0
370
     0
100
AcDbMText
 10
26.38
 20
-118.685679672
 30
0.0
 40
3.5
 41
0.0
 71
     1
 72
     1
  1
standbody_gripper
  7
SLDTEXTSTYLE0
 73
     1
 44
1.0
  0
MTEXT
  5
142
330
65
100
AcDbEntity
  8
0
  6
Continuous
 62
     0
370
     0
100
AcDbMText
 10
158.1285321593
 20
-118.685679672
 30
0.0
 40
3.5
 41
0.0
 71
     1
 72
     1
  1
1
  7
SLDTEXTSTYLE0
 73
     1
 44
1.0
  0
MTEXT
  5
143
330
65
100
AcDbEntity
  8
0
  6
Continuous
 62
     0
370
     0
100
AcDbMText
 10
10.3538888065
 20
-126.444944955
 30
0.0
 40
3.5
 41
0.0
 71
     1
 72
     1
  1
17
  7
SLDTEXTSTYLE0
 73
     1
 44
1.0
  0
MTEXT
  5
144
330
65
100
AcDbEntity
  8
0
  6
Continuous
 62
     0
370
     0
100
AcDbMText
 10
26.38
 20
-126.444944955
 30
0.0
 40
3.5
 41
0.0
 71
     1
 72
     1
  1
R
  7
SLDTEXTSTYLE0
 73
     1
 44
1.0
  0
MTEXT
  5
145
330
65
100
AcDbEntity
  8
0
  6
Continuous
 62
     0
370
     0
100
AcDbMText
 10
158.1285321593
 20
-126.444944955
 30
0.0
 40
3.5
 41
0.0
 71
     1
 72
     1
  1
2
  7
SLDTEXTSTYLE0
 73
     1
 44
1.0
  0
ENDBLK
  5
67
330
65
100
AcDbEntity
  8
0
100
AcDbBlockEnd
  0
ENDSEC
  0
SECTION
  2
ENTITIES
  0
INSERT
  5
146
330
1F
100
AcDbEntity
  8
0
  6
Continuous
 62
     7
370
     0
100
AcDbBlockReference
  2
SW_TABLEANNOTATION_0
 10
499.6355396945
 20
287.3102439046
 30
0.0
  0
CIRCLE
  5
147
330
1F
100
AcDbEntity
  8
0
  6
SLD-Solid
 62
     7
370
    25
100
AcDbCircle
 10
92.0820791374
 20
288.4060700385
 30
0.0
 40
1.5
  0
CIRCLE
  5
148
330
1F
100
AcDbEntity
  8
0
  6
SLD-Solid
 62
     7
370
    25
100
AcDbCircle
 10
92.0820791374
 20
148.4060700385
 30
0.0
 40
1.5
  0
LINE
  5
149
330
1F
100
AcDbEntity
  8
0
  6
SLD-Solid
 62
     7
370
    25
100
AcDbLine
 10
29.0820791374
 20
268.3810700385
 30
0.0
 11
29.0820791374
 21
263.8810700385
 31
0.0
  0
LINE
  5
14A
330
1F
100
AcDbEntity
  8
0
  6
SLD-Solid
 62
     7
370
    25
100
AcDbLine
 10
29.0820791374
 20
263.8810700385
 30
0.0
 11
35.0820791374
 21
263.8810700385
 31
0.0
  0
LINE
  5
14B
330
1F
100
AcDbEntity
  8
0
  6
SLD-Solid
 62
     7
370
    25
100
AcDbLine
 10
35.0820791374
 20
263.8810700385
 30
0.0
 11
35.0820791374
 21
268.3810700385
 31
0.0
  0
LINE
  5
14C
330
1F
100
AcDbEntity
  8
0
  6
SLD-Solid
 62
     7
370
    25
100
AcDbLine
 10
35.0820791374
 20
268.3810700385
 30
0.0
 11
29.0820791374
 21
268.3810700385
 31
0.0
  0
LINE
  5
14D
330
1F
100
AcDbEntity
  8
0
  6
SLD-Solid
 62
     7
370
    25
100
AcDbLine
 10
155.0820791374
 20
172.9310700385
 30
0.0
 11
149.0820791374
 21
172.9310700385
 31
0.0
  0
LINE
  5
14E
330
1F
100
AcDbEntity
  8
0
  6
SLD-Solid
 62
     7
370
    25
100
AcDbLine
 10
149.0820791374
 20
172.9310700385
 30
0.0
 11
149.0820791374
 21
168.4310700385
 31
0.0
  0
LINE
  5
14F
330
1F
100
AcDbEntity
  8
0
  6
SLD-Solid
 62
     7
370
    25
100
AcDbLine
 10
149.0820791374
 20
168.4310700385
 30
0.0
 11
155.0820791374
 21
168.4310700385
 31
0.0
  0
LINE
  5
150
330
1F
100
AcDbEntity
  8
0
  6
SLD-Solid
 62
     7
370
    25
100
AcDbLine
 10
155.0820791374
 20
168.4310700385
 30
0.0
 11
155.0820791374
 21
172.9310700385
 31
0.0
  0
CIRCLE
  5
151
330
1F
100
AcDbEntity
  8
0
  6
SLD-Solid
 62
     7
370
    25
100
AcDbCircle
 10
12.0820791374
 20
268.4060700385
 30
0.0
 40
1.5
  0
CIRCLE
  5
152
330
1F
100
AcDbEntity
  8
0
  6
SLD-Solid
 62
     7
370
    25
100
AcDbCircle
 10
12.0820791374
 20
168.4060700385
 30
0.0
 40
1.5
  0
LINE
  5
153
330
1F
100
AcDbEntity
  8
0
  6
SLD-Solid
 62
     7
370
    25
100
AcDbLine
 10
20.0820791374
 20
256.9310700385
 30
0.0
 11
20.0820791374
 21
253.9810700385
 31
0.0
  0
LINE
  5
154
330
1F
100
AcDbEntity
  8
0
  6
SLD-Solid
 62
     7
370
    25
100
AcDbLine
 10
20.0820791374
 20
253.9810700385
 30
0.0
 11
44.0820791374
 21
253.9810700385
 31
0.0
  0
LINE
  5
155
330
1F
100
AcDbEntity
  8
0
  6
SLD-Solid
 62
     7
370
    25
100
AcDbLine
 10
44.0820791374
 20
253.9810700385
 30
0.0
 11
44.0820791374
 21
256.9310700385
 31
0.0
  0
LINE
  5
156
330
1F
100
AcDbEntity
  8
0
  6
SLD-Solid
 62
     7
370
    25
100
AcDbLine
 10
44.0820791374
 20
256.9310700385
 30
0.0
 11
20.0820791374
 21
256.9310700385
 31
0.0
  0
LINE
  5
157
330
1F
100
AcDbEntity
  8
0
  6
SLD-Solid
 62
     7
370
    25
100
AcDbLine
 10
20.0820791374
 20
179.8810700385
 30
0.0
 11
44.0820791374
 21
179.8810700385
 31
0.0
  0
LINE
  5
158
330
1F
100
AcDbEntity
  8
0
  6
SLD-Solid
 62
     7
370
    25
100
AcDbLine
 10
44.0820791374
 20
179.8810700385
 30
0.0
 11
44.0820791374
 21
182.8310700385
 31
0.0
  0
LINE
  5
159
330
1F
100
AcDbEntity
  8
0
  6
SLD-Solid
 62
     7
370
    25
100
AcDbLine
 10
44.0820791374
 20
182.8310700385
 30
0.0
 11
20.0820791374
 21
182.8310700385
 31
0.0
  0
LINE
  5
15A
330
1F
100
AcDbEntity
  8
0
  6
SLD-Solid
 62
     7
370
    25
100
AcDbLine
 10
20.0820791374
 20
182.8310700385
 30
0.0
 11
20.0820791374
 21
179.8810700385
 31
0.0
  0
ARC
  5
15B
330
1F
100
AcDbEntity
  8
0
  6
SLD-Solid
 62
     7
370
    25
100
AcDbCircle
 10
12.0820791374
 20
168.4060700385
 30
0.0
 40
10.0
100
AcDbArc
 50
180.0
 51
270.0
  0
LINE
  5
15C
330
1F
100
AcDbEntity
  8
0
  6
SLD-Solid
 62
     7
370
    25
100
AcDbLine
 10
2.0820791374
 20
268.4060700385
 30
0.0
 11
2.0820791374
 21
168.4060700385
 31
0.0
  0
ARC
  5
15D
330
1F
100
AcDbEntity
  8
0
  6
SLD-Solid
 62
     7
370
    25
100
AcDbCircle
 10
12.0820791374
 20
268.4060700385
 30
0.0
 40
10.0
100
AcDbArc
 50
90.0
 51
180.0
  0
LINE
  5
15E
330
1F
100
AcDbEntity
  8
0
  6
SLD-Solid
 62
     7
370
    25
100
AcDbLine
 10
20.0820791374
 20
278.4060700385
 30
0.0
 11
12.0820791374
 21
278.4060700385
 31
0.0
  0
LINE
  5
15F
330
1F
100
AcDbEntity
  8
0
  6
SLD-Solid
 62
     7
370
    25
100
AcDbLine
 10
20.0820791374
 20
275.4310700385
 30
0.0
 11
20.0820791374
 21
278.4060700385
 31
0.0
  0
LINE
  5
160
330
1F
100
AcDbEntity
  8
0
  6
SLD-Solid
 62
     7
370
    25
100
AcDbLine
 10
44.0820791374
 20
275.4310700385
 30
0.0
 11
20.0820791374
 21
275.4310700385
 31
0.0
  0
LINE
  5
161
330
1F
100
AcDbEntity
  8
0
  6
SLD-Solid
 62
     7
370
    25
100
AcDbLine
 10
44.0820791374
 20
278.4060700385
 30
0.0
 11
44.0820791374
 21
275.4310700385
 31
0.0
  0
LINE
  5
162
330
1F
100
AcDbEntity
  8
0
  6
SLD-Solid
 62
     7
370
    25
100
AcDbLine
 10
62.0820791374
 20
288.4060700385
 30
0.0
 11
62.0820791374
 21
278.4060700385
 31
0.0
  0
ARC
  5
163
330
1F
100
AcDbEntity
  8
0
  6
SLD-Solid
 62
     7
370
    25
100
AcDbCircle
 10
72.0820791374
 20
288.4060700385
 30
0.0
 40
10.0
100
AcDbArc
 50
90.0
 51
180.0
  0
LINE
  5
164
330
1F
100
AcDbEntity
  8
0
  6
SLD-Solid
 62
     7
370
    25
100
AcDbLine
 10
112.0820791374
 20
298.4060700385
 30
0.0
 11
72.0820791374
 21
298.4060700385
 31
0.0
  0
ARC
  5
165
330
1F
100
AcDbEntity
  8
0
  6
SLD-Solid
 62
     7
370
    25
100
AcDbCircle
 10
112.0820791374
 20
288.4060700385
 30
0.0
 40
10.0
100
AcDbArc
 50
0.0
 51
90.0
  0
LINE
  5
166
330
1F
100
AcDbEntity
  8
0
  6
SLD-Solid
 62
     7
370
    25
100
AcDbLine
 10
122.0820791374
 20
278.4060700385
 30
0.0
 11
122.0820791374
 21
288.4060700385
 31
0.0
  0
LINE
  5
167
330
1F
100
AcDbEntity
  8
0
  6
SLD-Solid
 62
     7
370
    25
100
AcDbLine
 10
140.0820791374
 20
275.4310700385
 30
0.0
 11
140.0820791374
 21
278.4060700385
 31
0.0
  0
LINE
  5
168
330
1F
100
AcDbEntity
  8
0
  6
SLD-Solid
 62
     7
370
    25
100
AcDbLine
 10
164.0820791374
 20
275.4310700385
 30
0.0
 11
140.0820791374
 21
275.4310700385
 31
0.0
  0
LINE
  5
169
330
1F
100
AcDbEntity
  8
0
  6
SLD-Solid
 62
     7
370
    25
100
AcDbLine
 10
164.0820791374
 20
278.4060700385
 30
0.0
 11
164.0820791374
 21
275.4310700385
 31
0.0
  0
LINE
  5
16A
330
1F
100
AcDbEntity
  8
0
  6
SLD-Solid
 62
     7
370
    25
100
AcDbLine
 10
172.0820791374
 20
278.4060700385
 30
0.0
 11
164.0820791374
 21
278.4060700385
 31
0.0
  0
ARC
  5
16B
330
1F
100
AcDbEntity
  8
0
  6
SLD-Solid
 62
     7
370
    25
100
AcDbCircle
 10
172.0820791374
 20
268.4060700385
 30
0.0
 40
10.0
100
AcDbArc
 50
0.0
 51
90.0
  0
LINE
  5
16C
330
1F
100
AcDbEntity
  8
0
  6
SLD-Solid
 62
     7
370
    25
100
AcDbLine
 10
182.0820791374
 20
168.4060700385
 30
0.0
 11
182.0820791374
 21
268.4060700385
 31
0.0
  0
ARC
  5
16D
330
1F
100
AcDbEntity
  8
0
  6
SLD-Solid
 62
     7
370
    25
100
AcDbCircle
 10
172.0820791374
 20
168.4060700385
 30
0.0
 40
10.0
100
AcDbArc
 50
270.0
 51
0.0
  0
LINE
  5
16E
330
1F
100
AcDbEntity
  8
0
  6
SLD-Solid
 62
     7
370
    25
100
AcDbLine
 10
164.0820791374
 20
158.4060700385
 30
0.0
 11
172.0820791374
 21
158.4060700385
 31
0.0
  0
LINE
  5
16F
330
1F
100
AcDbEntity
  8
0
  6
SLD-Solid
 62
     7
370
    25
100
AcDbLine
 10
164.0820791374
 20
161.3810700385
 30
0.0
 11
164.0820791374
 21
158.4060700385
 31
0.0
  0
LINE
  5
170
330
1F
100
AcDbEntity
  8
0
  6
SLD-Solid
 62
     7
370
    25
100
AcDbLine
 10
140.0820791374
 20
161.3810700385
 30
0.0
 11
164.0820791374
 21
161.3810700385
 31
0.0
  0
LINE
  5
171
330
1F
100
AcDbEntity
  8
0
  6
SLD-Solid
 62
     7
370
    25
100
AcDbLine
 10
140.0820791374
 20
158.4060700385
 30
0.0
 11
140.0820791374
 21
161.3810700385
 31
0.0
  0
LINE
  5
172
330
1F
100
AcDbEntity
  8
0
  6
SLD-Solid
 62
     7
370
    25
100
AcDbLine
 10
122.0820791374
 20
148.4060700385
 30
0.0
 11
122.0820791374
 21
158.4060700385
 31
0.0
  0
ARC
  5
173
330
1F
100
AcDbEntity
  8
0
  6
SLD-Solid
 62
     7
370
    25
100
AcDbCircle
 10
112.0820791374
 20
148.4060700385
 30
0.0
 40
10.0
100
AcDbArc
 50
270.0
 51
0.0
  0
LINE
  5
174
330
1F
100
AcDbEntity
  8
0
  6
SLD-Solid
 62
     7
370
    25
100
AcDbLine
 10
72.0820791374
 20
138.4060700385
 30
0.0
 11
112.0820791374
 21
138.4060700385
 31
0.0
  0
ARC
  5
175
330
1F
100
AcDbEntity
  8
0
  6
SLD-Solid
 62
     7
370
    25
100
AcDbCircle
 10
72.0820791374
 20
148.4060700385
 30
0.0
 40
10.0
100
AcDbArc
 50
180.0
 51
270.0
  0
LINE
  5
176
330
1F
100
AcDbEntity
  8
0
  6
SLD-Solid
 62
     7
370
    25
100
AcDbLine
 10
62.0820791374
 20
158.4060700385
 30
0.0
 11
62.0820791374
 21
148.4060700385
 31
0.0
  0
LINE
  5
177
330
1F
100
AcDbEntity
  8
0
  6
SLD-Solid
 62
     7
370
    25
100
AcDbLine
 10
44.0820791374
 20
161.3810700385
 30
0.0
 11
44.0820791374
 21
158.4060700385
 31
0.0
  0
LINE
  5
178
330
1F
100
AcDbEntity
  8
0
  6
SLD-Solid
 62
     7
370
    25
100
AcDbLine
 10
20.0820791374
 20
161.3810700385
 30
0.0
 11
44.0820791374
 21
161.3810700385
 31
0.0
  0
LINE
  5
179
330
1F
100
AcDbEntity
  8
0
  6
SLD-Solid
 62
     7
370
    25
100
AcDbLine
 10
20.0820791374
 20
158.4060700385
 30
0.0
 11
20.0820791374
 21
161.3810700385
 31
0.0
  0
LINE
  5
17A
330
1F
100
AcDbEntity
  8
0
  6
SLD-Solid
 62
     7
370
    25
100
AcDbLine
 10
12.0820791374
 20
158.4060700385
 30
0.0
 11
20.0820791374
 21
158.4060700385
 31
0.0
  0
LINE
  5
17B
330
1F
100
AcDbEntity
  8
0
  6
SLD-Solid
 62
     7
370
    25
100
AcDbLine
 10
164.0820791374
 20
179.8810700385
 30
0.0
 11
164.0820791374
 21
182.8310700385
 31
0.0
  0
LINE
  5
17C
330
1F
100
AcDbEntity
  8
0
  6
SLD-Solid
 62
     7
370
    25
100
AcDbLine
 10
164.0820791374
 20
182.8310700385
 30
0.0
 11
140.0820791374
 21
182.8310700385
 31
0.0
  0
LINE
  5
17D
330
1F
100
AcDbEntity
  8
0
  6
SLD-Solid
 62
     7
370
    25
100
AcDbLine
 10
140.0820791374
 20
182.8310700385
 30
0.0
 11
140.0820791374
 21
179.8810700385
 31
0.0
  0
LINE
  5
17E
330
1F
100
AcDbEntity
  8
0
  6
SLD-Solid
 62
     7
370
    25
100
AcDbLine
 10
140.0820791374
 20
179.8810700385
 30
0.0
 11
164.0820791374
 21
179.8810700385
 31
0.0
  0
CIRCLE
  5
17F
330
1F
100
AcDbEntity
  8
0
  6
SLD-Solid
 62
     7
370
    25
100
AcDbCircle
 10
172.0820791374
 20
168.4060700385
 30
0.0
 40
1.499999999999801
  0
CIRCLE
  5
180
330
1F
100
AcDbEntity
  8
0
  6
SLD-Solid
 62
     7
370
    25
100
AcDbCircle
 10
172.0820791374
 20
268.4060700385
 30
0.0
 40
1.499999999999773
  0
LINE
  5
181
330
1F
100
AcDbEntity
  8
0
  6
SLD-Solid
 62
     7
370
    25
100
AcDbLine
 10
164.0820791374
 20
256.9310700385
 30
0.0
 11
140.0820791374
 21
256.9310700385
 31
0.0
  0
LINE
  5
182
330
1F
100
AcDbEntity
  8
0
  6
SLD-Solid
 62
     7
370
    25
100
AcDbLine
 10
140.0820791374
 20
256.9310700385
 30
0.0
 11
140.0820791374
 21
253.9810700385
 31
0.0
  0
LINE
  5
183
330
1F
100
AcDbEntity
  8
0
  6
SLD-Solid
 62
     7
370
    25
100
AcDbLine
 10
140.0820791374
 20
253.9810700385
 30
0.0
 11
164.0820791374
 21
253.9810700385
 31
0.0
  0
LINE
  5
184
330
1F
100
AcDbEntity
  8
0
  6
SLD-Solid
 62
     7
370
    25
100
AcDbLine
 10
164.0820791374
 20
253.9810700385
 30
0.0
 11
164.0820791374
 21
256.9310700385
 31
0.0
  0
LINE
  5
185
330
1F
100
AcDbEntity
  8
0
  6
SLD-Solid
 62
     7
370
    25
100
AcDbLine
 10
35.0820791374
 20
172.9310700385
 30
0.0
 11
29.0820791374
 21
172.9310700385
 31
0.0
  0
LINE
  5
186
330
1F
100
AcDbEntity
  8
0
  6
SLD-Solid
 62
     7
370
    25
100
AcDbLine
 10
29.0820791374
 20
172.9310700385
 30
0.0
 11
29.0820791374
 21
168.4310700385
 31
0.0
  0
LINE
  5
187
330
1F
100
AcDbEntity
  8
0
  6
SLD-Solid
 62
     7
370
    25
100
AcDbLine
 10
29.0820791374
 20
168.4310700385
 30
0.0
 11
35.0820791374
 21
168.4310700385
 31
0.0
  0
LINE
  5
188
330
1F
100
AcDbEntity
  8
0
  6
SLD-Solid
 62
     7
370
    25
100
AcDbLine
 10
35.0820791374
 20
168.4310700385
 30
0.0
 11
35.0820791374
 21
172.9310700385
 31
0.0
  0
LINE
  5
189
330
1F
100
AcDbEntity
  8
0
  6
SLD-Solid
 62
     7
370
    25
100
AcDbLine
 10
149.0820791374
 20
268.3810700385
 30
0.0
 11
149.0820791374
 21
263.8810700385
 31
0.0
  0
LINE
  5
18A
330
1F
100
AcDbEntity
  8
0
  6
SLD-Solid
 62
     7
370
    25
100
AcDbLine
 10
149.0820791374
 20
263.8810700385
 30
0.0
 11
155.0820791374
 21
263.8810700385
 31
0.0
  0
LINE
  5
18B
330
1F
100
AcDbEntity
  8
0
  6
SLD-Solid
 62
     7
370
    25
100
AcDbLine
 10
155.0820791374
 20
263.8810700385
 30
0.0
 11
155.0820791374
 21
268.3810700385
 31
0.0
  0
LINE
  5
18C
330
1F
100
AcDbEntity
  8
0
  6
SLD-Solid
 62
     7
370
    25
100
AcDbLine
 10
155.0820791374
 20
268.3810700385
 30
0.0
 11
149.0820791374
 21
268.3810700385
 31
0.0
  0
LINE
  5
18D
330
1F
100
AcDbEntity
  8
0
  6
SLD-Solid
 62
     7
370
    25
100
AcDbLine
 10
122.0820791374
 20
158.4060700385
 30
0.0
 11
140.0820791374
 21
158.4060700385
 31
0.0
  0
LINE
  5
18E
330
1F
100
AcDbEntity
  8
0
  6
SLD-Solid
 62
     7
370
    25
100
AcDbLine
 10
44.0820791374
 20
158.4060700385
 30
0.0
 11
62.0820791374
 21
158.4060700385
 31
0.0
  0
LINE
  5
18F
330
1F
100
AcDbEntity
  8
0
  6
SLD-Solid
 62
     7
370
    25
100
AcDbLine
 10
62.0820791374
 20
278.4060700385
 30
0.0
 11
44.0820791374
 21
278.4060700385
 31
0.0
  0
LINE
  5
190
330
1F
100
AcDbEntity
  8
0
  6
SLD-Solid
 62
     7
370
    25
100
AcDbLine
 10
140.0820791374
 20
278.4060700385
 30
0.0
 11
122.0820791374
 21
278.4060700385
 31
0.0
  0
ARC
  5
191
330
1F
100
AcDbEntity
  8
0
  6
SLD-Solid
 62
     7
370
    25
100
AcDbCircle
 10
328.0088281882
 20
245.532892826
 30
0.0
 40
4.0
100
AcDbArc
 50
0.0
 51
90.0
  0
LINE
  5
192
330
1F
100
AcDbEntity
  8
0
  6
SLD-Solid
 62
     7
370
    25
100
AcDbLine
 10
332.0088281882
 20
235.4058761723
 30
0.0
 11
332.0088281882
 21
245.532892826
 31
0.0
  0
ARC
  5
193
330
1F
100
AcDbEntity
  8
0
  6
SLD-Solid
 62
     7
370
    25
100
AcDbCircle
 10
328.0088281882
 20
235.4058761723
 30
0.0
 40
4.0
100
AcDbArc
 50
284.4775121859
 51
0.0
  0
ARC
  5
194
330
1F
100
AcDbEntity
  8
0
  6
SLD-Solid
 62
     7
370
    25
100
AcDbCircle
 10
330.0088281882
 20
208.532892826
 30
0.0
 40
4.0
100
AcDbArc
 50
270.0
 51
0.0
  0
ARC
  5
195
330
1F
100
AcDbEntity
  8
0
  6
SLD-Solid
 62
     7
370
    25
100
AcDbCircle
 10
304.0088281882
 20
208.532892826
 30
0.0
 40
4.0
100
AcDbArc
 50
180.0
 51
270.0
  0
ARC
  5
196
330
1F
100
AcDbEntity
  8
0
  6
SLD-Solid
 62
     7
370
    25
100
AcDbCircle
 10
306.0088281882
 20
235.4058761723
 30
0.0
 40
4.0
100
AcDbArc
 50
180.0
 51
255.5224878141
  0
LINE
  5
197
330
1F
100
AcDbEntity
  8
0
  6
SLD-Solid
 62
     7
370
    25
100
AcDbLine
 10
302.0088281882
 20
245.532892826
 30
0.0
 11
302.0088281882
 21
235.4058761723
 31
0.0
  0
ARC
  5
198
330
1F
100
AcDbEntity
  8
0
  6
SLD-Solid
 62
     7
370
    25
100
AcDbCircle
 10
306.0088281882
 20
245.532892826
 30
0.0
 40
4.0
100
AcDbArc
 50
90.0
 51
180.0
  0
LINE
  5
199
330
1F
100
AcDbEntity
  8
0
  6
SLD-Solid
 62
     7
370
    25
100
AcDbLine
 10
328.0088281882
 20
249.532892826
 30
0.0
 11
306.0088281882
 21
249.532892826
 31
0.0
  0
LINE
  5
19A
330
1F
100
AcDbEntity
  8
0
  6
SLD-Solid
 62
     7
370
    25
100
AcDbLine
 10
327.8088281882
 20
244.332892826
 30
0.0
 11
327.8088281882
 21
240.332892826
 31
0.0
  0
LINE
  5
19B
330
1F
100
AcDbEntity
  8
0
  6
SLD-Solid
 62
     7
370
    25
100
AcDbLine
 10
309.7088281882
 20
244.332892826
 30
0.0
 11
309.7088281882
 21
240.332892826
 31
0.0
  0
LINE
  5
19C
330
1F
100
AcDbEntity
  8
0
  6
SLD-Solid
 62
     7
370
    25
100
AcDbLine
 10
314.3088281882
 20
223.882892826
 30
0.0
 11
314.3088281882
 21
234.532892826
 31
0.0
  0
ARC
  5
19D
330
1F
100
AcDbEntity
  8
0
  6
SLD-Solid
 62
     7
370
    25
100
AcDbCircle
 10
326.0588281882
 20
244.332892826
 30
0.0
 40
1.75
100
AcDbArc
 50
0.0
 51
180.0
  0
LINE
  5
19E
330
1F
100
AcDbEntity
  8
0
  6
SLD-Solid
 62
     7
370
    25
100
AcDbLine
 10
324.3088281882
 20
244.332892826
 30
0.0
 11
324.3088281882
 21
240.332892826
 31
0.0
  0
ARC
  5
19F
330
1F
100
AcDbEntity
  8
0
  6
SLD-Solid
 62
     7
370
    25
100
AcDbCircle
 10
326.0588281882
 20
240.332892826
 30
0.0
 40
1.750000000000057
100
AcDbArc
 50
180.0
 51
0.0
  0
ARC
  5
1A0
330
1F
100
AcDbEntity
  8
0
  6
SLD-Solid
 62
     7
370
    25
100
AcDbCircle
 10
307.9588281882
 20
244.332892826
 30
0.0
 40
1.75
100
AcDbArc
 50
0.0
 51
180.0
  0
LINE
  5
1A1
330
1F
100
AcDbEntity
  8
0
  6
SLD-Solid
 62
     7
370
    25
100
AcDbLine
 10
306.2088281882
 20
244.332892826
 30
0.0
 11
306.2088281882
 21
240.332892826
 31
0.0
  0
ARC
  5
1A2
330
1F
100
AcDbEntity
  8
0
  6
SLD-Solid
 62
     7
370
    25
100
AcDbCircle
 10
307.9588281882
 20
240.332892826
 30
0.0
 40
1.75
100
AcDbArc
 50
180.0
 51
0.0
  0
ARC
  5
1A3
330
1F
100
AcDbEntity
  8
0
  6
SLD-Solid
 62
     7
370
    25
100
AcDbCircle
 10
317.0088281882
 20
223.882892826
 30
0.0
 40
2.699999999999989
100
AcDbArc
 50
180.0
 51
0.0
  0
LINE
  5
1A4
330
1F
100
AcDbEntity
  8
0
  6
SLD-Solid
 62
     7
370
    25
100
AcDbLine
 10
319.7088281882
 20
223.882892826
 30
0.0
 11
319.7088281882
 21
234.532892826
 31
0.0
  0
ARC
  5
1A5
330
1F
100
AcDbEntity
  8
0
  6
SLD-Solid
 62
     7
370
    25
100
AcDbCircle
 10
317.0088281882
 20
234.532892826
 30
0.0
 40
2.699999999999989
100
AcDbArc
 50
0.0
 51
180.0
  0
LINE
  5
1A6
330
1F
100
AcDbEntity
  8
0
  6
SLD-Solid
 62
     7
370
    25
100
AcDbLine
 10
334.0088281882
 20
209.532892826
 30
0.0
 11
329.0088281882
 21
209.532892826
 31
0.0
  0
LINE
  5
1A7
330
1F
100
AcDbEntity
  8
0
  6
SLD-Solid
 62
     7
370
    25
100
AcDbLine
 10
334.0088281882
 20
209.532892826
 30
0.0
 11
334.0088281882
 21
208.532892826
 31
0.0
  0
LINE
  5
1A8
330
1F
100
AcDbEntity
  8
0
  6
SLD-Solid
 62
     7
370
    25
100
AcDbLine
 10
330.0088281882
 20
204.532892826
 30
0.0
 11
304.0088281882
 21
204.532892826
 31
0.0
  0
LINE
  5
1A9
330
1F
100
AcDbEntity
  8
0
  6
SLD-Solid
 62
     7
370
    25
100
AcDbLine
 10
300.0088281882
 20
209.532892826
 30
0.0
 11
300.0088281882
 21
208.532892826
 31
0.0
  0
LINE
  5
1AA
330
1F
100
AcDbEntity
  8
0
  6
SLD-Solid
 62
     7
370
    25
100
AcDbLine
 10
305.0088281882
 20
209.532892826
 30
0.0
 11
300.0088281882
 21
209.532892826
 31
0.0
  0
LINE
  5
1AB
330
1F
100
AcDbEntity
  8
0
  6
SLD-Solid
 62
     7
370
    25
100
AcDbLine
 10
305.0088281882
 20
209.532892826
 30
0.0
 11
305.0088281882
 21
231.532892826
 31
0.0
  0
LINE
  5
1AC
330
1F
100
AcDbEntity
  8
0
  6
SLD-Solid
 62
     7
370
    25
100
AcDbLine
 10
329.0088281882
 20
209.532892826
 30
0.0
 11
329.0088281882
 21
231.532892826
 31
0.0
  0
ARC
  5
1AD
330
1F
100
AcDbEntity
  8
0
  6
SLD-Solid
 62
     7
370
    25
100
AcDbCircle
 10
252.4481300539
 20
293.1914969177
 30
0.0
 40
4.0
100
AcDbArc
 50
0.0
 51
90.0
  0
LINE
  5
1AE
330
1F
100
AcDbEntity
  8
0
  6
SLD-Solid
 62
     7
370
    25
100
AcDbLine
 10
256.4481300539
 20
283.0644802639
 30
0.0
 11
256.4481300539
 21
293.1914969177
 31
0.0
  0
ARC
  5
1AF
330
1F
100
AcDbEntity
  8
0
  6
SLD-Solid
 62
     7
370
    25
100
AcDbCircle
 10
252.4481300539
 20
283.0644802639
 30
0.0
 40
4.000000000000016
100
AcDbArc
 50
284.4775121859
 51
0.0
  0
ARC
  5
1B0
330
1F
100
AcDbEntity
  8
0
  6
SLD-Solid
 62
     7
370
    25
100
AcDbCircle
 10
254.4481300539
 20
256.1914969177
 30
0.0
 40
4.0
100
AcDbArc
 50
270.0
 51
0.0
  0
ARC
  5
1B1
330
1F
100
AcDbEntity
  8
0
  6
SLD-Solid
 62
     7
370
    25
100
AcDbCircle
 10
228.4481300539
 20
256.1914969177
 30
0.0
 40
4.0
100
AcDbArc
 50
180.0
 51
270.0
  0
ARC
  5
1B2
330
1F
100
AcDbEntity
  8
0
  6
SLD-Solid
 62
     7
370
    25
100
AcDbCircle
 10
230.4481300539
 20
283.0644802639
 30
0.0
 40
4.000000000000016
100
AcDbArc
 50
180.0
 51
255.5224878141
  0
LINE
  5
1B3
330
1F
100
AcDbEntity
  8
0
  6
SLD-Solid
 62
     7
370
    25
100
AcDbLine
 10
226.4481300539
 20
293.1914969177
 30
0.0
 11
226.4481300539
 21
283.0644802639
 31
0.0
  0
ARC
  5
1B4
330
1F
100
AcDbEntity
  8
0
  6
SLD-Solid
 62
     7
370
    25
100
AcDbCircle
 10
230.4481300539
 20
293.1914969177
 30
0.0
 40
4.0
100
AcDbArc
 50
90.0
 51
180.0
  0
LINE
  5
1B5
330
1F
100
AcDbEntity
  8
0
  6
SLD-Solid
 62
     7
370
    25
100
AcDbLine
 10
252.4481300539
 20
297.1914969177
 30
0.0
 11
230.4481300539
 21
297.1914969177
 31
0.0
  0
LINE
  5
1B6
330
1F
100
AcDbEntity
  8
0
  6
SLD-Solid
 62
     7
370
    25
100
AcDbLine
 10
252.2481300539
 20
291.9914969177
 30
0.0
 11
252.2481300539
 21
287.9914969177
 31
0.0
  0
LINE
  5
1B7
330
1F
100
AcDbEntity
  8
0
  6
SLD-Solid
 62
     7
370
    25
100
AcDbLine
 10
234.1481300539
 20
291.9914969177
 30
0.0
 11
234.1481300539
 21
287.9914969177
 31
0.0
  0
LINE
  5
1B8
330
1F
100
AcDbEntity
  8
0
  6
SLD-Solid
 62
     7
370
    25
100
AcDbLine
 10
238.7481300539
 20
271.5414969177
 30
0.0
 11
238.7481300539
 21
282.1914969177
 31
0.0
  0
ARC
  5
1B9
330
1F
100
AcDbEntity
  8
0
  6
SLD-Solid
 62
     7
370
    25
100
AcDbCircle
 10
250.4981300539
 20
291.9914969177
 30
0.0
 40
1.75
100
AcDbArc
 50
0.0
 51
180.0
  0
LINE
  5
1BA
330
1F
100
AcDbEntity
  8
0
  6
SLD-Solid
 62
     7
370
    25
100
AcDbLine
 10
248.7481300539
 20
291.9914969177
 30
0.0
 11
248.7481300539
 21
287.9914969177
 31
0.0
  0
ARC
  5
1BB
330
1F
100
AcDbEntity
  8
0
  6
SLD-Solid
 62
     7
370
    25
100
AcDbCircle
 10
250.4981300539
 20
287.9914969177
 30
0.0
 40
1.750000000000028
100
AcDbArc
 50
180.0
 51
0.0
  0
ARC
  5
1BC
330
1F
100
AcDbEntity
  8
0
  6
SLD-Solid
 62
     7
370
    25
100
AcDbCircle
 10
232.3981300539
 20
291.9914969177
 30
0.0
 40
1.75
100
AcDbArc
 50
0.0
 51
180.0
  0
LINE
  5
1BD
330
1F
100
AcDbEntity
  8
0
  6
SLD-Solid
 62
     7
370
    25
100
AcDbLine
 10
230.6481300539
 20
291.9914969177
 30
0.0
 11
230.6481300539
 21
287.9914969177
 31
0.0
  0
ARC
  5
1BE
330
1F
100
AcDbEntity
  8
0
  6
SLD-Solid
 62
     7
370
    25
100
AcDbCircle
 10
232.3981300539
 20
287.9914969177
 30
0.0
 40
1.75
100
AcDbArc
 50
180.0
 51
0.0
  0
ARC
  5
1BF
330
1F
100
AcDbEntity
  8
0
  6
SLD-Solid
 62
     7
370
    25
100
AcDbCircle
 10
241.4481300539
 20
271.5414969177
 30
0.0
 40
2.700000000000017
100
AcDbArc
 50
180.0
 51
0.0
  0
LINE
  5
1C0
330
1F
100
AcDbEntity
  8
0
  6
SLD-Solid
 62
     7
370
    25
100
AcDbLine
 10
244.1481300539
 20
271.5414969177
 30
0.0
 11
244.1481300539
 21
282.1914969177
 31
0.0
  0
ARC
  5
1C1
330
1F
100
AcDbEntity
  8
0
  6
SLD-Solid
 62
     7
370
    25
100
AcDbCircle
 10
241.4481300539
 20
282.1914969177
 30
0.0
 40
2.700000000000017
100
AcDbArc
 50
0.0
 51
180.0
  0
LINE
  5
1C2
330
1F
100
AcDbEntity
  8
0
  6
SLD-Solid
 62
     7
370
    25
100
AcDbLine
 10
258.4481300539
 20
257.1914969177
 30
0.0
 11
253.4481300539
 21
257.1914969177
 31
0.0
  0
LINE
  5
1C3
330
1F
100
AcDbEntity
  8
0
  6
SLD-Solid
 62
     7
370
    25
100
AcDbLine
 10
258.4481300539
 20
257.1914969177
 30
0.0
 11
258.4481300539
 21
256.1914969177
 31
0.0
  0
LINE
  5
1C4
330
1F
100
AcDbEntity
  8
0
  6
SLD-Solid
 62
     7
370
    25
100
AcDbLine
 10
254.4481300539
 20
252.1914969177
 30
0.0
 11
228.4481300539
 21
252.1914969177
 31
0.0
  0
LINE
  5
1C5
330
1F
100
AcDbEntity
  8
0
  6
SLD-Solid
 62
     7
370
    25
100
AcDbLine
 10
224.4481300539
 20
257.1914969177
 30
0.0
 11
224.4481300539
 21
256.1914969177
 31
0.0
  0
LINE
  5
1C6
330
1F
100
AcDbEntity
  8
0
  6
SLD-Solid
 62
     7
370
    25
100
AcDbLine
 10
229.4481300539
 20
257.1914969177
 30
0.0
 11
224.4481300539
 21
257.1914969177
 31
0.0
  0
LINE
  5
1C7
330
1F
100
AcDbEntity
  8
0
  6
SLD-Solid
 62
     7
370
    25
100
AcDbLine
 10
229.4481300539
 20
257.1914969177
 30
0.0
 11
229.4481300539
 21
279.1914969177
 31
0.0
  0
LINE
  5
1C8
330
1F
100
AcDbEntity
  8
0
  6
SLD-Solid
 62
     7
370
    25
100
AcDbLine
 10
253.4481300539
 20
257.1914969177
 30
0.0
 11
253.4481300539
 21
279.1914969177
 31
0.0
  0
ARC
  5
1C9
330
1F
100
AcDbEntity
  8
0
  6
SLD-Solid
 62
     7
370
    25
100
AcDbCircle
 10
213.9105634187
 20
293.3510346954
 30
0.0
 40
4.0
100
AcDbArc
 50
0.0
 51
90.0
  0
LINE
  5
1CA
330
1F
100
AcDbEntity
  8
0
  6
SLD-Solid
 62
     7
370
    25
100
AcDbLine
 10
217.9105634187
 20
283.2240180416
 30
0.0
 11
217.9105634187
 21
293.3510346954
 31
0.0
  0
ARC
  5
1CB
330
1F
100
AcDbEntity
  8
0
  6
SLD-Solid
 62
     7
370
    25
100
AcDbCircle
 10
213.9105634187
 20
283.2240180416
 30
0.0
 40
4.000000000000016
100
AcDbArc
 50
284.4775121859
 51
0.0
  0
ARC
  5
1CC
330
1F
100
AcDbEntity
  8
0
  6
SLD-Solid
 62
     7
370
    25
100
AcDbCircle
 10
215.9105634187
 20
256.3510346954
 30
0.0
 40
4.0
100
AcDbArc
 50
270.0
 51
0.0
  0
ARC
  5
1CD
330
1F
100
AcDbEntity
  8
0
  6
SLD-Solid
 62
     7
370
    25
100
AcDbCircle
 10
189.9105634187
 20
256.3510346954
 30
0.0
 40
4.0
100
AcDbArc
 50
180.0
 51
270.0
  0
ARC
  5
1CE
330
1F
100
AcDbEntity
  8
0
  6
SLD-Solid
 62
     7
370
    25
100
AcDbCircle
 10
191.9105634187
 20
283.2240180416
 30
0.0
 40
4.000000000000016
100
AcDbArc
 50
180.0
 51
255.5224878141
  0
LINE
  5
1CF
330
1F
100
AcDbEntity
  8
0
  6
SLD-Solid
 62
     7
370
    25
100
AcDbLine
 10
187.9105634187
 20
293.3510346954
 30
0.0
 11
187.9105634187
 21
283.2240180416
 31
0.0
  0
ARC
  5
1D0
330
1F
100
AcDbEntity
  8
0
  6
SLD-Solid
 62
     7
370
    25
100
AcDbCircle
 10
191.9105634187
 20
293.3510346954
 30
0.0
 40
4.0
100
AcDbArc
 50
90.0
 51
180.0
  0
LINE
  5
1D1
330
1F
100
AcDbEntity
  8
0
  6
SLD-Solid
 62
     7
370
    25
100
AcDbLine
 10
213.9105634187
 20
297.3510346954
 30
0.0
 11
191.9105634187
 21
297.3510346954
 31
0.0
  0
LINE
  5
1D2
330
1F
100
AcDbEntity
  8
0
  6
SLD-Solid
 62
     7
370
    25
100
AcDbLine
 10
213.7105634187
 20
292.1510346954
 30
0.0
 11
213.7105634187
 21
288.1510346954
 31
0.0
  0
LINE
  5
1D3
330
1F
100
AcDbEntity
  8
0
  6
SLD-Solid
 62
     7
370
    25
100
AcDbLine
 10
195.6105634187
 20
292.1510346954
 30
0.0
 11
195.6105634187
 21
288.1510346954
 31
0.0
  0
LINE
  5
1D4
330
1F
100
AcDbEntity
  8
0
  6
SLD-Solid
 62
     7
370
    25
100
AcDbLine
 10
200.2105634187
 20
271.7010346954
 30
0.0
 11
200.2105634187
 21
282.3510346954
 31
0.0
  0
ARC
  5
1D5
330
1F
100
AcDbEntity
  8
0
  6
SLD-Solid
 62
     7
370
    25
100
AcDbCircle
 10
211.9605634187
 20
292.1510346954
 30
0.0
 40
1.75
100
AcDbArc
 50
0.0
 51
180.0
  0
LINE
  5
1D6
330
1F
100
AcDbEntity
  8
0
  6
SLD-Solid
 62
     7
370
    25
100
AcDbLine
 10
210.2105634187
 20
292.1510346954
 30
0.0
 11
210.2105634187
 21
288.1510346954
 31
0.0
  0
ARC
  5
1D7
330
1F
100
AcDbEntity
  8
0
  6
SLD-Solid
 62
     7
370
    25
100
AcDbCircle
 10
211.9605634187
 20
288.1510346954
 30
0.0
 40
1.75
100
AcDbArc
 50
180.0
 51
0.0
  0
ARC
  5
1D8
330
1F
100
AcDbEntity
  8
0
  6
SLD-Solid
 62
     7
370
    25
100
AcDbCircle
 10
193.8605634187
 20
292.1510346954
 30
0.0
 40
1.75
100
AcDbArc
 50
0.0
 51
180.0
  0
LINE
  5
1D9
330
1F
100
AcDbEntity
  8
0
  6
SLD-Solid
 62
     7
370
    25
100
AcDbLine
 10
192.1105634187
 20
292.1510346954
 30
0.0
 11
192.1105634187
 21
288.1510346954
 31
0.0
  0
ARC
  5
1DA
330
1F
100
AcDbEntity
  8
0
  6
SLD-Solid
 62
     7
370
    25
100
AcDbCircle
 10
193.8605634187
 20
288.1510346954
 30
0.0
 40
1.75
100
AcDbArc
 50
180.0
 51
0.0
  0
ARC
  5
1DB
330
1F
100
AcDbEntity
  8
0
  6
SLD-Solid
 62
     7
370
    25
100
AcDbCircle
 10
202.9105634187
 20
271.7010346954
 30
0.0
 40
2.700000000000017
100
AcDbArc
 50
180.0
 51
0.0
  0
LINE
  5
1DC
330
1F
100
AcDbEntity
  8
0
  6
SLD-Solid
 62
     7
370
    25
100
AcDbLine
 10
205.6105634187
 20
271.7010346954
 30
0.0
 11
205.6105634187
 21
282.3510346954
 31
0.0
  0
ARC
  5
1DD
330
1F
100
AcDbEntity
  8
0
  6
SLD-Solid
 62
     7
370
    25
100
AcDbCircle
 10
202.9105634187
 20
282.3510346954
 30
0.0
 40
2.700000000000017
100
AcDbArc
 50
0.0
 51
180.0
  0
LINE
  5
1DE
330
1F
100
AcDbEntity
  8
0
  6
SLD-Solid
 62
     7
370
    25
100
AcDbLine
 10
219.9105634187
 20
257.3510346954
 30
0.0
 11
214.9105634187
 21
257.3510346954
 31
0.0
  0
LINE
  5
1DF
330
1F
100
AcDbEntity
  8
0
  6
SLD-Solid
 62
     7
370
    25
100
AcDbLine
 10
219.9105634187
 20
257.3510346954
 30
0.0
 11
219.9105634187
 21
256.3510346954
 31
0.0
  0
LINE
  5
1E0
330
1F
100
AcDbEntity
  8
0
  6
SLD-Solid
 62
     7
370
    25
100
AcDbLine
 10
215.9105634187
 20
252.3510346954
 30
0.0
 11
189.9105634187
 21
252.3510346954
 31
0.0
  0
LINE
  5
1E1
330
1F
100
AcDbEntity
  8
0
  6
SLD-Solid
 62
     7
370
    25
100
AcDbLine
 10
185.9105634187
 20
257.3510346954
 30
0.0
 11
185.9105634187
 21
256.3510346954
 31
0.0
  0
LINE
  5
1E2
330
1F
100
AcDbEntity
  8
0
  6
SLD-Solid
 62
     7
370
    25
100
AcDbLine
 10
190.9105634187
 20
257.3510346954
 30
0.0
 11
185.9105634187
 21
257.3510346954
 31
0.0
  0
LINE
  5
1E3
330
1F
100
AcDbEntity
  8
0
  6
SLD-Solid
 62
     7
370
    25
100
AcDbLine
 10
190.9105634187
 20
257.3510346954
 30
0.0
 11
190.9105634187
 21
279.3510346954
 31
0.0
  0
LINE
  5
1E4
330
1F
100
AcDbEntity
  8
0
  6
SLD-Solid
 62
     7
370
    25
100
AcDbLine
 10
214.9105634187
 20
257.3510346954
 30
0.0
 11
214.9105634187
 21
279.3510346954
 31
0.0
  0
ARC
  5
1E5
330
1F
100
AcDbEntity
  8
0
  6
SLD-Solid
 62
     7
370
    25
100
AcDbCircle
 10
213.7870441581
 20
245.2407260926
 30
0.0
 40
4.0
100
AcDbArc
 50
0.0
 51
90.0
  0
LINE
  5
1E6
330
1F
100
AcDbEntity
  8
0
  6
SLD-Solid
 62
     7
370
    25
100
AcDbLine
 10
217.7870441581
 20
235.1137094388
 30
0.0
 11
217.7870441581
 21
245.2407260926
 31
0.0
  0
ARC
  5
1E7
330
1F
100
AcDbEntity
  8
0
  6
SLD-Solid
 62
     7
370
    25
100
AcDbCircle
 10
213.7870441581
 20
235.1137094388
 30
0.0
 40
4.0
100
AcDbArc
 50
284.4775121859
 51
0.0
  0
ARC
  5
1E8
330
1F
100
AcDbEntity
  8
0
  6
SLD-Solid
 62
     7
370
    25
100
AcDbCircle
 10
215.7870441581
 20
208.2407260926
 30
0.0
 40
4.0
100
AcDbArc
 50
270.0
 51
0.0
  0
ARC
  5
1E9
330
1F
100
AcDbEntity
  8
0
  6
SLD-Solid
 62
     7
370
    25
100
AcDbCircle
 10
189.7870441581
 20
208.2407260926
 30
0.0
 40
4.0
100
AcDbArc
 50
180.0
 51
270.0
  0
ARC
  5
1EA
330
1F
100
AcDbEntity
  8
0
  6
SLD-Solid
 62
     7
370
    25
100
AcDbCircle
 10
191.7870441581
 20
235.1137094388
 30
0.0
 40
4.0
100
AcDbArc
 50
180.0
 51
255.5224878141
  0
LINE
  5
1EB
330
1F
100
AcDbEntity
  8
0
  6
SLD-Solid
 62
     7
370
    25
100
AcDbLine
 10
187.7870441581
 20
245.2407260926
 30
0.0
 11
187.7870441581
 21
235.1137094388
 31
0.0
  0
ARC
  5
1EC
330
1F
100
AcDbEntity
  8
0
  6
SLD-Solid
 62
     7
370
    25
100
AcDbCircle
 10
191.7870441581
 20
245.2407260926
 30
0.0
 40
4.000000000000028
100
AcDbArc
 50
90.0
 51
180.0
  0
LINE
  5
1ED
330
1F
100
AcDbEntity
  8
0
  6
SLD-Solid
 62
     7
370
    25
100
AcDbLine
 10
213.7870441581
 20
249.2407260926
 30
0.0
 11
191.7870441581
 21
249.2407260926
 31
0.0
  0
LINE
  5
1EE
330
1F
100
AcDbEntity
  8
0
  6
SLD-Solid
 62
     7
370
    25
100
AcDbLine
 10
213.5870441581
 20
244.0407260926
 30
0.0
 11
213.5870441581
 21
240.0407260926
 31
0.0
  0
LINE
  5
1EF
330
1F
100
AcDbEntity
  8
0
  6
SLD-Solid
 62
     7
370
    25
100
AcDbLine
 10
195.4870441581
 20
244.0407260926
 30
0.0
 11
195.4870441581
 21
240.0407260926
 31
0.0
  0
LINE
  5
1F0
330
1F
100
AcDbEntity
  8
0
  6
SLD-Solid
 62
     7
370
    25
100
AcDbLine
 10
200.0870441581
 20
223.5907260926
 30
0.0
 11
200.0870441581
 21
234.2407260926
 31
0.0
  0
ARC
  5
1F1
330
1F
100
AcDbEntity
  8
0
  6
SLD-Solid
 62
     7
370
    25
100
AcDbCircle
 10
211.8370441581
 20
244.0407260926
 30
0.0
 40
1.750000000000028
100
AcDbArc
 50
0.0
 51
180.0
  0
LINE
  5
1F2
330
1F
100
AcDbEntity
  8
0
  6
SLD-Solid
 62
     7
370
    25
100
AcDbLine
 10
210.0870441581
 20
244.0407260926
 30
0.0
 11
210.0870441581
 21
240.0407260926
 31
0.0
  0
ARC
  5
1F3
330
1F
100
AcDbEntity
  8
0
  6
SLD-Solid
 62
     7
370
    25
100
AcDbCircle
 10
211.8370441581
 20
240.0407260926
 30
0.0
 40
1.750000000000028
100
AcDbArc
 50
180.0
 51
0.0
  0
ARC
  5
1F4
330
1F
100
AcDbEntity
  8
0
  6
SLD-Solid
 62
     7
370
    25
100
AcDbCircle
 10
193.7370441581
 20
244.0407260926
 30
0.0
 40
1.75
100
AcDbArc
 50
0.0
 51
180.0
  0
LINE
  5
1F5
330
1F
100
AcDbEntity
  8
0
  6
SLD-Solid
 62
     7
370
    25
100
AcDbLine
 10
191.9870441581
 20
244.0407260926
 30
0.0
 11
191.9870441581
 21
240.0407260926
 31
0.0
  0
ARC
  5
1F6
330
1F
100
AcDbEntity
  8
0
  6
SLD-Solid
 62
     7
370
    25
100
AcDbCircle
 10
193.7370441581
 20
240.0407260926
 30
0.0
 40
1.75
100
AcDbArc
 50
180.0
 51
0.0
  0
ARC
  5
1F7
330
1F
100
AcDbEntity
  8
0
  6
SLD-Solid
 62
     7
370
    25
100
AcDbCircle
 10
202.7870441581
 20
223.5907260926
 30
0.0
 40
2.700000000000017
100
AcDbArc
 50
180.0
 51
0.0
  0
LINE
  5
1F8
330
1F
100
AcDbEntity
  8
0
  6
SLD-Solid
 62
     7
370
    25
100
AcDbLine
 10
205.4870441581
 20
223.5907260926
 30
0.0
 11
205.4870441581
 21
234.2407260926
 31
0.0
  0
ARC
  5
1F9
330
1F
100
AcDbEntity
  8
0
  6
SLD-Solid
 62
     7
370
    25
100
AcDbCircle
 10
202.7870441581
 20
234.2407260926
 30
0.0
 40
2.700000000000017
100
AcDbArc
 50
0.0
 51
180.0
  0
LINE
  5
1FA
330
1F
100
AcDbEntity
  8
0
  6
SLD-Solid
 62
     7
370
    25
100
AcDbLine
 10
219.7870441581
 20
209.2407260926
 30
0.0
 11
214.7870441581
 21
209.2407260926
 31
0.0
  0
LINE
  5
1FB
330
1F
100
AcDbEntity
  8
0
  6
SLD-Solid
 62
     7
370
    25
100
AcDbLine
 10
219.7870441581
 20
209.2407260926
 30
0.0
 11
219.7870441581
 21
208.2407260926
 31
0.0
  0
LINE
  5
1FC
330
1F
100
AcDbEntity
  8
0
  6
SLD-Solid
 62
     7
370
    25
100
AcDbLine
 10
215.7870441581
 20
204.2407260926
 30
0.0
 11
189.7870441581
 21
204.2407260926
 31
0.0
  0
LINE
  5
1FD
330
1F
100
AcDbEntity
  8
0
  6
SLD-Solid
 62
     7
370
    25
100
AcDbLine
 10
185.7870441581
 20
209.2407260926
 30
0.0
 11
185.7870441581
 21
208.2407260926
 31
0.0
  0
LINE
  5
1FE
330
1F
100
AcDbEntity
  8
0
  6
SLD-Solid
 62
     7
370
    25
100
AcDbLine
 10
190.7870441581
 20
209.2407260926
 30
0.0
 11
185.7870441581
 21
209.2407260926
 31
0.0
  0
LINE
  5
1FF
330
1F
100
AcDbEntity
  8
0
  6
SLD-Solid
 62
     7
370
    25
100
AcDbLine
 10
190.7870441581
 20
209.2407260926
 30
0.0
 11
190.7870441581
 21
231.2407260926
 31
0.0
  0
LINE
  5
200
330
1F
100
AcDbEntity
  8
0
  6
SLD-Solid
 62
     7
370
    25
100
AcDbLine
 10
214.7870441581
 20
209.2407260926
 30
0.0
 11
214.7870441581
 21
231.2407260926
 31
0.0
  0
ARC
  5
201
330
1F
100
AcDbEntity
  8
0
  6
SLD-Solid
 62
     7
370
    25
100
AcDbCircle
 10
328.5326808199
 20
293.3259403033
 30
0.0
 40
4.0
100
AcDbArc
 50
0.0
 51
90.0
  0
LINE
  5
202
330
1F
100
AcDbEntity
  8
0
  6
SLD-Solid
 62
     7
370
    25
100
AcDbLine
 10
332.5326808199
 20
283.1989236496
 30
0.0
 11
332.5326808199
 21
293.3259403033
 31
0.0
  0
ARC
  5
203
330
1F
100
AcDbEntity
  8
0
  6
SLD-Solid
 62
     7
370
    25
100
AcDbCircle
 10
328.5326808199
 20
283.1989236496
 30
0.0
 40
4.000000000000016
100
AcDbArc
 50
284.4775121859
 51
0.0
  0
ARC
  5
204
330
1F
100
AcDbEntity
  8
0
  6
SLD-Solid
 62
     7
370
    25
100
AcDbCircle
 10
330.5326808199
 20
256.3259403033
 30
0.0
 40
4.0
100
AcDbArc
 50
270.0
 51
0.0
  0
ARC
  5
205
330
1F
100
AcDbEntity
  8
0
  6
SLD-Solid
 62
     7
370
    25
100
AcDbCircle
 10
304.5326808199
 20
256.3259403033
 30
0.0
 40
4.0
100
AcDbArc
 50
180.0
 51
270.0
  0
ARC
  5
206
330
1F
100
AcDbEntity
  8
0
  6
SLD-Solid
 62
     7
370
    25
100
AcDbCircle
 10
306.5326808199
 20
283.1989236496
 30
0.0
 40
4.000000000000016
100
AcDbArc
 50
180.0
 51
255.5224878141
  0
LINE
  5
207
330
1F
100
AcDbEntity
  8
0
  6
SLD-Solid
 62
     7
370
    25
100
AcDbLine
 10
302.5326808199
 20
293.3259403033
 30
0.0
 11
302.5326808199
 21
283.1989236496
 31
0.0
  0
ARC
  5
208
330
1F
100
AcDbEntity
  8
0
  6
SLD-Solid
 62
     7
370
    25
100
AcDbCircle
 10
306.5326808199
 20
293.3259403033
 30
0.0
 40
4.0
100
AcDbArc
 50
90.0
 51
180.0
  0
LINE
  5
209
330
1F
100
AcDbEntity
  8
0
  6
SLD-Solid
 62
     7
370
    25
100
AcDbLine
 10
328.5326808199
 20
297.3259403033
 30
0.0
 11
306.5326808199
 21
297.3259403033
 31
0.0
  0
LINE
  5
20A
330
1F
100
AcDbEntity
  8
0
  6
SLD-Solid
 62
     7
370
    25
100
AcDbLine
 10
328.3326808199
 20
292.1259403033
 30
0.0
 11
328.3326808199
 21
288.1259403033
 31
0.0
  0
LINE
  5
20B
330
1F
100
AcDbEntity
  8
0
  6
SLD-Solid
 62
     7
370
    25
100
AcDbLine
 10
310.2326808199
 20
292.1259403033
 30
0.0
 11
310.2326808199
 21
288.1259403033
 31
0.0
  0
LINE
  5
20C
330
1F
100
AcDbEntity
  8
0
  6
SLD-Solid
 62
     7
370
    25
100
AcDbLine
 10
314.8326808199
 20
271.6759403033
 30
0.0
 11
314.8326808199
 21
282.3259403033
 31
0.0
  0
ARC
  5
20D
330
1F
100
AcDbEntity
  8
0
  6
SLD-Solid
 62
     7
370
    25
100
AcDbCircle
 10
326.5826808199
 20
292.1259403033
 30
0.0
 40
1.75
100
AcDbArc
 50
0.0
 51
180.0
  0
LINE
  5
20E
330
1F
100
AcDbEntity
  8
0
  6
SLD-Solid
 62
     7
370
    25
100
AcDbLine
 10
324.8326808199
 20
292.1259403033
 30
0.0
 11
324.8326808199
 21
288.1259403033
 31
0.0
  0
ARC
  5
20F
330
1F
100
AcDbEntity
  8
0
  6
SLD-Solid
 62
     7
370
    25
100
AcDbCircle
 10
326.5826808199
 20
288.1259403033
 30
0.0
 40
1.75
100
AcDbArc
 50
180.0
 51
0.0
  0
ARC
  5
210
330
1F
100
AcDbEntity
  8
0
  6
SLD-Solid
 62
     7
370
    25
100
AcDbCircle
 10
308.4826808199
 20
292.1259403033
 30
0.0
 40
1.750000000000057
100
AcDbArc
 50
0.0
 51
180.0
  0
LINE
  5
211
330
1F
100
AcDbEntity
  8
0
  6
SLD-Solid
 62
     7
370
    25
100
AcDbLine
 10
306.7326808199
 20
292.1259403033
 30
0.0
 11
306.7326808199
 21
288.1259403033
 31
0.0
  0
ARC
  5
212
330
1F
100
AcDbEntity
  8
0
  6
SLD-Solid
 62
     7
370
    25
100
AcDbCircle
 10
308.4826808199
 20
288.1259403033
 30
0.0
 40
1.750000000000057
100
AcDbArc
 50
180.0
 51
0.0
  0
ARC
  5
213
330
1F
100
AcDbEntity
  8
0
  6
SLD-Solid
 62
     7
370
    25
100
AcDbCircle
 10
317.5326808199
 20
271.6759403033
 30
0.0
 40
2.699999999999989
100
AcDbArc
 50
180.0
 51
0.0
  0
LINE
  5
214
330
1F
100
AcDbEntity
  8
0
  6
SLD-Solid
 62
     7
370
    25
100
AcDbLine
 10
320.2326808199
 20
271.6759403033
 30
0.0
 11
320.2326808199
 21
282.3259403033
 31
0.0
  0
ARC
  5
215
330
1F
100
AcDbEntity
  8
0
  6
SLD-Solid
 62
     7
370
    25
100
AcDbCircle
 10
317.5326808199
 20
282.3259403033
 30
0.0
 40
2.699999999999989
100
AcDbArc
 50
0.0
 51
180.0
  0
LINE
  5
216
330
1F
100
AcDbEntity
  8
0
  6
SLD-Solid
 62
     7
370
    25
100
AcDbLine
 10
334.5326808199
 20
257.3259403033
 30
0.0
 11
329.5326808199
 21
257.3259403033
 31
0.0
  0
LINE
  5
217
330
1F
100
AcDbEntity
  8
0
  6
SLD-Solid
 62
     7
370
    25
100
AcDbLine
 10
334.5326808199
 20
257.3259403033
 30
0.0
 11
334.5326808199
 21
256.3259403033
 31
0.0
  0
LINE
  5
218
330
1F
100
AcDbEntity
  8
0
  6
SLD-Solid
 62
     7
370
    25
100
AcDbLine
 10
330.5326808199
 20
252.3259403033
 30
0.0
 11
304.5326808199
 21
252.3259403033
 31
0.0
  0
LINE
  5
219
330
1F
100
AcDbEntity
  8
0
  6
SLD-Solid
 62
     7
370
    25
100
AcDbLine
 10
300.5326808199
 20
257.3259403033
 30
0.0
 11
300.5326808199
 21
256.3259403033
 31
0.0
  0
LINE
  5
21A
330
1F
100
AcDbEntity
  8
0
  6
SLD-Solid
 62
     7
370
    25
100
AcDbLine
 10
305.5326808199
 20
257.3259403033
 30
0.0
 11
300.5326808199
 21
257.3259403033
 31
0.0
  0
LINE
  5
21B
330
1F
100
AcDbEntity
  8
0
  6
SLD-Solid
 62
     7
370
    25
100
AcDbLine
 10
305.5326808199
 20
257.3259403033
 30
0.0
 11
305.5326808199
 21
279.3259403033
 31
0.0
  0
LINE
  5
21C
330
1F
100
AcDbEntity
  8
0
  6
SLD-Solid
 62
     7
370
    25
100
AcDbLine
 10
329.5326808199
 20
257.3259403033
 30
0.0
 11
329.5326808199
 21
279.3259403033
 31
0.0
  0
ARC
  5
21D
330
1F
100
AcDbEntity
  8
0
  6
SLD-Solid
 62
     7
370
    25
100
AcDbCircle
 10
289.9240279525
 20
244.7179529791
 30
0.0
 40
4.0
100
AcDbArc
 50
0.0
 51
90.0
  0
LINE
  5
21E
330
1F
100
AcDbEntity
  8
0
  6
SLD-Solid
 62
     7
370
    25
100
AcDbLine
 10
293.9240279525
 20
234.5909363253
 30
0.0
 11
293.9240279525
 21
244.7179529791
 31
0.0
  0
ARC
  5
21F
330
1F
100
AcDbEntity
  8
0
  6
SLD-Solid
 62
     7
370
    25
100
AcDbCircle
 10
289.9240279525
 20
234.5909363253
 30
0.0
 40
4.0
100
AcDbArc
 50
284.4775121859
 51
0.0
  0
ARC
  5
220
330
1F
100
AcDbEntity
  8
0
  6
SLD-Solid
 62
     7
370
    25
100
AcDbCircle
 10
291.9240279525
 20
207.7179529791
 30
0.0
 40
4.0
100
AcDbArc
 50
270.0
 51
0.0
  0
ARC
  5
221
330
1F
100
AcDbEntity
  8
0
  6
SLD-Solid
 62
     7
370
    25
100
AcDbCircle
 10
265.9240279525
 20
207.7179529791
 30
0.0
 40
4.0
100
AcDbArc
 50
180.0
 51
270.0
  0
ARC
  5
222
330
1F
100
AcDbEntity
  8
0
  6
SLD-Solid
 62
     7
370
    25
100
AcDbCircle
 10
267.9240279525
 20
234.5909363253
 30
0.0
 40
4.0
100
AcDbArc
 50
180.0
 51
255.5224878141
  0
LINE
  5
223
330
1F
100
AcDbEntity
  8
0
  6
SLD-Solid
 62
     7
370
    25
100
AcDbLine
 10
263.9240279525
 20
244.7179529791
 30
0.0
 11
263.9240279525
 21
234.5909363253
 31
0.0
  0
ARC
  5
224
330
1F
100
AcDbEntity
  8
0
  6
SLD-Solid
 62
     7
370
    25
100
AcDbCircle
 10
267.9240279525
 20
244.7179529791
 30
0.0
 40
4.0
100
AcDbArc
 50
90.0
 51
180.0
  0
LINE
  5
225
330
1F
100
AcDbEntity
  8
0
  6
SLD-Solid
 62
     7
370
    25
100
AcDbLine
 10
289.9240279525
 20
248.7179529791
 30
0.0
 11
267.9240279525
 21
248.7179529791
 31
0.0
  0
LINE
  5
226
330
1F
100
AcDbEntity
  8
0
  6
SLD-Solid
 62
     7
370
    25
100
AcDbLine
 10
289.7240279525
 20
243.5179529791
 30
0.0
 11
289.7240279525
 21
239.5179529791
 31
0.0
  0
LINE
  5
227
330
1F
100
AcDbEntity
  8
0
  6
SLD-Solid
 62
     7
370
    25
100
AcDbLine
 10
271.6240279525
 20
243.5179529791
 30
0.0
 11
271.6240279525
 21
239.5179529791
 31
0.0
  0
LINE
  5
228
330
1F
100
AcDbEntity
  8
0
  6
SLD-Solid
 62
     7
370
    25
100
AcDbLine
 10
276.2240279525
 20
223.0679529791
 30
0.0
 11
276.2240279525
 21
233.7179529791
 31
0.0
  0
ARC
  5
229
330
1F
100
AcDbEntity
  8
0
  6
SLD-Solid
 62
     7
370
    25
100
AcDbCircle
 10
287.9740279525
 20
243.5179529791
 30
0.0
 40
1.75
100
AcDbArc
 50
0.0
 51
180.0
  0
LINE
  5
22A
330
1F
100
AcDbEntity
  8
0
  6
SLD-Solid
 62
     7
370
    25
100
AcDbLine
 10
286.2240279525
 20
243.5179529791
 30
0.0
 11
286.2240279525
 21
239.5179529791
 31
0.0
  0
ARC
  5
22B
330
1F
100
AcDbEntity
  8
0
  6
SLD-Solid
 62
     7
370
    25
100
AcDbCircle
 10
287.9740279525
 20
239.5179529791
 30
0.0
 40
1.75
100
AcDbArc
 50
180.0
 51
0.0
  0
ARC
  5
22C
330
1F
100
AcDbEntity
  8
0
  6
SLD-Solid
 62
     7
370
    25
100
AcDbCircle
 10
269.8740279525
 20
243.5179529791
 30
0.0
 40
1.75
100
AcDbArc
 50
0.0
 51
180.0
  0
LINE
  5
22D
330
1F
100
AcDbEntity
  8
0
  6
SLD-Solid
 62
     7
370
    25
100
AcDbLine
 10
268.1240279525
 20
243.5179529791
 30
0.0
 11
268.1240279525
 21
239.5179529791
 31
0.0
  0
ARC
  5
22E
330
1F
100
AcDbEntity
  8
0
  6
SLD-Solid
 62
     7
370
    25
100
AcDbCircle
 10
269.8740279525
 20
239.5179529791
 30
0.0
 40
1.75
100
AcDbArc
 50
180.0
 51
0.0
  0
ARC
  5
22F
330
1F
100
AcDbEntity
  8
0
  6
SLD-Solid
 62
     7
370
    25
100
AcDbCircle
 10
278.9240279525
 20
223.0679529791
 30
0.0
 40
2.699999999999989
100
AcDbArc
 50
180.0
 51
0.0
  0
LINE
  5
230
330
1F
100
AcDbEntity
  8
0
  6
SLD-Solid
 62
     7
370
    25
100
AcDbLine
 10
281.6240279525
 20
223.0679529791
 30
0.0
 11
281.6240279525
 21
233.7179529791
 31
0.0
  0
ARC
  5
231
330
1F
100
AcDbEntity
  8
0
  6
SLD-Solid
 62
     7
370
    25
100
AcDbCircle
 10
278.9240279525
 20
233.7179529791
 30
0.0
 40
2.699999999999989
100
AcDbArc
 50
0.0
 51
180.0
  0
LINE
  5
232
330
1F
100
AcDbEntity
  8
0
  6
SLD-Solid
 62
     7
370
    25
100
AcDbLine
 10
295.9240279525
 20
208.7179529791
 30
0.0
 11
290.9240279525
 21
208.7179529791
 31
0.0
  0
LINE
  5
233
330
1F
100
AcDbEntity
  8
0
  6
SLD-Solid
 62
     7
370
    25
100
AcDbLine
 10
295.9240279525
 20
208.7179529791
 30
0.0
 11
295.9240279525
 21
207.7179529791
 31
0.0
  0
LINE
  5
234
330
1F
100
AcDbEntity
  8
0
  6
SLD-Solid
 62
     7
370
    25
100
AcDbLine
 10
291.9240279525
 20
203.7179529791
 30
0.0
 11
265.9240279525
 21
203.7179529791
 31
0.0
  0
LINE
  5
235
330
1F
100
AcDbEntity
  8
0
  6
SLD-Solid
 62
     7
370
    25
100
AcDbLine
 10
261.9240279525
 20
208.7179529791
 30
0.0
 11
261.9240279525
 21
207.7179529791
 31
0.0
  0
LINE
  5
236
330
1F
100
AcDbEntity
  8
0
  6
SLD-Solid
 62
     7
370
    25
100
AcDbLine
 10
266.9240279525
 20
208.7179529791
 30
0.0
 11
261.9240279525
 21
208.7179529791
 31
0.0
  0
LINE
  5
237
330
1F
100
AcDbEntity
  8
0
  6
SLD-Solid
 62
     7
370
    25
100
AcDbLine
 10
266.9240279525
 20
208.7179529791
 30
0.0
 11
266.9240279525
 21
230.7179529791
 31
0.0
  0
LINE
  5
238
330
1F
100
AcDbEntity
  8
0
  6
SLD-Solid
 62
     7
370
    25
100
AcDbLine
 10
290.9240279525
 20
208.7179529791
 30
0.0
 11
290.9240279525
 21
230.7179529791
 31
0.0
  0
ARC
  5
239
330
1F
100
AcDbEntity
  8
0
  6
SLD-Solid
 62
     7
370
    25
100
AcDbCircle
 10
250.9100377105
 20
245.2656513294
 30
0.0
 40
4.000000000000028
100
AcDbArc
 50
0.0
 51
90.0
  0
LINE
  5
23A
330
1F
100
AcDbEntity
  8
0
  6
SLD-Solid
 62
     7
370
    25
100
AcDbLine
 10
254.9100377105
 20
235.1386346756
 30
0.0
 11
254.9100377105
 21
245.2656513294
 31
0.0
  0
ARC
  5
23B
330
1F
100
AcDbEntity
  8
0
  6
SLD-Solid
 62
     7
370
    25
100
AcDbCircle
 10
250.9100377105
 20
235.1386346756
 30
0.0
 40
4.000000000000028
100
AcDbArc
 50
284.4775121859
 51
0.0
  0
ARC
  5
23C
330
1F
100
AcDbEntity
  8
0
  6
SLD-Solid
 62
     7
370
    25
100
AcDbCircle
 10
252.9100377105
 20
208.2656513294
 30
0.0
 40
3.999999999999972
100
AcDbArc
 50
270.0
 51
0.0
  0
ARC
  5
23D
330
1F
100
AcDbEntity
  8
0
  6
SLD-Solid
 62
     7
370
    25
100
AcDbCircle
 10
226.9100377105
 20
208.2656513294
 30
0.0
 40
4.0
100
AcDbArc
 50
180.0
 51
270.0
  0
ARC
  5
23E
330
1F
100
AcDbEntity
  8
0
  6
SLD-Solid
 62
     7
370
    25
100
AcDbCircle
 10
228.9100377105
 20
235.1386346756
 30
0.0
 40
3.999999999999989
100
AcDbArc
 50
180.0
 51
255.5224878141
  0
LINE
  5
23F
330
1F
100
AcDbEntity
  8
0
  6
SLD-Solid
 62
     7
370
    25
100
AcDbLine
 10
224.9100377105
 20
245.2656513294
 30
0.0
 11
224.9100377105
 21
235.1386346756
 31
0.0
  0
ARC
  5
240
330
1F
100
AcDbEntity
  8
0
  6
SLD-Solid
 62
     7
370
    25
100
AcDbCircle
 10
228.9100377105
 20
245.2656513294
 30
0.0
 40
4.0
100
AcDbArc
 50
90.0
 51
180.0
  0
LINE
  5
241
330
1F
100
AcDbEntity
  8
0
  6
SLD-Solid
 62
     7
370
    25
100
AcDbLine
 10
250.9100377105
 20
249.2656513294
 30
0.0
 11
228.9100377105
 21
249.2656513294
 31
0.0
  0
LINE
  5
242
330
1F
100
AcDbEntity
  8
0
  6
SLD-Solid
 62
     7
370
    25
100
AcDbLine
 10
250.7100377105
 20
244.0656513294
 30
0.0
 11
250.7100377105
 21
240.0656513294
 31
0.0
  0
LINE
  5
243
330
1F
100
AcDbEntity
  8
0
  6
SLD-Solid
 62
     7
370
    25
100
AcDbLine
 10
232.6100377105
 20
244.0656513294
 30
0.0
 11
232.6100377105
 21
240.0656513294
 31
0.0
  0
LINE
  5
244
330
1F
100
AcDbEntity
  8
0
  6
SLD-Solid
 62
     7
370
    25
100
AcDbLine
 10
237.2100377105
 20
223.6156513294
 30
0.0
 11
237.2100377105
 21
234.2656513294
 31
0.0
  0
ARC
  5
245
330
1F
100
AcDbEntity
  8
0
  6
SLD-Solid
 62
     7
370
    25
100
AcDbCircle
 10
248.9600377105
 20
244.0656513294
 30
0.0
 40
1.75
100
AcDbArc
 50
0.0
 51
180.0
  0
LINE
  5
246
330
1F
100
AcDbEntity
  8
0
  6
SLD-Solid
 62
     7
370
    25
100
AcDbLine
 10
247.2100377105
 20
244.0656513294
 30
0.0
 11
247.2100377105
 21
240.0656513294
 31
0.0
  0
ARC
  5
247
330
1F
100
AcDbEntity
  8
0
  6
SLD-Solid
 62
     7
370
    25
100
AcDbCircle
 10
248.9600377105
 20
240.0656513294
 30
0.0
 40
1.75
100
AcDbArc
 50
180.0
 51
0.0
  0
ARC
  5
248
330
1F
100
AcDbEntity
  8
0
  6
SLD-Solid
 62
     7
370
    25
100
AcDbCircle
 10
230.8600377105
 20
244.0656513294
 30
0.0
 40
1.750000000000028
100
AcDbArc
 50
0.0
 51
180.0
  0
LINE
  5
249
330
1F
100
AcDbEntity
  8
0
  6
SLD-Solid
 62
     7
370
    25
100
AcDbLine
 10
229.1100377105
 20
244.0656513294
 30
0.0
 11
229.1100377105
 21
240.0656513294
 31
0.0
  0
ARC
  5
24A
330
1F
100
AcDbEntity
  8
0
  6
SLD-Solid
 62
     7
370
    25
100
AcDbCircle
 10
230.8600377105
 20
240.0656513294
 30
0.0
 40
1.750000000000028
100
AcDbArc
 50
180.0
 51
0.0
  0
ARC
  5
24B
330
1F
100
AcDbEntity
  8
0
  6
SLD-Solid
 62
     7
370
    25
100
AcDbCircle
 10
239.9100377105
 20
223.6156513294
 30
0.0
 40
2.700000000000017
100
AcDbArc
 50
180.0
 51
0.0
  0
LINE
  5
24C
330
1F
100
AcDbEntity
  8
0
  6
SLD-Solid
 62
     7
370
    25
100
AcDbLine
 10
242.6100377105
 20
223.6156513294
 30
0.0
 11
242.6100377105
 21
234.2656513294
 31
0.0
  0
ARC
  5
24D
330
1F
100
AcDbEntity
  8
0
  6
SLD-Solid
 62
     7
370
    25
100
AcDbCircle
 10
239.9100377105
 20
234.2656513294
 30
0.0
 40
2.700000000000017
100
AcDbArc
 50
0.0
 51
180.0
  0
LINE
  5
24E
330
1F
100
AcDbEntity
  8
0
  6
SLD-Solid
 62
     7
370
    25
100
AcDbLine
 10
256.9100377105
 20
209.2656513294
 30
0.0
 11
251.9100377105
 21
209.2656513294
 31
0.0
  0
LINE
  5
24F
330
1F
100
AcDbEntity
  8
0
  6
SLD-Solid
 62
     7
370
    25
100
AcDbLine
 10
256.9100377105
 20
209.2656513294
 30
0.0
 11
256.9100377105
 21
208.2656513294
 31
0.0
  0
LINE
  5
250
330
1F
100
AcDbEntity
  8
0
  6
SLD-Solid
 62
     7
370
    25
100
AcDbLine
 10
252.9100377105
 20
204.2656513294
 30
0.0
 11
226.9100377105
 21
204.2656513294
 31
0.0
  0
LINE
  5
251
330
1F
100
AcDbEntity
  8
0
  6
SLD-Solid
 62
     7
370
    25
100
AcDbLine
 10
222.9100377105
 20
209.2656513294
 30
0.0
 11
222.9100377105
 21
208.2656513294
 31
0.0
  0
LINE
  5
252
330
1F
100
AcDbEntity
  8
0
  6
SLD-Solid
 62
     7
370
    25
100
AcDbLine
 10
227.9100377105
 20
209.2656513294
 30
0.0
 11
222.9100377105
 21
209.2656513294
 31
0.0
  0
LINE
  5
253
330
1F
100
AcDbEntity
  8
0
  6
SLD-Solid
 62
     7
370
    25
100
AcDbLine
 10
227.9100377105
 20
209.2656513294
 30
0.0
 11
227.9100377105
 21
231.2656513294
 31
0.0
  0
LINE
  5
254
330
1F
100
AcDbEntity
  8
0
  6
SLD-Solid
 62
     7
370
    25
100
AcDbLine
 10
251.9100377105
 20
209.2656513294
 30
0.0
 11
251.9100377105
 21
231.2656513294
 31
0.0
  0
ARC
  5
255
330
1F
100
AcDbEntity
  8
0
  6
SLD-Solid
 62
     7
370
    25
100
AcDbCircle
 10
290.3205281571
 20
293.272770939
 30
0.0
 40
4.0
100
AcDbArc
 50
0.0
 51
90.0
  0
LINE
  5
256
330
1F
100
AcDbEntity
  8
0
  6
SLD-Solid
 62
     7
370
    25
100
AcDbLine
 10
294.3205281571
 20
283.1457542852
 30
0.0
 11
294.3205281571
 21
293.272770939
 31
0.0
  0
ARC
  5
257
330
1F
100
AcDbEntity
  8
0
  6
SLD-Solid
 62
     7
370
    25
100
AcDbCircle
 10
290.3205281571
 20
283.1457542852
 30
0.0
 40
4.0
100
AcDbArc
 50
284.4775121859
 51
0.0
  0
ARC
  5
258
330
1F
100
AcDbEntity
  8
0
  6
SLD-Solid
 62
     7
370
    25
100
AcDbCircle
 10
292.3205281571
 20
256.272770939
 30
0.0
 40
4.0
100
AcDbArc
 50
270.0
 51
0.0
  0
ARC
  5
259
330
1F
100
AcDbEntity
  8
0
  6
SLD-Solid
 62
     7
370
    25
100
AcDbCircle
 10
266.3205281571
 20
256.272770939
 30
0.0
 40
4.0
100
AcDbArc
 50
180.0
 51
270.0
  0
ARC
  5
25A
330
1F
100
AcDbEntity
  8
0
  6
SLD-Solid
 62
     7
370
    25
100
AcDbCircle
 10
268.3205281571
 20
283.1457542852
 30
0.0
 40
4.0
100
AcDbArc
 50
180.0
 51
255.5224878141
  0
LINE
  5
25B
330
1F
100
AcDbEntity
  8
0
  6
SLD-Solid
 62
     7
370
    25
100
AcDbLine
 10
264.3205281571
 20
293.272770939
 30
0.0
 11
264.3205281571
 21
283.1457542852
 31
0.0
  0
ARC
  5
25C
330
1F
100
AcDbEntity
  8
0
  6
SLD-Solid
 62
     7
370
    25
100
AcDbCircle
 10
268.3205281571
 20
293.272770939
 30
0.0
 40
4.0
100
AcDbArc
 50
90.0
 51
180.0
  0
LINE
  5
25D
330
1F
100
AcDbEntity
  8
0
  6
SLD-Solid
 62
     7
370
    25
100
AcDbLine
 10
290.3205281571
 20
297.272770939
 30
0.0
 11
268.3205281571
 21
297.272770939
 31
0.0
  0
LINE
  5
25E
330
1F
100
AcDbEntity
  8
0
  6
SLD-Solid
 62
     7
370
    25
100
AcDbLine
 10
290.1205281571
 20
292.072770939
 30
0.0
 11
290.1205281571
 21
288.072770939
 31
0.0
  0
LINE
  5
25F
330
1F
100
AcDbEntity
  8
0
  6
SLD-Solid
 62
     7
370
    25
100
AcDbLine
 10
272.0205281571
 20
292.072770939
 30
0.0
 11
272.0205281571
 21
288.072770939
 31
0.0
  0
LINE
  5
260
330
1F
100
AcDbEntity
  8
0
  6
SLD-Solid
 62
     7
370
    25
100
AcDbLine
 10
276.6205281571
 20
271.622770939
 30
0.0
 11
276.6205281571
 21
282.272770939
 31
0.0
  0
ARC
  5
261
330
1F
100
AcDbEntity
  8
0
  6
SLD-Solid
 62
     7
370
    25
100
AcDbCircle
 10
288.3705281571
 20
292.072770939
 30
0.0
 40
1.75
100
AcDbArc
 50
0.0
 51
180.0
  0
LINE
  5
262
330
1F
100
AcDbEntity
  8
0
  6
SLD-Solid
 62
     7
370
    25
100
AcDbLine
 10
286.6205281571
 20
292.072770939
 30
0.0
 11
286.6205281571
 21
288.072770939
 31
0.0
  0
ARC
  5
263
330
1F
100
AcDbEntity
  8
0
  6
SLD-Solid
 62
     7
370
    25
100
AcDbCircle
 10
288.3705281571
 20
288.072770939
 30
0.0
 40
1.75
100
AcDbArc
 50
180.0
 51
0.0
  0
ARC
  5
264
330
1F
100
AcDbEntity
  8
0
  6
SLD-Solid
 62
     7
370
    25
100
AcDbCircle
 10
270.2705281571
 20
292.072770939
 30
0.0
 40
1.75
100
AcDbArc
 50
0.0
 51
180.0
  0
LINE
  5
265
330
1F
100
AcDbEntity
  8
0
  6
SLD-Solid
 62
     7
370
    25
100
AcDbLine
 10
268.5205281571
 20
292.072770939
 30
0.0
 11
268.5205281571
 21
288.072770939
 31
0.0
  0
ARC
  5
266
330
1F
100
AcDbEntity
  8
0
  6
SLD-Solid
 62
     7
370
    25
100
AcDbCircle
 10
270.2705281571
 20
288.072770939
 30
0.0
 40
1.75
100
AcDbArc
 50
180.0
 51
0.0
  0
ARC
  5
267
330
1F
100
AcDbEntity
  8
0
  6
SLD-Solid
 62
     7
370
    25
100
AcDbCircle
 10
279.3205281571
 20
271.622770939
 30
0.0
 40
2.699999999999989
100
AcDbArc
 50
180.0
 51
0.0
  0
LINE
  5
268
330
1F
100
AcDbEntity
  8
0
  6
SLD-Solid
 62
     7
370
    25
100
AcDbLine
 10
282.0205281571
 20
271.622770939
 30
0.0
 11
282.0205281571
 21
282.272770939
 31
0.0
  0
ARC
  5
269
330
1F
100
AcDbEntity
  8
0
  6
SLD-Solid
 62
     7
370
    25
100
AcDbCircle
 10
279.3205281571
 20
282.272770939
 30
0.0
 40
2.699999999999989
100
AcDbArc
 50
0.0
 51
180.0
  0
LINE
  5
26A
330
1F
100
AcDbEntity
  8
0
  6
SLD-Solid
 62
     7
370
    25
100
AcDbLine
 10
296.3205281571
 20
257.272770939
 30
0.0
 11
291.3205281571
 21
257.272770939
 31
0.0
  0
LINE
  5
26B
330
1F
100
AcDbEntity
  8
0
  6
SLD-Solid
 62
     7
370
    25
100
AcDbLine
 10
296.3205281571
 20
257.272770939
 30
0.0
 11
296.3205281571
 21
256.272770939
 31
0.0
  0
LINE
  5
26C
330
1F
100
AcDbEntity
  8
0
  6
SLD-Solid
 62
     7
370
    25
100
AcDbLine
 10
292.3205281571
 20
252.272770939
 30
0.0
 11
266.3205281571
 21
252.272770939
 31
0.0
  0
LINE
  5
26D
330
1F
100
AcDbEntity
  8
0
  6
SLD-Solid
 62
     7
370
    25
100
AcDbLine
 10
262.3205281571
 20
257.272770939
 30
0.0
 11
262.3205281571
 21
256.272770939
 31
0.0
  0
LINE
  5
26E
330
1F
100
AcDbEntity
  8
0
  6
SLD-Solid
 62
     7
370
    25
100
AcDbLine
 10
267.3205281571
 20
257.272770939
 30
0.0
 11
262.3205281571
 21
257.272770939
 31
0.0
  0
LINE
  5
26F
330
1F
100
AcDbEntity
  8
0
  6
SLD-Solid
 62
     7
370
    25
100
AcDbLine
 10
267.3205281571
 20
257.272770939
 30
0.0
 11
267.3205281571
 21
279.272770939
 31
0.0
  0
LINE
  5
270
330
1F
100
AcDbEntity
  8
0
  6
SLD-Solid
 62
     7
370
    25
100
AcDbLine
 10
291.3205281571
 20
257.272770939
 30
0.0
 11
291.3205281571
 21
279.272770939
 31
0.0
  0
LINE
  5
271
330
1F
100
AcDbEntity
  8
0
  6
SLD-Solid
 62
     7
370
    25
100
AcDbLine
 10
266.7350359238
 20
112.6961093027
 30
0.0
 11
274.7350359238
 21
112.6961093027
 31
0.0
  0
LINE
  5
272
330
1F
100
AcDbEntity
  8
0
  6
SLD-Solid
 62
     7
370
    25
100
AcDbLine
 10
274.7350359238
 20
112.6961093027
 30
0.0
 11
274.7350359238
 21
115.6961093027
 31
0.0
  0
LINE
  5
273
330
1F
100
AcDbEntity
  8
0
  6
SLD-Solid
 62
     7
370
    25
100
AcDbLine
 10
274.7350359238
 20
115.6961093027
 30
0.0
 11
266.7350359238
 21
115.6961093027
 31
0.0
  0
LINE
  5
274
330
1F
100
AcDbEntity
  8
0
  6
SLD-Solid
 62
     7
370
    25
100
AcDbLine
 10
266.7350359238
 20
115.6961093027
 30
0.0
 11
266.7350359238
 21
112.6961093027
 31
0.0
  0
CIRCLE
  5
275
330
1F
100
AcDbEntity
  8
0
  6
SLD-Solid
 62
     7
370
    25
100
AcDbCircle
 10
136.7350359238
 20
142.6961093027
 30
0.0
 40
1.5
  0
CIRCLE
  5
276
330
1F
100
AcDbEntity
  8
0
  6
SLD-Solid
 62
     7
370
    25
100
AcDbCircle
 10
136.7350359238
 20
42.6961093027
 30
0.0
 40
1.499999999999993
  0
CIRCLE
  5
277
330
1F
100
AcDbEntity
  8
0
  6
SLD-Solid
 62
     7
370
    25
100
AcDbCircle
 10
216.7350359238
 20
22.6961093027
 30
0.0
 40
1.5
  0
CIRCLE
  5
278
330
1F
100
AcDbEntity
  8
0
  6
SLD-Solid
 62
     7
370
    25
100
AcDbCircle
 10
216.7350359238
 20
162.6961093027
 30
0.0
 40
1.5
  0
CIRCLE
  5
279
330
1F
100
AcDbEntity
  8
0
  6
SLD-Solid
 62
     7
370
    25
100
AcDbCircle
 10
296.7350359238
 20
142.6961093027
 30
0.0
 40
1.499999999999773
  0
CIRCLE
  5
27A
330
1F
100
AcDbEntity
  8
0
  6
SLD-Solid
 62
     7
370
    25
100
AcDbCircle
 10
296.7350359238
 20
42.6961093027
 30
0.0
 40
1.49999999999978
  0
LINE
  5
27B
330
1F
100
AcDbEntity
  8
0
  6
SLD-Solid
 62
     7
370
    25
100
AcDbLine
 10
264.7350359238
 20
32.6961093027
 30
0.0
 11
264.7350359238
 21
57.1211093027
 31
0.0
  0
LINE
  5
27C
330
1F
100
AcDbEntity
  8
0
  6
SLD-Solid
 62
     7
370
    25
100
AcDbLine
 10
246.7350359238
 20
32.6961093027
 30
0.0
 11
264.7350359238
 21
32.6961093027
 31
0.0
  0
LINE
  5
27D
330
1F
100
AcDbEntity
  8
0
  6
SLD-Solid
 62
     7
370
    25
100
AcDbLine
 10
246.7350359238
 20
22.6961093027
 30
0.0
 11
246.7350359238
 21
32.6961093027
 31
0.0
  0
ARC
  5
27E
330
1F
100
AcDbEntity
  8
0
  6
SLD-Solid
 62
     7
370
    25
100
AcDbCircle
 10
236.7350359238
 20
22.6961093027
 30
0.0
 40
9.999999999999995
100
AcDbArc
 50
270.0
 51
0.0
  0
LINE
  5
27F
330
1F
100
AcDbEntity
  8
0
  6
SLD-Solid
 62
     7
370
    25
100
AcDbLine
 10
196.7350359238
 20
12.6961093027
 30
0.0
 11
236.7350359238
 21
12.6961093027
 31
0.0
  0
ARC
  5
280
330
1F
100
AcDbEntity
  8
0
  6
SLD-Solid
 62
     7
370
    25
100
AcDbCircle
 10
196.7350359238
 20
22.6961093027
 30
0.0
 40
10.0
100
AcDbArc
 50
180.0
 51
270.0
  0
LINE
  5
281
330
1F
100
AcDbEntity
  8
0
  6
SLD-Solid
 62
     7
370
    25
100
AcDbLine
 10
186.7350359238
 20
32.6961093027
 30
0.0
 11
186.7350359238
 21
22.6961093027
 31
0.0
  0
LINE
  5
282
330
1F
100
AcDbEntity
  8
0
  6
SLD-Solid
 62
     7
370
    25
100
AcDbLine
 10
168.7350359238
 20
32.6961093027
 30
0.0
 11
186.7350359238
 21
32.6961093027
 31
0.0
  0
LINE
  5
283
330
1F
100
AcDbEntity
  8
0
  6
SLD-Solid
 62
     7
370
    25
100
AcDbLine
 10
168.7350359238
 20
57.1211093027
 30
0.0
 11
168.7350359238
 21
32.6961093027
 31
0.0
  0
LINE
  5
284
330
1F
100
AcDbEntity
  8
0
  6
SLD-Solid
 62
     7
370
    25
100
AcDbLine
 10
144.7350359238
 20
57.1211093027
 30
0.0
 11
168.7350359238
 21
57.1211093027
 31
0.0
  0
LINE
  5
285
330
1F
100
AcDbEntity
  8
0
  6
SLD-Solid
 62
     7
370
    25
100
AcDbLine
 10
144.7350359238
 20
32.6961093027
 30
0.0
 11
144.7350359238
 21
57.1211093027
 31
0.0
  0
LINE
  5
286
330
1F
100
AcDbEntity
  8
0
  6
SLD-Solid
 62
     7
370
    25
100
AcDbLine
 10
136.7350359238
 20
32.6961093027
 30
0.0
 11
144.7350359238
 21
32.6961093027
 31
0.0
  0
ARC
  5
287
330
1F
100
AcDbEntity
  8
0
  6
SLD-Solid
 62
     7
370
    25
100
AcDbCircle
 10
136.7350359238
 20
42.6961093027
 30
0.0
 40
9.999999999999993
100
AcDbArc
 50
180.0
 51
270.0
  0
LINE
  5
288
330
1F
100
AcDbEntity
  8
0
  6
SLD-Solid
 62
     7
370
    25
100
AcDbLine
 10
126.7350359238
 20
142.6961093027
 30
0.0
 11
126.7350359238
 21
42.6961093027
 31
0.0
  0
ARC
  5
289
330
1F
100
AcDbEntity
  8
0
  6
SLD-Solid
 62
     7
370
    25
100
AcDbCircle
 10
136.7350359238
 20
142.6961093027
 30
0.0
 40
10.0
100
AcDbArc
 50
90.0
 51
180.0
  0
LINE
  5
28A
330
1F
100
AcDbEntity
  8
0
  6
SLD-Solid
 62
     7
370
    25
100
AcDbLine
 10
144.7350359238
 20
152.6961093027
 30
0.0
 11
136.7350359238
 21
152.6961093027
 31
0.0
  0
LINE
  5
28B
330
1F
100
AcDbEntity
  8
0
  6
SLD-Solid
 62
     7
370
    25
100
AcDbLine
 10
144.7350359238
 20
128.2711093027
 30
0.0
 11
144.7350359238
 21
152.6961093027
 31
0.0
  0
LINE
  5
28C
330
1F
100
AcDbEntity
  8
0
  6
SLD-Solid
 62
     7
370
    25
100
AcDbLine
 10
168.7350359238
 20
128.2711093027
 30
0.0
 11
144.7350359238
 21
128.2711093027
 31
0.0
  0
LINE
  5
28D
330
1F
100
AcDbEntity
  8
0
  6
SLD-Solid
 62
     7
370
    25
100
AcDbLine
 10
168.7350359238
 20
152.6961093027
 30
0.0
 11
168.7350359238
 21
128.2711093027
 31
0.0
  0
LINE
  5
28E
330
1F
100
AcDbEntity
  8
0
  6
SLD-Solid
 62
     7
370
    25
100
AcDbLine
 10
186.7350359238
 20
152.6961093027
 30
0.0
 11
168.7350359238
 21
152.6961093027
 31
0.0
  0
LINE
  5
28F
330
1F
100
AcDbEntity
  8
0
  6
SLD-Solid
 62
     7
370
    25
100
AcDbLine
 10
186.7350359238
 20
162.6961093027
 30
0.0
 11
186.7350359238
 21
152.6961093027
 31
0.0
  0
ARC
  5
290
330
1F
100
AcDbEntity
  8
0
  6
SLD-Solid
 62
     7
370
    25
100
AcDbCircle
 10
196.7350359238
 20
162.6961093027
 30
0.0
 40
10.0
100
AcDbArc
 50
90.0
 51
180.0
  0
LINE
  5
291
330
1F
100
AcDbEntity
  8
0
  6
SLD-Solid
 62
     7
370
    25
100
AcDbLine
 10
236.7350359238
 20
172.6961093027
 30
0.0
 11
196.7350359238
 21
172.6961093027
 31
0.0
  0
ARC
  5
292
330
1F
100
AcDbEntity
  8
0
  6
SLD-Solid
 62
     7
370
    25
100
AcDbCircle
 10
236.7350359238
 20
162.6961093027
 30
0.0
 40
9.999999999999972
100
AcDbArc
 50
0.0
 51
90.0
  0
LINE
  5
293
330
1F
100
AcDbEntity
  8
0
  6
SLD-Solid
 62
     7
370
    25
100
AcDbLine
 10
246.7350359238
 20
152.6961093027
 30
0.0
 11
246.7350359238
 21
162.6961093027
 31
0.0
  0
LINE
  5
294
330
1F
100
AcDbEntity
  8
0
  6
SLD-Solid
 62
     7
370
    25
100
AcDbLine
 10
264.7350359238
 20
152.6961093027
 30
0.0
 11
246.7350359238
 21
152.6961093027
 31
0.0
  0
LINE
  5
295
330
1F
100
AcDbEntity
  8
0
  6
SLD-Solid
 62
     7
370
    25
100
AcDbLine
 10
264.7350359238
 20
128.2711093027
 30
0.0
 11
264.7350359238
 21
152.6961093027
 31
0.0
  0
LINE
  5
296
330
1F
100
AcDbEntity
  8
0
  6
SLD-Solid
 62
     7
370
    25
100
AcDbLine
 10
288.7350359238
 20
128.2711093027
 30
0.0
 11
264.7350359238
 21
128.2711093027
 31
0.0
  0
LINE
  5
297
330
1F
100
AcDbEntity
  8
0
  6
SLD-Solid
 62
     7
370
    25
100
AcDbLine
 10
288.7350359238
 20
152.6961093027
 30
0.0
 11
288.7350359238
 21
128.2711093027
 31
0.0
  0
LINE
  5
298
330
1F
100
AcDbEntity
  8
0
  6
SLD-Solid
 62
     7
370
    25
100
AcDbLine
 10
296.7350359238
 20
152.6961093027
 30
0.0
 11
288.7350359238
 21
152.6961093027
 31
0.0
  0
ARC
  5
299
330
1F
100
AcDbEntity
  8
0
  6
SLD-Solid
 62
     7
370
    25
100
AcDbCircle
 10
296.7350359238
 20
142.6961093027
 30
0.0
 40
10.00000000000006
100
AcDbArc
 50
0.0
 51
90.0
  0
LINE
  5
29A
330
1F
100
AcDbEntity
  8
0
  6
SLD-Solid
 62
     7
370
    25
100
AcDbLine
 10
306.7350359238
 20
42.6961093027
 30
0.0
 11
306.7350359238
 21
142.6961093027
 31
0.0
  0
ARC
  5
29B
330
1F
100
AcDbEntity
  8
0
  6
SLD-Solid
 62
     7
370
    25
100
AcDbCircle
 10
296.7350359238
 20
42.6961093027
 30
0.0
 40
10.00000000000006
100
AcDbArc
 50
270.0
 51
0.0
  0
LINE
  5
29C
330
1F
100
AcDbEntity
  8
0
  6
SLD-Solid
 62
     7
370
    25
100
AcDbLine
 10
288.7350359238
 20
32.6961093027
 30
0.0
 11
296.7350359238
 21
32.6961093027
 31
0.0
  0
LINE
  5
29D
330
1F
100
AcDbEntity
  8
0
  6
SLD-Solid
 62
     7
370
    25
100
AcDbLine
 10
288.7350359238
 20
57.1211093027
 30
0.0
 11
288.7350359238
 21
32.6961093027
 31
0.0
  0
LINE
  5
29E
330
1F
100
AcDbEntity
  8
0
  6
SLD-Solid
 62
     7
370
    25
100
AcDbLine
 10
264.7350359238
 20
57.1211093027
 30
0.0
 11
288.7350359238
 21
57.1211093027
 31
0.0
  0
LINE
  5
29F
330
1F
100
AcDbEntity
  8
0
  6
SLD-Solid
 62
     7
370
    25
100
AcDbLine
 10
274.7350359238
 20
69.6961093027
 30
0.0
 11
274.7350359238
 21
72.6961093027
 31
0.0
  0
LINE
  5
2A0
330
1F
100
AcDbEntity
  8
0
  6
SLD-Solid
 62
     7
370
    25
100
AcDbLine
 10
274.7350359238
 20
72.6961093027
 30
0.0
 11
266.7350359238
 21
72.6961093027
 31
0.0
  0
LINE
  5
2A1
330
1F
100
AcDbEntity
  8
0
  6
SLD-Solid
 62
     7
370
    25
100
AcDbLine
 10
266.7350359238
 20
72.6961093027
 30
0.0
 11
266.7350359238
 21
69.6961093027
 31
0.0
  0
LINE
  5
2A2
330
1F
100
AcDbEntity
  8
0
  6
SLD-Solid
 62
     7
370
    25
100
AcDbLine
 10
266.7350359238
 20
69.6961093027
 30
0.0
 11
274.7350359238
 21
69.6961093027
 31
0.0
  0
CIRCLE
  5
2A3
330
1F
100
AcDbEntity
  8
0
  6
SLD-Solid
 62
     7
370
    25
100
AcDbCircle
 10
30.2319723398
 20
124.3302952395
 30
0.0
 40
1.5
  0
ARC
  5
2A4
330
1F
100
AcDbEntity
  8
0
  6
SLD-Solid
 62
     7
370
    25
100
AcDbCircle
 10
66.2319723398
 20
113.8302952395
 30
0.0
 40
5.0
100
AcDbArc
 50
270.0
 51
343.7397952917
  0
LINE
  5
2A5
330
1F
100
AcDbEntity
  8
0
  6
SLD-Solid
 62
     7
370
    25
100
AcDbLine
 10
66.2319723398
 20
108.8302952395
 30
0.0
 11
65.312100751
 21
108.8302952395
 31
0.0
  0
ARC
  5
2A6
330
1F
100
AcDbEntity
  8
0
  6
SLD-Solid
 62
     7
370
    25
100
AcDbCircle
 10
90.2319723398
 20
106.8302952395
 30
0.0
 40
25.0
100
AcDbArc
 50
164.5339900466
 51
175.4114342642
  0
ARC
  5
2A7
330
1F
100
AcDbEntity
  8
0
  6
SLD-Solid
 62
     7
370
    25
100
AcDbCircle
 10
61.3183077502
 20
114.8302952395
 30
0.0
 40
5.000000000000005
100
AcDbArc
 50
344.5339900466
 51
90.0
  0
LINE
  5
2A8
330
1F
100
AcDbEntity
  8
0
  6
SLD-Solid
 62
     7
370
    25
100
AcDbLine
 10
45.5861248725
 20
119.8302952395
 30
0.0
 11
61.3183077502
 21
119.8302952395
 31
0.0
  0
ARC
  5
2A9
330
1F
100
AcDbEntity
  8
0
  6
SLD-Solid
 62
     7
370
    25
100
AcDbCircle
 10
30.2319723398
 20
124.3302952395
 30
0.0
 40
16.0
100
AcDbArc
 50
277.3695092631
 51
343.6651772193
  0
LINE
  5
2AA
330
1F
100
AcDbEntity
  8
0
  6
SLD-Solid
 62
     7
370
    25
100
AcDbLine
 10
31.7319723398
 20
105.3302952395
 30
0.0
 11
32.2842578905
 21
108.4624622426
 31
0.0
  0
LINE
  5
2AB
330
1F
100
AcDbEntity
  8
0
  6
SLD-Solid
 62
     7
370
    25
100
AcDbLine
 10
28.7319723398
 20
105.3302952395
 30
0.0
 11
31.7319723398
 21
105.3302952395
 31
0.0
  0
LINE
  5
2AC
330
1F
100
AcDbEntity
  8
0
  6
SLD-Solid
 62
     7
370
    25
100
AcDbLine
 10
28.7319723398
 20
105.3302952395
 30
0.0
 11
28.179686789
 21
108.4624622426
 31
0.0
  0
ARC
  5
2AD
330
1F
100
AcDbEntity
  8
0
  6
SLD-Solid
 62
     7
370
    25
100
AcDbCircle
 10
30.2319723398
 20
124.3302952395
 30
0.0
 40
16.00000000000052
100
AcDbArc
 50
253.3695092631
 51
262.6304907369
  0
LINE
  5
2AE
330
1F
100
AcDbEntity
  8
0
  6
SLD-Solid
 62
     7
370
    25
100
AcDbLine
 10
23.8742943078
 20
106.3628265797
 30
0.0
 11
25.6527993564
 21
108.999568747
 31
0.0
  0
LINE
  5
2AF
330
1F
100
AcDbEntity
  8
0
  6
SLD-Solid
 62
     7
370
    25
100
AcDbLine
 10
21.1336579349
 20
107.5830365089
 30
0.0
 11
23.8742943078
 21
106.3628265797
 31
0.0
  0
LINE
  5
2B0
330
1F
100
AcDbEntity
  8
0
  6
SLD-Solid
 62
     7
370
    25
100
AcDbLine
 10
21.1336579349
 20
107.5830365089
 30
0.0
 11
21.9030870711
 21
110.6690482181
 31
0.0
  0
ARC
  5
2B1
330
1F
100
AcDbEntity
  8
0
  6
SLD-Solid
 62
     7
370
    25
100
AcDbCircle
 10
30.2319723398
 20
124.3302952395
 30
0.0
 40
16.00000000000102
100
AcDbArc
 50
229.3695092631
 51
238.6304907369
  0
LINE
  5
2B2
330
1F
100
AcDbEntity
  8
0
  6
SLD-Solid
 62
     7
370
    25
100
AcDbLine
 10
17.1159165652
 20
110.5020964805
 30
0.0
 11
19.8131214315
 21
112.1874971373
 31
0.0
  0
LINE
  5
2B3
330
1F
100
AcDbEntity
  8
0
  6
SLD-Solid
 62
     7
370
    25
100
AcDbLine
 10
15.1085247462
 20
112.7315309569
 30
0.0
 11
17.1159165652
 21
110.5020964805
 31
0.0
  0
LINE
  5
2B4
330
1F
100
AcDbEntity
  8
0
  6
SLD-Solid
 62
     7
370
    25
100
AcDbLine
 10
15.1085247462
 20
112.7315309569
 30
0.0
 11
17.0666272816
 21
115.2377879121
 31
0.0
  0
ARC
  5
2B5
330
1F
100
AcDbEntity
  8
0
  6
SLD-Solid
 62
     7
370
    25
100
AcDbCircle
 10
30.2319723398
 20
124.3302952395
 30
0.0
 40
16.00000000000141
100
AcDbArc
 50
205.3695092631
 51
214.6304907369
  0
LINE
  5
2B6
330
1F
100
AcDbEntity
  8
0
  6
SLD-Solid
 62
     7
370
    25
100
AcDbLine
 10
12.6254240217
 20
117.032387572
 30
0.0
 11
15.774957481
 21
117.4750256333
 31
0.0
  0
LINE
  5
2B7
330
1F
100
AcDbEntity
  8
0
  6
SLD-Solid
 62
     7
370
    25
100
AcDbLine
 10
11.6983730386
 20
119.8855571208
 30
0.0
 11
12.6254240217
 21
117.032387572
 31
0.0
  0
LINE
  5
2B8
330
1F
100
AcDbEntity
  8
0
  6
SLD-Solid
 62
     7
370
    25
100
AcDbLine
 10
11.6983730386
 20
119.8855571208
 30
0.0
 11
14.5065752561
 21
121.3787047259
 31
0.0
  0
ARC
  5
2B9
330
1F
100
AcDbEntity
  8
0
  6
SLD-Solid
 62
     7
370
    25
100
AcDbCircle
 10
30.2319723398
 20
124.3302952395
 30
0.0
 40
16.00000000000158
100
AcDbArc
 50
181.3695092631
 51
190.6304907369
  0
LINE
  5
2BA
330
1F
100
AcDbEntity
  8
0
  6
SLD-Solid
 62
     7
370
    25
100
AcDbLine
 10
11.1792636329
 20
124.8245531986
 30
0.0
 11
14.2365427375
 21
123.9478925223
 31
0.0
  0
LINE
  5
2BB
330
1F
100
AcDbEntity
  8
0
  6
SLD-Solid
 62
     7
370
    25
100
AcDbLine
 10
11.4928490227
 20
127.8081188847
 30
0.0
 11
11.1792636329
 21
124.8245531986
 31
0.0
  0
LINE
  5
2BC
330
1F
100
AcDbEntity
  8
0
  6
SLD-Solid
 62
     7
370
    25
100
AcDbLine
 10
11.4928490227
 20
127.8081188847
 30
0.0
 11
14.6655872471
 21
128.0299783538
 31
0.0
  0
LINE
  5
2BD
330
1F
100
AcDbEntity
  8
0
  6
SLD-Solid
 62
     7
370
    25
100
AcDbLine
 10
44.852163857
 20
130.8302952395
 30
0.0
 11
15.6117808226
 21
130.8302952395
 31
0.0
  0
LINE
  5
2BE
330
1F
100
AcDbEntity
  8
0
  6
SLD-Solid
 62
     7
370
    25
100
AcDbLine
 10
45.5861248725
 20
128.8302952395
 30
0.0
 11
77.1552755091
 21
128.8302952395
 31
0.0
  0
ARC
  5
2BF
330
1F
100
AcDbEntity
  8
0
  6
SLD-Solid
 62
     7
370
    25
100
AcDbCircle
 10
77.1552755091
 20
133.8302952395
 30
0.0
 40
5.0
100
AcDbArc
 50
270.0
 51
295.8419327632
  0
ARC
  5
2C0
330
1F
100
AcDbEntity
  8
0
  6
SLD-Solid
 62
     7
370
    25
100
AcDbCircle
 10
90.2319723398
 20
106.8302952395
 30
0.0
 40
24.99999999999998
100
AcDbArc
 50
4.5885657358
 51
115.8419327632
  0
LINE
  5
2C1
330
1F
100
AcDbEntity
  8
0
  6
SLD-Solid
 62
     7
370
    25
100
AcDbLine
 10
114.2319723398
 20
108.8302952395
 30
0.0
 11
115.1518439285
 21
108.8302952395
 31
0.0
  0
ARC
  5
2C2
330
1F
100
AcDbEntity
  8
0
  6
SLD-Solid
 62
     7
370
    25
100
AcDbCircle
 10
114.2319723398
 20
113.8302952395
 30
0.0
 40
5.000000000000012
100
AcDbArc
 50
196.2602047083
 51
270.0
  0
ARC
  5
2C3
330
1F
100
AcDbEntity
  8
0
  6
SLD-Solid
 62
     7
370
    25
100
AcDbCircle
 10
90.2319723398
 20
106.8302952395
 30
0.0
 40
20.0
100
AcDbArc
 50
16.2602047083
 51
163.7397952917
  0
CIRCLE
  5
2C4
330
1F
100
AcDbEntity
  8
0
  6
SLD-Solid
 62
     7
370
    25
100
AcDbCircle
 10
70.3322235976
 20
124.3302952395
 30
0.0
 40
1.5
  0
ARC
  5
2C5
330
1F
100
AcDbEntity
  8
0
  6
SLD-Solid
 62
     7
370
    25
100
AcDbCircle
 10
30.2319723398
 20
124.3302952395
 30
0.0
 40
16.00000000000126
100
AcDbArc
 50
156.0305176822
 51
166.6304907369
  0
ARC
  5
2C6
330
1F
100
AcDbEntity
  8
0
  6
SLD-Solid
 62
     7
370
    25
100
AcDbCircle
 10
30.2319723398
 20
124.3302952395
 30
0.0
 40
16.0
100
AcDbArc
 50
16.3348227807
 51
23.9694823178
  0
CIRCLE
  5
2C7
330
1F
100
AcDbEntity
  8
0
  6
SLD-Solid
 62
     7
370
    25
100
AcDbCircle
 10
47.8265405507
 20
100.9075116736
 30
0.0
 40
1.500000000000028
  0
ARC
  5
2C8
330
1F
100
AcDbEntity
  8
0
  6
SLD-Solid
 62
     7
370
    25
100
AcDbCircle
 10
51.9267918086
 20
111.4075116736
 30
0.0
 40
5.000000000000005
100
AcDbArc
 50
90.0
 51
163.7397952917
  0
LINE
  5
2C9
330
1F
100
AcDbEntity
  8
0
  6
SLD-Solid
 62
     7
370
    25
100
AcDbLine
 10
51.9267918086
 20
116.4075116736
 30
0.0
 11
52.8466633974
 21
116.4075116736
 31
0.0
  0
ARC
  5
2CA
330
1F
100
AcDbEntity
  8
0
  6
SLD-Solid
 62
     7
370
    25
100
AcDbCircle
 10
27.9267918086
 20
118.4075116736
 30
0.0
 40
25.0
100
AcDbArc
 50
344.5339900466
 51
355.4114342642
  0
ARC
  5
2CB
330
1F
100
AcDbEntity
  8
0
  6
SLD-Solid
 62
     7
370
    25
100
AcDbCircle
 10
56.8404563982
 20
110.4075116736
 30
0.0
 40
5.0
100
AcDbArc
 50
164.5339900466
 51
270.0
  0
LINE
  5
2CC
330
1F
100
AcDbEntity
  8
0
  6
SLD-Solid
 62
     7
370
    25
100
AcDbLine
 10
72.5726392758
 20
105.4075116736
 30
0.0
 11
56.8404563982
 21
105.4075116736
 31
0.0
  0
LINE
  5
2CD
330
1F
100
AcDbEntity
  8
0
  6
SLD-Solid
 62
     7
370
    25
100
AcDbLine
 10
105.7939345039
 20
94.4075116736
 30
0.0
 11
73.3066002914
 21
94.4075116736
 31
0.0
  0
LINE
  5
2CE
330
1F
100
AcDbEntity
  8
0
  6
SLD-Solid
 62
     7
370
    25
100
AcDbLine
 10
72.5726392758
 20
96.4075116736
 30
0.0
 11
41.0034886392
 21
96.4075116736
 31
0.0
  0
ARC
  5
2CF
330
1F
100
AcDbEntity
  8
0
  6
SLD-Solid
 62
     7
370
    25
100
AcDbCircle
 10
41.0034886392
 20
91.4075116736
 30
0.0
 40
5.000000000000002
100
AcDbArc
 50
90.0
 51
115.8419327632
  0
ARC
  5
2D0
330
1F
100
AcDbEntity
  8
0
  6
SLD-Solid
 62
     7
370
    25
100
AcDbCircle
 10
27.9267918086
 20
118.4075116736
 30
0.0
 40
25.0
100
AcDbArc
 50
184.5885657358
 51
295.8419327632
  0
LINE
  5
2D1
330
1F
100
AcDbEntity
  8
0
  6
SLD-Solid
 62
     7
370
    25
100
AcDbLine
 10
3.0069202199
 20
116.4075116736
 30
0.0
 11
3.9267918086
 21
116.4075116736
 31
0.0
  0
ARC
  5
2D2
330
1F
100
AcDbEntity
  8
0
  6
SLD-Solid
 62
     7
370
    25
100
AcDbCircle
 10
3.9267918086
 20
111.4075116736
 30
0.0
 40
5.0
100
AcDbArc
 50
16.2602047083
 51
90.0
  0
ARC
  5
2D3
330
1F
100
AcDbEntity
  8
0
  6
SLD-Solid
 62
     7
370
    25
100
AcDbCircle
 10
27.9267918086
 20
118.4075116736
 30
0.0
 40
20.00000000000001
100
AcDbArc
 50
196.2602047083
 51
343.7397952917
  0
LINE
  5
2D4
330
1F
100
AcDbEntity
  8
0
  6
SLD-Solid
 62
     7
370
    25
100
AcDbLine
 10
82.4749725868
 20
119.1702515331
 30
0.0
 11
82.591933604
 21
115.9919171288
 31
0.0
  0
CIRCLE
  5
2D5
330
1F
100
AcDbEntity
  8
0
  6
SLD-Solid
 62
     7
370
    25
100
AcDbCircle
 10
87.9267918086
 20
100.9075116736
 30
0.0
 40
1.500000000000014
  0
LINE
  5
2D6
330
1F
100
AcDbEntity
  8
0
  6
SLD-Solid
 62
     7
370
    25
100
AcDbLine
 10
85.4082399192
 20
119.7994913576
 30
0.0
 11
82.4749725868
 21
119.1702515331
 31
0.0
  0
LINE
  5
2D7
330
1F
100
AcDbEntity
  8
0
  6
SLD-Solid
 62
     7
370
    25
100
AcDbLine
 10
85.4082399192
 20
119.7994913576
 30
0.0
 11
86.6052017124
 21
116.8528369954
 31
0.0
  0
ARC
  5
2D8
330
1F
100
AcDbEntity
  8
0
  6
SLD-Solid
 62
     7
370
    25
100
AcDbCircle
 10
87.9267918086
 20
100.9075116736
 30
0.0
 40
15.99999999999999
100
AcDbArc
 50
85.4770125187
 51
94.7379939924
  0
LINE
  5
2D9
330
1F
100
AcDbEntity
  8
0
  6
SLD-Solid
 62
     7
370
    25
100
AcDbLine
 10
90.3744326264
 20
119.8088093652
 30
0.0
 11
89.1885367662
 21
116.8576840759
 31
0.0
  0
LINE
  5
2DA
330
1F
100
AcDbEntity
  8
0
  6
SLD-Solid
 62
     7
370
    25
100
AcDbLine
 10
93.3100405679
 20
119.1905812407
 30
0.0
 11
90.3744326264
 21
119.8088093652
 31
0.0
  0
LINE
  5
2DB
330
1F
100
AcDbEntity
  8
0
  6
SLD-Solid
 62
     7
370
    25
100
AcDbLine
 10
93.3100405679
 20
119.1905812407
 30
0.0
 11
93.2050072735
 21
116.0118303112
 31
0.0
  0
ARC
  5
2DC
330
1F
100
AcDbEntity
  8
0
  6
SLD-Solid
 62
     7
370
    25
100
AcDbCircle
 10
87.9267918086
 20
100.9075116736
 30
0.0
 40
16.00000000000036
100
AcDbArc
 50
61.4770125187
 51
70.7379939924
  0
LINE
  5
2DD
330
1F
100
AcDbEntity
  8
0
  6
SLD-Solid
 62
     7
370
    25
100
AcDbLine
 10
97.8506733325
 20
117.1791611137
 30
0.0
 11
95.5669727627
 21
114.9655213119
 31
0.0
  0
LINE
  5
2DE
330
1F
100
AcDbEntity
  8
0
  6
SLD-Solid
 62
     7
370
    25
100
AcDbLine
 10
100.2810286009
 20
115.4203622992
 30
0.0
 11
97.8506733325
 21
117.1791611137
 31
0.0
  0
LINE
  5
2DF
330
1F
100
AcDbEntity
  8
0
  6
SLD-Solid
 62
     7
370
    25
100
AcDbLine
 10
100.2810286009
 20
115.4203622992
 30
0.0
 11
98.8921614296
 21
112.5591497162
 31
0.0
  0
ARC
  5
2E0
330
1F
100
AcDbEntity
  8
0
  6
SLD-Solid
 62
     7
370
    25
100
AcDbCircle
 10
87.9267918086
 20
100.9075116736
 30
0.0
 40
16.00000000000067
100
AcDbArc
 50
37.4770125187
 51
46.7379939924
  0
LINE
  5
2E1
330
1F
100
AcDbEntity
  8
0
  6
SLD-Solid
 62
     7
370
    25
100
AcDbLine
 10
103.6109847675
 20
111.7359968506
 30
0.0
 11
100.6243520634
 21
110.6426009684
 31
0.0
  0
LINE
  5
2E2
330
1F
100
AcDbEntity
  8
0
  6
SLD-Solid
 62
     7
370
    25
100
AcDbLine
 10
105.1158568577
 20
109.1407396394
 30
0.0
 11
103.6109847675
 21
111.7359968506
 31
0.0
  0
LINE
  5
2E3
330
1F
100
AcDbEntity
  8
0
  6
SLD-Solid
 62
     7
370
    25
100
AcDbLine
 10
105.1158568577
 20
109.1407396394
 30
0.0
 11
102.683303561
 21
107.0917950518
 31
0.0
  0
ARC
  5
2E4
330
1F
100
AcDbEntity
  8
0
  6
SLD-Solid
 62
     7
370
    25
100
AcDbCircle
 10
87.9267918086
 20
100.9075116736
 30
0.0
 40
16.00000000000086
100
AcDbArc
 50
13.4770125187
 51
22.7379939924
  0
LINE
  5
2E5
330
1F
100
AcDbEntity
  8
0
  6
SLD-Solid
 62
     7
370
    25
100
AcDbLine
 10
106.6593567535
 20
104.4204891267
 30
0.0
 11
103.4862078423
 21
104.6363952453
 31
0.0
  0
LINE
  5
2E6
330
1F
100
AcDbEntity
  8
0
  6
SLD-Solid
 62
     7
370
    25
100
AcDbLine
 10
106.9785396099
 20
101.4375170678
 30
0.0
 11
106.6593567535
 21
104.4204891267
 31
0.0
  0
LINE
  5
2E7
330
1F
100
AcDbEntity
  8
0
  6
SLD-Solid
 62
     7
370
    25
100
AcDbLine
 10
106.9785396099
 20
101.4375170678
 30
0.0
 11
103.9229107517
 21
100.5551216088
 31
0.0
  0
ARC
  5
2E8
330
1F
100
AcDbEntity
  8
0
  6
SLD-Solid
 62
     7
370
    25
100
AcDbCircle
 10
87.9267918086
 20
100.9075116736
 30
0.0
 40
16.0000000000009
100
AcDbArc
 50
349.4770125187
 51
358.7379939924
  0
LINE
  5
2E9
330
1F
100
AcDbEntity
  8
0
  6
SLD-Solid
 62
     7
370
    25
100
AcDbLine
 10
106.4686980805
 20
96.4975556868
 30
0.0
 11
103.6576992361
 21
97.9854316769
 31
0.0
  0
LINE
  5
2EA
330
1F
100
AcDbEntity
  8
0
  6
SLD-Solid
 62
     7
370
    25
100
AcDbLine
 10
105.7939345039
 20
94.4075116736
 30
0.0
 11
106.4686980805
 21
96.4975556868
 31
0.0
  0
ARC
  5
2EB
330
1F
100
AcDbEntity
  8
0
  6
SLD-Solid
 62
     7
370
    25
100
AcDbCircle
 10
87.9267918086
 20
100.9075116736
 30
0.0
 40
16.0
100
AcDbArc
 50
196.3348227807
 51
203.9694823178
  0
ARC
  5
2EC
330
1F
100
AcDbEntity
  8
0
  6
SLD-Solid
 62
     7
370
    25
100
AcDbCircle
 10
87.9267918086
 20
100.9075116736
 30
0.0
 40
15.99999999999999
100
AcDbArc
 50
109.4770125187
 51
163.6651772193
  0
CIRCLE
  5
2ED
330
1F
100
AcDbEntity
  8
0
  6
SLD-Solid
 62
     7
370
    25
100
AcDbCircle
 10
12.7358641722
 20
151.6318663249
 30
0.0
 40
1.099999999999994
  0
CIRCLE
  5
2EE
330
1F
100
AcDbEntity
  8
0
  6
SLD-Solid
 62
     7
370
    25
100
AcDbCircle
 10
19.8358641722
 20
144.0325242481
 30
0.0
 40
1.099999999999994
  0
LINE
  5
2EF
330
1F
100
AcDbEntity
  8
0
  6
SLD-Solid
 62
     7
370
    25
100
AcDbLine
 10
25.9358641722
 20
148.5325242481
 30
0.0
 11
22.9358641722
 21
148.5325242481
 31
0.0
  0
LINE
  5
2F0
330
1F
100
AcDbEntity
  8
0
  6
SLD-Solid
 62
     7
370
    25
100
AcDbLine
 10
25.9358641722
 20
140.5325242481
 30
0.0
 11
25.9358641722
 21
148.5325242481
 31
0.0
  0
LINE
  5
2F1
330
1F
100
AcDbEntity
  8
0
  6
SLD-Solid
 62
     7
370
    25
100
AcDbLine
 10
22.9358641722
 20
140.5325242481
 30
0.0
 11
25.9358641722
 21
140.5325242481
 31
0.0
  0
LINE
  5
2F2
330
1F
100
AcDbEntity
  8
0
  6
SLD-Solid
 62
     7
370
    25
100
AcDbLine
 10
22.9358641722
 20
134.5325242481
 30
0.0
 11
22.9358641722
 21
140.5325242481
 31
0.0
  0
LINE
  5
2F3
330
1F
100
AcDbEntity
  8
0
  6
SLD-Solid
 62
     7
370
    25
100
AcDbLine
 10
19.3691137529
 20
134.5325242481
 30
0.0
 11
22.9358641722
 21
134.5325242481
 31
0.0
  0
ARC
  5
2F4
330
1F
100
AcDbEntity
  8
0
  6
SLD-Solid
 62
     7
370
    25
100
AcDbCircle
 10
12.7358641722
 20
124.5325242481
 30
0.0
 40
11.99999999999999
100
AcDbArc
 50
56.4426902381
 51
123.5573097619
  0
LINE
  5
2F5
330
1F
100
AcDbEntity
  8
0
  6
SLD-Solid
 62
     7
370
    25
100
AcDbLine
 10
2.5358641722
 20
134.5325242481
 30
0.0
 11
6.1026145915
 21
134.5325242481
 31
0.0
  0
LINE
  5
2F6
330
1F
100
AcDbEntity
  8
0
  6
SLD-Solid
 62
     7
370
    25
100
AcDbLine
 10
2.5358641722
 20
154.5325242481
 30
0.0
 11
2.5358641722
 21
134.5325242481
 31
0.0
  0
LINE
  5
2F7
330
1F
100
AcDbEntity
  8
0
  6
SLD-Solid
 62
     7
370
    25
100
AcDbLine
 10
22.9358641722
 20
154.5325242481
 30
0.0
 11
2.5358641722
 21
154.5325242481
 31
0.0
  0
LINE
  5
2F8
330
1F
100
AcDbEntity
  8
0
  6
SLD-Solid
 62
     7
370
    25
100
AcDbLine
 10
22.9358641722
 20
148.5325242481
 30
0.0
 11
22.9358641722
 21
154.5325242481
 31
0.0
  0
CIRCLE
  5
2F9
330
1F
100
AcDbEntity
  8
0
  6
SLD-Solid
 62
     7
370
    25
100
AcDbCircle
 10
5.6358641722
 20
144.0325242481
 30
0.0
 40
1.099999999999994
  0
CIRCLE
  5
2FA
330
1F
100
AcDbEntity
  8
0
  6
SLD-Solid
 62
     7
370
    25
100
AcDbCircle
 10
49.7693325573
 20
136.1957339847
 30
0.0
 40
1.099999999999994
  0
CIRCLE
  5
2FB
330
1F
100
AcDbEntity
  8
0
  6
SLD-Solid
 62
     7
370
    25
100
AcDbCircle
 10
49.7693325573
 20
151.5957339847
 30
0.0
 40
1.100000000000023
  0
LINE
  5
2FC
330
1F
100
AcDbEntity
  8
0
  6
SLD-Solid
 62
     7
370
    25
100
AcDbLine
 10
55.0693325573
 20
147.8957339847
 30
0.0
 11
52.0693325573
 21
147.8957339847
 31
0.0
  0
LINE
  5
2FD
330
1F
100
AcDbEntity
  8
0
  6
SLD-Solid
 62
     7
370
    25
100
AcDbLine
 10
55.0693325573
 20
139.8957339847
 30
0.0
 11
55.0693325573
 21
147.8957339847
 31
0.0
  0
LINE
  5
2FE
330
1F
100
AcDbEntity
  8
0
  6
SLD-Solid
 62
     7
370
    25
100
AcDbLine
 10
52.0693325573
 20
139.8957339847
 30
0.0
 11
55.0693325573
 21
139.8957339847
 31
0.0
  0
LINE
  5
2FF
330
1F
100
AcDbEntity
  8
0
  6
SLD-Solid
 62
     7
370
    25
100
AcDbLine
 10
52.0693325573
 20
133.8957339847
 30
0.0
 11
52.0693325573
 21
139.8957339847
 31
0.0
  0
LINE
  5
300
330
1F
100
AcDbEntity
  8
0
  6
SLD-Solid
 62
     7
370
    25
100
AcDbLine
 10
31.6693325573
 20
133.8957339847
 30
0.0
 11
52.0693325573
 21
133.8957339847
 31
0.0
  0
LINE
  5
301
330
1F
100
AcDbEntity
  8
0
  6
SLD-Solid
 62
     7
370
    25
100
AcDbLine
 10
31.6693325573
 20
153.8957339847
 30
0.0
 11
31.6693325573
 21
133.8957339847
 31
0.0
  0
LINE
  5
302
330
1F
100
AcDbEntity
  8
0
  6
SLD-Solid
 62
     7
370
    25
100
AcDbLine
 10
35.2360829766
 20
153.8957339847
 30
0.0
 11
31.6693325573
 21
153.8957339847
 31
0.0
  0
ARC
  5
303
330
1F
100
AcDbEntity
  8
0
  6
SLD-Solid
 62
     7
370
    25
100
AcDbCircle
 10
41.8693325573
 20
163.8957339847
 30
0.0
 40
11.99999999999997
100
AcDbArc
 50
236.4426902381
 51
303.5573097619
  0
LINE
  5
304
330
1F
100
AcDbEntity
  8
0
  6
SLD-Solid
 62
     7
370
    25
100
AcDbLine
 10
52.0693325573
 20
153.8957339847
 30
0.0
 11
48.5025821381
 21
153.8957339847
 31
0.0
  0
LINE
  5
305
330
1F
100
AcDbEntity
  8
0
  6
SLD-Solid
 62
     7
370
    25
100
AcDbLine
 10
52.0693325573
 20
147.8957339847
 30
0.0
 11
52.0693325573
 21
153.8957339847
 31
0.0
  0
CIRCLE
  5
306
330
1F
100
AcDbEntity
  8
0
  6
SLD-Solid
 62
     7
370
    25
100
AcDbCircle
 10
33.9693325573
 20
151.5957339847
 30
0.0
 40
1.100000000000023
  0
CIRCLE
  5
307
330
1F
100
AcDbEntity
  8
0
  6
SLD-Solid
 62
     7
370
    25
100
AcDbCircle
 10
33.9693325573
 20
136.1957339847
 30
0.0
 40
1.099999999999994
  0
CIRCLE
  5
308
330
1F
100
AcDbEntity
  8
0
  6
SLD-Solid
 62
     7
370
    25
100
AcDbCircle
 10
247.5535923347
 20
182.9750591249
 30
0.0
 40
0.600000000000307
  0
CIRCLE
  5
309
330
1F
100
AcDbEntity
  8
0
  6
SLD-Solid
 62
     7
370
    25
100
AcDbCircle
 10
261.5535923347
 20
182.9750591249
 30
0.0
 40
0.6000000000001648
  0
LINE
  5
30A
330
1F
100
AcDbEntity
  8
0
  6
SLD-Solid
 62
     7
370
    25
100
AcDbLine
 10
294.5535923347
 20
192.7250591249
 30
0.0
 11
254.5535923347
 21
192.7250591249
 31
0.0
  0
LINE
  5
30B
330
1F
100
AcDbEntity
  8
0
  6
SLD-Solid
 62
     7
370
    25
100
AcDbLine
 10
294.5535923347
 20
189.7250591249
 30
0.0
 11
294.5535923347
 21
192.7250591249
 31
0.0
  0
LINE
  5
30C
330
1F
100
AcDbEntity
  8
0
  6
SLD-Solid
 62
     7
370
    25
100
AcDbLine
 10
299.5535923347
 20
189.7250591249
 30
0.0
 11
294.5535923347
 21
189.7250591249
 31
0.0
  0
LINE
  5
30D
330
1F
100
AcDbEntity
  8
0
  6
SLD-Solid
 62
     7
370
    25
100
AcDbLine
 10
299.5535923347
 20
192.7250591249
 30
0.0
 11
299.5535923347
 21
189.7250591249
 31
0.0
  0
LINE
  5
30E
330
1F
100
AcDbEntity
  8
0
  6
SLD-Solid
 62
     7
370
    25
100
AcDbLine
 10
301.5535923347
 20
192.7250591249
 30
0.0
 11
299.5535923347
 21
192.7250591249
 31
0.0
  0
LINE
  5
30F
330
1F
100
AcDbEntity
  8
0
  6
SLD-Solid
 62
     7
370
    25
100
AcDbLine
 10
301.5535923347
 20
173.2250591249
 30
0.0
 11
301.5535923347
 21
192.7250591249
 31
0.0
  0
LINE
  5
310
330
1F
100
AcDbEntity
  8
0
  6
SLD-Solid
 62
     7
370
    25
100
AcDbLine
 10
299.5535923347
 20
173.2250591249
 30
0.0
 11
301.5535923347
 21
173.2250591249
 31
0.0
  0
LINE
  5
311
330
1F
100
AcDbEntity
  8
0
  6
SLD-Solid
 62
     7
370
    25
100
AcDbLine
 10
299.5535923347
 20
176.2250591249
 30
0.0
 11
299.5535923347
 21
173.2250591249
 31
0.0
  0
LINE
  5
312
330
1F
100
AcDbEntity
  8
0
  6
SLD-Solid
 62
     7
370
    25
100
AcDbLine
 10
294.5535923347
 20
176.2250591249
 30
0.0
 11
299.5535923347
 21
176.2250591249
 31
0.0
  0
LINE
  5
313
330
1F
100
AcDbEntity
  8
0
  6
SLD-Solid
 62
     7
370
    25
100
AcDbLine
 10
294.5535923347
 20
173.2250591249
 30
0.0
 11
294.5535923347
 21
176.2250591249
 31
0.0
  0
LINE
  5
314
330
1F
100
AcDbEntity
  8
0
  6
SLD-Solid
 62
     7
370
    25
100
AcDbLine
 10
254.5535923347
 20
173.2250591249
 30
0.0
 11
294.5535923347
 21
173.2250591249
 31
0.0
  0
CIRCLE
  5
315
330
1F
100
AcDbEntity
  8
0
  6
SLD-Solid
 62
     7
370
    25
100
AcDbCircle
 10
254.5535923347
 20
189.9750591249
 30
0.0
 40
0.6000000000000227
  0
CIRCLE
  5
316
330
1F
100
AcDbEntity
  8
0
  6
SLD-Solid
 62
     7
370
    25
100
AcDbCircle
 10
254.5535923347
 20
175.9750591249
 30
0.0
 40
0.6000000000003922
  0
ARC
  5
317
330
1F
100
AcDbEntity
  8
0
  6
SLD-Solid
 62
     7
370
    25
100
AcDbCircle
 10
254.5535923347
 20
182.9750591249
 30
0.0
 40
9.750000000000028
100
AcDbArc
 50
90.0
 51
270.0
  0
CIRCLE
  5
318
330
1F
100
AcDbEntity
  8
0
  6
SLD-Solid
 62
     7
370
    25
100
AcDbCircle
 10
112.043823777
 20
36.9998561978
 30
0.0
 40
0.6000000000003212
  0
CIRCLE
  5
319
330
1F
100
AcDbEntity
  8
0
  6
SLD-Solid
 62
     7
370
    25
100
AcDbCircle
 10
112.043823777
 20
50.9998561978
 30
0.0
 40
0.6000000000001506
  0
LINE
  5
31A
330
1F
100
AcDbEntity
  8
0
  6
SLD-Solid
 62
     7
370
    25
100
AcDbLine
 10
102.293823777
 20
83.9998561978
 30
0.0
 11
102.293823777
 21
43.9998561978
 31
0.0
  0
LINE
  5
31B
330
1F
100
AcDbEntity
  8
0
  6
SLD-Solid
 62
     7
370
    25
100
AcDbLine
 10
105.293823777
 20
83.9998561978
 30
0.0
 11
102.293823777
 21
83.9998561978
 31
0.0
  0
LINE
  5
31C
330
1F
100
AcDbEntity
  8
0
  6
SLD-Solid
 62
     7
370
    25
100
AcDbLine
 10
105.293823777
 20
88.9998561978
 30
0.0
 11
105.293823777
 21
83.9998561978
 31
0.0
  0
LINE
  5
31D
330
1F
100
AcDbEntity
  8
0
  6
SLD-Solid
 62
     7
370
    25
100
AcDbLine
 10
102.293823777
 20
88.9998561978
 30
0.0
 11
105.293823777
 21
88.9998561978
 31
0.0
  0
LINE
  5
31E
330
1F
100
AcDbEntity
  8
0
  6
SLD-Solid
 62
     7
370
    25
100
AcDbLine
 10
102.293823777
 20
90.9998561978
 30
0.0
 11
102.293823777
 21
88.9998561978
 31
0.0
  0
LINE
  5
31F
330
1F
100
AcDbEntity
  8
0
  6
SLD-Solid
 62
     7
370
    25
100
AcDbLine
 10
121.793823777
 20
90.9998561978
 30
0.0
 11
102.293823777
 21
90.9998561978
 31
0.0
  0
LINE
  5
320
330
1F
100
AcDbEntity
  8
0
  6
SLD-Solid
 62
     7
370
    25
100
AcDbLine
 10
121.793823777
 20
88.9998561978
 30
0.0
 11
121.793823777
 21
90.9998561978
 31
0.0
  0
LINE
  5
321
330
1F
100
AcDbEntity
  8
0
  6
SLD-Solid
 62
     7
370
    25
100
AcDbLine
 10
118.793823777
 20
88.9998561978
 30
0.0
 11
121.793823777
 21
88.9998561978
 31
0.0
  0
LINE
  5
322
330
1F
100
AcDbEntity
  8
0
  6
SLD-Solid
 62
     7
370
    25
100
AcDbLine
 10
118.793823777
 20
83.9998561978
 30
0.0
 11
118.793823777
 21
88.9998561978
 31
0.0
  0
LINE
  5
323
330
1F
100
AcDbEntity
  8
0
  6
SLD-Solid
 62
     7
370
    25
100
AcDbLine
 10
121.793823777
 20
83.9998561978
 30
0.0
 11
118.793823777
 21
83.9998561978
 31
0.0
  0
LINE
  5
324
330
1F
100
AcDbEntity
  8
0
  6
SLD-Solid
 62
     7
370
    25
100
AcDbLine
 10
121.793823777
 20
43.9998561978
 30
0.0
 11
121.793823777
 21
83.9998561978
 31
0.0
  0
CIRCLE
  5
325
330
1F
100
AcDbEntity
  8
0
  6
SLD-Solid
 62
     7
370
    25
100
AcDbCircle
 10
105.043823777
 20
43.9998561978
 30
0.0
 40
0.6000000000000085
  0
CIRCLE
  5
326
330
1F
100
AcDbEntity
  8
0
  6
SLD-Solid
 62
     7
370
    25
100
AcDbCircle
 10
119.043823777
 20
43.9998561978
 30
0.0
 40
0.6000000000004349
  0
ARC
  5
327
330
1F
100
AcDbEntity
  8
0
  6
SLD-Solid
 62
     7
370
    25
100
AcDbCircle
 10
112.043823777
 20
43.9998561978
 30
0.0
 40
9.75
100
AcDbArc
 50
180.0
 51
0.0
  0
CIRCLE
  5
328
330
1F
100
AcDbEntity
  8
0
  6
SLD-Solid
 62
     7
370
    25
100
AcDbCircle
 10
40.961585183
 20
66.1856655898
 30
0.0
 40
1.5
  0
CIRCLE
  5
329
330
1F
100
AcDbEntity
  8
0
  6
SLD-Solid
 62
     7
370
    25
100
AcDbCircle
 10
8.461585183
 20
58.6856655898
 30
0.0
 40
1.5
  0
CIRCLE
  5
32A
330
1F
100
AcDbEntity
  8
0
  6
SLD-Solid
 62
     7
370
    25
100
AcDbCircle
 10
23.961585183
 20
31.6856655898
 30
0.0
 40
1.5
  0
LINE
  5
32B
330
1F
100
AcDbEntity
  8
0
  6
SLD-Solid
 62
     7
370
    25
100
AcDbLine
 10
37.961585183
 20
56.6856655898
 30
0.0
 11
40.961585183
 21
56.6856655898
 31
0.0
  0
LINE
  5
32C
330
1F
100
AcDbEntity
  8
0
  6
SLD-Solid
 62
     7
370
    25
100
AcDbLine
 10
40.961585183
 20
56.6856655898
 30
0.0
 11
40.961585183
 21
60.6856655898
 31
0.0
  0
LINE
  5
32D
330
1F
100
AcDbEntity
  8
0
  6
SLD-Solid
 62
     7
370
    25
100
AcDbLine
 10
40.961585183
 20
60.6856655898
 30
0.0
 11
37.961585183
 21
60.6856655898
 31
0.0
  0
LINE
  5
32E
330
1F
100
AcDbEntity
  8
0
  6
SLD-Solid
 62
     7
370
    25
100
AcDbLine
 10
37.961585183
 20
60.6856655898
 30
0.0
 11
37.961585183
 21
56.6856655898
 31
0.0
  0
LINE
  5
32F
330
1F
100
AcDbEntity
  8
0
  6
SLD-Solid
 62
     7
370
    25
100
AcDbLine
 10
10.961585183
 20
88.5606655898
 30
0.0
 11
8.961585183
 21
88.5606655898
 31
0.0
  0
LINE
  5
330
330
1F
100
AcDbEntity
  8
0
  6
SLD-Solid
 62
     7
370
    25
100
AcDbLine
 10
8.961585183
 20
88.5606655898
 30
0.0
 11
8.961585183
 21
85.5606655898
 31
0.0
  0
LINE
  5
331
330
1F
100
AcDbEntity
  8
0
  6
SLD-Solid
 62
     7
370
    25
100
AcDbLine
 10
8.961585183
 20
85.5606655898
 30
0.0
 11
10.961585183
 21
85.5606655898
 31
0.0
  0
LINE
  5
332
330
1F
100
AcDbEntity
  8
0
  6
SLD-Solid
 62
     7
370
    25
100
AcDbLine
 10
10.961585183
 20
85.5606655898
 30
0.0
 11
10.961585183
 21
88.5606655898
 31
0.0
  0
LINE
  5
333
330
1F
100
AcDbEntity
  8
0
  6
SLD-Solid
 62
     7
370
    25
100
AcDbLine
 10
33.961585183
 20
90.1856655898
 30
0.0
 11
3.961585183
 21
90.1856655898
 31
0.0
  0
ARC
  5
334
330
1F
100
AcDbEntity
  8
0
  6
SLD-Solid
 62
     7
370
    25
100
AcDbCircle
 10
33.961585183
 20
80.1856655898
 30
0.0
 40
10.00000000000001
100
AcDbArc
 50
0.0
 51
90.0
  0
LINE
  5
335
330
1F
100
AcDbEntity
  8
0
  6
SLD-Solid
 62
     7
370
    25
100
AcDbLine
 10
43.961585183
 20
37.1856655898
 30
0.0
 11
43.961585183
 21
80.1856655898
 31
0.0
  0
ARC
  5
336
330
1F
100
AcDbEntity
  8
0
  6
SLD-Solid
 62
     7
370
    25
100
AcDbCircle
 10
33.961585183
 20
37.1856655898
 30
0.0
 40
10.0
100
AcDbArc
 50
270.0
 51
0.0
  0
LINE
  5
337
330
1F
100
AcDbEntity
  8
0
  6
SLD-Solid
 62
     7
370
    25
100
AcDbLine
 10
3.961585183
 20
27.1856655898
 30
0.0
 11
33.961585183
 21
27.1856655898
 31
0.0
  0
LINE
  5
338
330
1F
100
AcDbEntity
  8
0
  6
SLD-Solid
 62
     7
370
    25
100
AcDbLine
 10
3.961585183
 20
90.1856655898
 30
0.0
 11
3.961585183
 21
27.1856655898
 31
0.0
  0
LINE
  5
339
330
1F
100
AcDbEntity
  8
0
  6
SLD-Solid
 62
     7
370
    25
100
AcDbLine
 10
10.961585183
 20
28.8106655898
 30
0.0
 11
10.961585183
 21
31.8106655898
 31
0.0
  0
LINE
  5
33A
330
1F
100
AcDbEntity
  8
0
  6
SLD-Solid
 62
     7
370
    25
100
AcDbLine
 10
10.961585183
 20
31.8106655898
 30
0.0
 11
8.961585183
 21
31.8106655898
 31
0.0
  0
LINE
  5
33B
330
1F
100
AcDbEntity
  8
0
  6
SLD-Solid
 62
     7
370
    25
100
AcDbLine
 10
8.961585183
 20
31.8106655898
 30
0.0
 11
8.961585183
 21
28.8106655898
 31
0.0
  0
LINE
  5
33C
330
1F
100
AcDbEntity
  8
0
  6
SLD-Solid
 62
     7
370
    25
100
AcDbLine
 10
8.961585183
 20
28.8106655898
 30
0.0
 11
10.961585183
 21
28.8106655898
 31
0.0
  0
CIRCLE
  5
33D
330
1F
100
AcDbEntity
  8
0
  6
SLD-Solid
 62
     7
370
    25
100
AcDbCircle
 10
23.961585183
 20
76.1856655898
 30
0.0
 40
1.5
  0
CIRCLE
  5
33E
330
1F
100
AcDbEntity
  8
0
  6
SLD-Solid
 62
     7
370
    25
100
AcDbCircle
 10
23.961585183
 20
41.1856655898
 30
0.0
 40
1.5
  0
CIRCLE
  5
33F
330
1F
100
AcDbEntity
  8
0
  6
SLD-Solid
 62
     7
370
    25
100
AcDbCircle
 10
84.6752348872
 20
66.2404715163
 30
0.0
 40
1.5
  0
CIRCLE
  5
340
330
1F
100
AcDbEntity
  8
0
  6
SLD-Solid
 62
     7
370
    25
100
AcDbCircle
 10
67.6752348872
 20
31.7404715163
 30
0.0
 40
1.500000000000004
  0
CIRCLE
  5
341
330
1F
100
AcDbEntity
  8
0
  6
SLD-Solid
 62
     7
370
    25
100
AcDbCircle
 10
52.1752348872
 20
58.7404715163
 30
0.0
 40
1.5
  0
LINE
  5
342
330
1F
100
AcDbEntity
  8
0
  6
SLD-Solid
 62
     7
370
    25
100
AcDbLine
 10
81.6752348872
 20
56.7404715163
 30
0.0
 11
84.6752348872
 21
56.7404715163
 31
0.0
  0
LINE
  5
343
330
1F
100
AcDbEntity
  8
0
  6
SLD-Solid
 62
     7
370
    25
100
AcDbLine
 10
84.6752348872
 20
56.7404715163
 30
0.0
 11
84.6752348872
 21
60.7404715163
 31
0.0
  0
LINE
  5
344
330
1F
100
AcDbEntity
  8
0
  6
SLD-Solid
 62
     7
370
    25
100
AcDbLine
 10
84.6752348872
 20
60.7404715163
 30
0.0
 11
81.6752348872
 21
60.7404715163
 31
0.0
  0
LINE
  5
345
330
1F
100
AcDbEntity
  8
0
  6
SLD-Solid
 62
     7
370
    25
100
AcDbLine
 10
81.6752348872
 20
60.7404715163
 30
0.0
 11
81.6752348872
 21
56.7404715163
 31
0.0
  0
CIRCLE
  5
346
330
1F
100
AcDbEntity
  8
0
  6
SLD-Solid
 62
     7
370
    25
100
AcDbCircle
 10
67.6752348872
 20
56.7404715163
 30
0.0
 40
1.249999999999993
  0
CIRCLE
  5
347
330
1F
100
AcDbEntity
  8
0
  6
SLD-Solid
 62
     7
370
    25
100
AcDbCircle
 10
67.6752348872
 20
84.7404715163
 30
0.0
 40
1.25
  0
CIRCLE
  5
348
330
1F
100
AcDbEntity
  8
0
  6
SLD-Solid
 62
     7
370
    25
100
AcDbCircle
 10
67.6752348872
 20
41.2404715163
 30
0.0
 40
1.5
  0
LINE
  5
349
330
1F
100
AcDbEntity
  8
0
  6
SLD-Solid
 62
     7
370
    25
100
AcDbLine
 10
54.6752348872
 20
28.8654715163
 30
0.0
 11
54.6752348872
 21
31.8654715163
 31
0.0
  0
LINE
  5
34A
330
1F
100
AcDbEntity
  8
0
  6
SLD-Solid
 62
     7
370
    25
100
AcDbLine
 10
54.6752348872
 20
31.8654715163
 30
0.0
 11
52.6752348872
 21
31.8654715163
 31
0.0
  0
LINE
  5
34B
330
1F
100
AcDbEntity
  8
0
  6
SLD-Solid
 62
     7
370
    25
100
AcDbLine
 10
52.6752348872
 20
31.8654715163
 30
0.0
 11
52.6752348872
 21
28.8654715163
 31
0.0
  0
LINE
  5
34C
330
1F
100
AcDbEntity
  8
0
  6
SLD-Solid
 62
     7
370
    25
100
AcDbLine
 10
52.6752348872
 20
28.8654715163
 30
0.0
 11
54.6752348872
 21
28.8654715163
 31
0.0
  0
LINE
  5
34D
330
1F
100
AcDbEntity
  8
0
  6
SLD-Solid
 62
     7
370
    25
100
AcDbLine
 10
77.6752348872
 20
90.2404715163
 30
0.0
 11
47.6752348872
 21
90.2404715163
 31
0.0
  0
ARC
  5
34E
330
1F
100
AcDbEntity
  8
0
  6
SLD-Solid
 62
     7
370
    25
100
AcDbCircle
 10
77.6752348872
 20
80.2404715163
 30
0.0
 40
10.0
100
AcDbArc
 50
0.0
 51
90.0
  0
LINE
  5
34F
330
1F
100
AcDbEntity
  8
0
  6
SLD-Solid
 62
     7
370
    25
100
AcDbLine
 10
87.6752348872
 20
37.2404715163
 30
0.0
 11
87.6752348872
 21
80.2404715163
 31
0.0
  0
ARC
  5
350
330
1F
100
AcDbEntity
  8
0
  6
SLD-Solid
 62
     7
370
    25
100
AcDbCircle
 10
77.6752348872
 20
37.2404715163
 30
0.0
 40
10.0
100
AcDbArc
 50
270.0
 51
0.0
  0
LINE
  5
351
330
1F
100
AcDbEntity
  8
0
  6
SLD-Solid
 62
     7
370
    25
100
AcDbLine
 10
47.6752348872
 20
27.2404715163
 30
0.0
 11
77.6752348872
 21
27.2404715163
 31
0.0
  0
LINE
  5
352
330
1F
100
AcDbEntity
  8
0
  6
SLD-Solid
 62
     7
370
    25
100
AcDbLine
 10
47.6752348872
 20
90.2404715163
 30
0.0
 11
47.6752348872
 21
27.2404715163
 31
0.0
  0
LINE
  5
353
330
1F
100
AcDbEntity
  8
0
  6
SLD-Solid
 62
     7
370
    25
100
AcDbLine
 10
54.6752348872
 20
88.6154715163
 30
0.0
 11
52.6752348872
 21
88.6154715163
 31
0.0
  0
LINE
  5
354
330
1F
100
AcDbEntity
  8
0
  6
SLD-Solid
 62
     7
370
    25
100
AcDbLine
 10
52.6752348872
 20
88.6154715163
 30
0.0
 11
52.6752348872
 21
85.6154715163
 31
0.0
  0
LINE
  5
355
330
1F
100
AcDbEntity
  8
0
  6
SLD-Solid
 62
     7
370
    25
100
AcDbLine
 10
52.6752348872
 20
85.6154715163
 30
0.0
 11
54.6752348872
 21
85.6154715163
 31
0.0
  0
LINE
  5
356
330
1F
100
AcDbEntity
  8
0
  6
SLD-Solid
 62
     7
370
    25
100
AcDbLine
 10
54.6752348872
 20
85.6154715163
 30
0.0
 11
54.6752348872
 21
88.6154715163
 31
0.0
  0
LINE
  5
357
330
1F
100
AcDbEntity
  8
0
  6
SLD-Solid
 62
     7
370
    25
100
AcDbLine
 10
61.6752348872
 20
59.2404715163
 30
0.0
 11
73.6752348872
 21
59.2404715163
 31
0.0
  0
LINE
  5
358
330
1F
100
AcDbEntity
  8
0
  6
SLD-Solid
 62
     7
370
    25
100
AcDbLine
 10
73.6752348872
 20
59.2404715163
 30
0.0
 11
73.6752348872
 21
82.2404715163
 31
0.0
  0
LINE
  5
359
330
1F
100
AcDbEntity
  8
0
  6
SLD-Solid
 62
     7
370
    25
100
AcDbLine
 10
73.6752348872
 20
82.2404715163
 30
0.0
 11
61.6752348872
 21
82.2404715163
 31
0.0
  0
LINE
  5
35A
330
1F
100
AcDbEntity
  8
0
  6
SLD-Solid
 62
     7
370
    25
100
AcDbLine
 10
61.6752348872
 20
82.2404715163
 30
0.0
 11
61.6752348872
 21
59.2404715163
 31
0.0
  0
LINE
  5
35B
330
1F
100
AcDbEntity
  8
0
  6
SLD-Solid
 62
     7
370
    25
100
AcDbLine
 10
152.9022876075
 20
138.1112805034
 30
0.0
 11
152.9022876075
 21
151.6112805034
 31
0.0
  0
LINE
  5
35C
330
1F
100
AcDbEntity
  8
0
  6
SLD-Solid
 62
     7
370
    25
100
AcDbLine
 10
152.9022876075
 20
151.6112805034
 30
0.0
 11
154.9022876075
 21
151.6112805034
 31
0.0
  0
LINE
  5
35D
330
1F
100
AcDbEntity
  8
0
  6
SLD-Solid
 62
     7
370
    25
100
AcDbLine
 10
154.9022876075
 20
151.6112805034
 30
0.0
 11
154.9022876075
 21
154.6112805034
 31
0.0
  0
LINE
  5
35E
330
1F
100
AcDbEntity
  8
0
  6
SLD-Solid
 62
     7
370
    25
100
AcDbLine
 10
154.9022876075
 20
154.6112805034
 30
0.0
 11
158.9022876075
 21
154.6112805034
 31
0.0
  0
LINE
  5
35F
330
1F
100
AcDbEntity
  8
0
  6
SLD-Solid
 62
     7
370
    25
100
AcDbLine
 10
158.9022876075
 20
151.6112805034
 30
0.0
 11
158.9022876075
 21
154.6112805034
 31
0.0
  0
LINE
  5
360
330
1F
100
AcDbEntity
  8
0
  6
SLD-Solid
 62
     7
370
    25
100
AcDbLine
 10
158.9022876075
 20
151.6112805034
 30
0.0
 11
160.9022876075
 21
151.6112805034
 31
0.0
  0
LINE
  5
361
330
1F
100
AcDbEntity
  8
0
  6
SLD-Solid
 62
     7
370
    25
100
AcDbLine
 10
160.9022876075
 20
138.1112805034
 30
0.0
 11
160.9022876075
 21
151.6112805034
 31
0.0
  0
LINE
  5
362
330
1F
100
AcDbEntity
  8
0
  6
SLD-Solid
 62
     7
370
    25
100
AcDbLine
 10
158.9022876075
 20
138.1112805034
 30
0.0
 11
160.9022876075
 21
138.1112805034
 31
0.0
  0
LINE
  5
363
330
1F
100
AcDbEntity
  8
0
  6
SLD-Solid
 62
     7
370
    25
100
AcDbLine
 10
158.9022876075
 20
138.1112805034
 30
0.0
 11
158.9022876075
 21
135.1112805034
 31
0.0
  0
LINE
  5
364
330
1F
100
AcDbEntity
  8
0
  6
SLD-Solid
 62
     7
370
    25
100
AcDbLine
 10
154.9022876075
 20
135.1112805034
 30
0.0
 11
158.9022876075
 21
135.1112805034
 31
0.0
  0
LINE
  5
365
330
1F
100
AcDbEntity
  8
0
  6
SLD-Solid
 62
     7
370
    25
100
AcDbLine
 10
154.9022876075
 20
138.1112805034
 30
0.0
 11
154.9022876075
 21
135.1112805034
 31
0.0
  0
LINE
  5
366
330
1F
100
AcDbEntity
  8
0
  6
SLD-Solid
 62
     7
370
    25
100
AcDbLine
 10
152.9022876075
 20
138.1112805034
 30
0.0
 11
154.9022876075
 21
138.1112805034
 31
0.0
  0
CIRCLE
  5
367
330
1F
100
AcDbEntity
  8
0
  6
SLD-Solid
 62
     7
370
    25
100
AcDbCircle
 10
318.3939142378
 20
74.0812073975
 30
0.0
 40
1.5
  0
ARC
  5
368
330
1F
100
AcDbEntity
  8
0
  6
SLD-Solid
 62
     7
370
    25
100
AcDbCircle
 10
328.8939142378
 20
69.9809561397
 30
0.0
 40
5.0
100
AcDbArc
 50
0.0
 51
73.7397952917
  0
LINE
  5
369
330
1F
100
AcDbEntity
  8
0
  6
SLD-Solid
 62
     7
370
    25
100
AcDbLine
 10
333.8939142378
 20
69.9809561397
 30
0.0
 11
333.8939142378
 21
69.0610845509
 31
0.0
  0
ARC
  5
36A
330
1F
100
AcDbEntity
  8
0
  6
SLD-Solid
 62
     7
370
    25
100
AcDbCircle
 10
335.8939142378
 20
93.9809561397
 30
0.0
 40
25.0
100
AcDbArc
 50
254.5339900466
 51
265.4114342642
  0
ARC
  5
36B
330
1F
100
AcDbEntity
  8
0
  6
SLD-Solid
 62
     7
370
    25
100
AcDbCircle
 10
327.8939142378
 20
65.0672915501
 30
0.0
 40
5.000000000000057
100
AcDbArc
 50
74.5339900466
 51
180.0
  0
LINE
  5
36C
330
1F
100
AcDbEntity
  8
0
  6
SLD-Solid
 62
     7
370
    25
100
AcDbLine
 10
322.8939142378
 20
65.0610845509
 30
0.0
 11
322.8939142378
 21
65.0672915501
 31
0.0
  0
LINE
  5
36D
330
1F
100
AcDbEntity
  8
0
  6
SLD-Solid
 62
     7
370
    25
100
AcDbLine
 10
322.8939142378
 20
65.0610845509
 30
0.0
 11
313.8939142378
 21
65.0610845509
 31
0.0
  0
LINE
  5
36E
330
1F
100
AcDbEntity
  8
0
  6
SLD-Solid
 62
     7
370
    25
100
AcDbLine
 10
313.8939142378
 20
65.0610845509
 30
0.0
 11
313.8939142378
 21
80.9042593091
 31
0.0
  0
ARC
  5
36F
330
1F
100
AcDbEntity
  8
0
  6
SLD-Solid
 62
     7
370
    25
100
AcDbCircle
 10
308.8939142378
 20
80.9042593091
 30
0.0
 40
5.00000000000002
100
AcDbArc
 50
0.0
 51
25.8419327632
  0
ARC
  5
370
330
1F
100
AcDbEntity
  8
0
  6
SLD-Solid
 62
     7
370
    25
100
AcDbCircle
 10
335.8939142378
 20
93.9809561397
 30
0.0
 40
25.00000000000001
100
AcDbArc
 50
94.5885657358
 51
205.8419327632
  0
LINE
  5
371
330
1F
100
AcDbEntity
  8
0
  6
SLD-Solid
 62
     7
370
    25
100
AcDbLine
 10
333.8939142378
 20
118.9008277284
 30
0.0
 11
333.8939142378
 21
117.9809561397
 31
0.0
  0
ARC
  5
372
330
1F
100
AcDbEntity
  8
0
  6
SLD-Solid
 62
     7
370
    25
100
AcDbCircle
 10
328.8939142378
 20
117.9809561397
 30
0.0
 40
5.0
100
AcDbArc
 50
286.2602047083
 51
0.0
  0
ARC
  5
373
330
1F
100
AcDbEntity
  8
0
  6
SLD-Solid
 62
     7
370
    25
100
AcDbCircle
 10
335.8939142378
 20
93.9809561397
 30
0.0
 40
20.00000000000001
100
AcDbArc
 50
106.2602047083
 51
253.7397952917
  0
CIRCLE
  5
374
330
1F
100
AcDbEntity
  8
0
  6
SLD-Solid
 62
     7
370
    25
100
AcDbCircle
 10
335.9100742329
 20
138.8193787534
 30
0.0
 40
1.5
  0
ARC
  5
375
330
1F
100
AcDbEntity
  8
0
  6
SLD-Solid
 62
     7
370
    25
100
AcDbCircle
 10
325.4100742329
 20
142.9196300112
 30
0.0
 40
5.0
100
AcDbArc
 50
180.0
 51
253.7397952917
  0
LINE
  5
376
330
1F
100
AcDbEntity
  8
0
  6
SLD-Solid
 62
     7
370
    25
100
AcDbLine
 10
320.4100742329
 20
142.9196300112
 30
0.0
 11
320.4100742329
 21
143.8395016
 31
0.0
  0
ARC
  5
377
330
1F
100
AcDbEntity
  8
0
  6
SLD-Solid
 62
     7
370
    25
100
AcDbCircle
 10
318.4100742329
 20
118.9196300112
 30
0.0
 40
25.00000000000002
100
AcDbArc
 50
74.5339900466
 51
85.4114342642
  0
ARC
  5
378
330
1F
100
AcDbEntity
  8
0
  6
SLD-Solid
 62
     7
370
    25
100
AcDbCircle
 10
326.4100742329
 20
147.8332946008
 30
0.0
 40
5.0
100
AcDbArc
 50
254.5339900466
 51
0.0
  0
LINE
  5
379
330
1F
100
AcDbEntity
  8
0
  6
SLD-Solid
 62
     7
370
    25
100
AcDbLine
 10
331.4100742329
 20
147.8395016
 30
0.0
 11
331.4100742329
 21
147.8332946008
 31
0.0
  0
LINE
  5
37A
330
1F
100
AcDbEntity
  8
0
  6
SLD-Solid
 62
     7
370
    25
100
AcDbLine
 10
331.4100742329
 20
147.8395016
 30
0.0
 11
340.4100742329
 21
147.8395016
 31
0.0
  0
LINE
  5
37B
330
1F
100
AcDbEntity
  8
0
  6
SLD-Solid
 62
     7
370
    25
100
AcDbLine
 10
340.4100742329
 20
147.8395016
 30
0.0
 11
340.4100742329
 21
131.9963268419
 31
0.0
  0
ARC
  5
37C
330
1F
100
AcDbEntity
  8
0
  6
SLD-Solid
 62
     7
370
    25
100
AcDbCircle
 10
345.4100742329
 20
131.9963268419
 30
0.0
 40
5.000000000000014
100
AcDbArc
 50
180.0
 51
205.8419327632
  0
ARC
  5
37D
330
1F
100
AcDbEntity
  8
0
  6
SLD-Solid
 62
     7
370
    25
100
AcDbCircle
 10
318.4100742329
 20
118.9196300112
 30
0.0
 40
25.0
100
AcDbArc
 50
274.5885657358
 51
25.8419327632
  0
LINE
  5
37E
330
1F
100
AcDbEntity
  8
0
  6
SLD-Solid
 62
     7
370
    25
100
AcDbLine
 10
320.4100742329
 20
93.9997584225
 30
0.0
 11
320.4100742329
 21
94.9196300112
 31
0.0
  0
ARC
  5
37F
330
1F
100
AcDbEntity
  8
0
  6
SLD-Solid
 62
     7
370
    25
100
AcDbCircle
 10
325.4100742329
 20
94.9196300112
 30
0.0
 40
5.000000000000004
100
AcDbArc
 50
106.2602047083
 51
180.0
  0
ARC
  5
380
330
1F
100
AcDbEntity
  8
0
  6
SLD-Solid
 62
     7
370
    25
100
AcDbCircle
 10
318.4100742329
 20
118.9196300112
 30
0.0
 40
20.00000000000002
100
AcDbArc
 50
286.2602047083
 51
73.7397952917
  0
CIRCLE
  5
381
330
1F
100
AcDbEntity
  8
0
  6
SLD-Solid
 62
     7
370
    25
100
AcDbCircle
 10
316.7999800565
 20
130.2815277304
 30
0.0
 40
1.5
  0
ARC
  5
382
330
1F
100
AcDbEntity
  8
0
  6
SLD-Solid
 62
     7
370
    25
100
AcDbCircle
 10
327.2999800565
 20
126.1812764725
 30
0.0
 40
5.0
100
AcDbArc
 50
0.0
 51
73.7397952917
  0
LINE
  5
383
330
1F
100
AcDbEntity
  8
0
  6
SLD-Solid
 62
     7
370
    25
100
AcDbLine
 10
332.2999800565
 20
126.1812764725
 30
0.0
 11
332.2999800565
 21
125.2614048838
 31
0.0
  0
ARC
  5
384
330
1F
100
AcDbEntity
  8
0
  6
SLD-Solid
 62
     7
370
    25
100
AcDbCircle
 10
334.2999800565
 20
150.1812764725
 30
0.0
 40
24.99999999999999
100
AcDbArc
 50
254.5339900466
 51
265.4114342642
  0
ARC
  5
385
330
1F
100
AcDbEntity
  8
0
  6
SLD-Solid
 62
     7
370
    25
100
AcDbCircle
 10
326.2999800565
 20
121.2676118829
 30
0.0
 40
5.000000000000004
100
AcDbArc
 50
74.5339900466
 51
180.0
  0
LINE
  5
386
330
1F
100
AcDbEntity
  8
0
  6
SLD-Solid
 62
     7
370
    25
100
AcDbLine
 10
321.2999800565
 20
121.2614048838
 30
0.0
 11
321.2999800565
 21
121.2676118829
 31
0.0
  0
LINE
  5
387
330
1F
100
AcDbEntity
  8
0
  6
SLD-Solid
 62
     7
370
    25
100
AcDbLine
 10
321.2999800565
 20
121.2614048838
 30
0.0
 11
312.2999800565
 21
121.2614048838
 31
0.0
  0
LINE
  5
388
330
1F
100
AcDbEntity
  8
0
  6
SLD-Solid
 62
     7
370
    25
100
AcDbLine
 10
312.2999800565
 20
121.2614048838
 30
0.0
 11
312.2999800565
 21
137.1045796419
 31
0.0
  0
ARC
  5
389
330
1F
100
AcDbEntity
  8
0
  6
SLD-Solid
 62
     7
370
    25
100
AcDbCircle
 10
307.2999800565
 20
137.1045796419
 30
0.0
 40
5.000000000000014
100
AcDbArc
 50
0.0
 51
25.8419327632
  0
ARC
  5
38A
330
1F
100
AcDbEntity
  8
0
  6
SLD-Solid
 62
     7
370
    25
100
AcDbCircle
 10
334.2999800565
 20
150.1812764725
 30
0.0
 40
25.00000000000003
100
AcDbArc
 50
94.5885657358
 51
205.8419327632
  0
LINE
  5
38B
330
1F
100
AcDbEntity
  8
0
  6
SLD-Solid
 62
     7
370
    25
100
AcDbLine
 10
332.2999800565
 20
175.1011480613
 30
0.0
 11
332.2999800565
 21
174.1812764725
 31
0.0
  0
ARC
  5
38C
330
1F
100
AcDbEntity
  8
0
  6
SLD-Solid
 62
     7
370
    25
100
AcDbCircle
 10
327.2999800565
 20
174.1812764725
 30
0.0
 40
5.0
100
AcDbArc
 50
286.2602047083
 51
0.0
  0
ARC
  5
38D
330
1F
100
AcDbEntity
  8
0
  6
SLD-Solid
 62
     7
370
    25
100
AcDbCircle
 10
334.2999800565
 20
150.1812764725
 30
0.0
 40
20.00000000000003
100
AcDbArc
 50
106.2602047083
 51
253.7397952917
  0
CIRCLE
  5
38E
330
1F
100
AcDbEntity
  8
0
  6
SLD-Solid
 62
     7
370
    25
100
AcDbCircle
 10
335.5337632634
 20
192.1785782588
 30
0.0
 40
1.5
  0
ARC
  5
38F
330
1F
100
AcDbEntity
  8
0
  6
SLD-Solid
 62
     7
370
    25
100
AcDbCircle
 10
325.0337632634
 20
196.2788295166
 30
0.0
 40
4.999999999999988
100
AcDbArc
 50
180.0
 51
253.7397952917
  0
LINE
  5
390
330
1F
100
AcDbEntity
  8
0
  6
SLD-Solid
 62
     7
370
    25
100
AcDbLine
 10
320.0337632634
 20
196.2788295166
 30
0.0
 11
320.0337632634
 21
197.1987011054
 31
0.0
  0
ARC
  5
391
330
1F
100
AcDbEntity
  8
0
  6
SLD-Solid
 62
     7
370
    25
100
AcDbCircle
 10
318.0337632634
 20
172.2788295166
 30
0.0
 40
25.00000000000002
100
AcDbArc
 50
74.5339900466
 51
85.4114342642
  0
ARC
  5
392
330
1F
100
AcDbEntity
  8
0
  6
SLD-Solid
 62
     7
370
    25
100
AcDbCircle
 10
326.0337632634
 20
201.1924941062
 30
0.0
 40
5.0
100
AcDbArc
 50
254.5339900466
 51
0.0
  0
LINE
  5
393
330
1F
100
AcDbEntity
  8
0
  6
SLD-Solid
 62
     7
370
    25
100
AcDbLine
 10
331.0337632634
 20
201.1987011054
 30
0.0
 11
331.0337632634
 21
201.1924941062
 31
0.0
  0
LINE
  5
394
330
1F
100
AcDbEntity
  8
0
  6
SLD-Solid
 62
     7
370
    25
100
AcDbLine
 10
331.0337632634
 20
201.1987011054
 30
0.0
 11
340.0337632634
 21
201.1987011054
 31
0.0
  0
LINE
  5
395
330
1F
100
AcDbEntity
  8
0
  6
SLD-Solid
 62
     7
370
    25
100
AcDbLine
 10
340.0337632634
 20
201.1987011054
 30
0.0
 11
340.0337632634
 21
185.3555263473
 31
0.0
  0
ARC
  5
396
330
1F
100
AcDbEntity
  8
0
  6
SLD-Solid
 62
     7
370
    25
100
AcDbCircle
 10
345.0337632634
 20
185.3555263473
 30
0.0
 40
5.000000000000002
100
AcDbArc
 50
180.0
 51
205.8419327632
  0
ARC
  5
397
330
1F
100
AcDbEntity
  8
0
  6
SLD-Solid
 62
     7
370
    25
100
AcDbCircle
 10
318.0337632634
 20
172.2788295166
 30
0.0
 40
25.00000000000001
100
AcDbArc
 50
274.5885657358
 51
25.8419327632
  0
LINE
  5
398
330
1F
100
AcDbEntity
  8
0
  6
SLD-Solid
 62
     7
370
    25
100
AcDbLine
 10
320.0337632634
 20
147.3589579279
 30
0.0
 11
320.0337632634
 21
148.2788295166
 31
0.0
  0
ARC
  5
399
330
1F
100
AcDbEntity
  8
0
  6
SLD-Solid
 62
     7
370
    25
100
AcDbCircle
 10
325.0337632634
 20
148.2788295166
 30
0.0
 40
4.999999999999988
100
AcDbArc
 50
106.2602047083
 51
180.0
  0
ARC
  5
39A
330
1F
100
AcDbEntity
  8
0
  6
SLD-Solid
 62
     7
370
    25
100
AcDbCircle
 10
318.0337632634
 20
172.2788295166
 30
0.0
 40
20.00000000000002
100
AcDbArc
 50
286.2602047083
 51
73.7397952917
  0
CIRCLE
  5
39B
330
1F
100
AcDbEntity
  8
0
  6
SLD-Solid
 62
     7
370
    25
100
AcDbCircle
 10
338.7670122111
 20
84.9795578597
 30
0.0
 40
1.5
  0
ARC
  5
39C
330
1F
100
AcDbEntity
  8
0
  6
SLD-Solid
 62
     7
370
    25
100
AcDbCircle
 10
328.2670122111
 20
89.0798091176
 30
0.0
 40
4.999999999999975
100
AcDbArc
 50
180.0
 51
253.7397952917
  0
LINE
  5
39D
330
1F
100
AcDbEntity
  8
0
  6
SLD-Solid
 62
     7
370
    25
100
AcDbLine
 10
323.2670122111
 20
89.0798091176
 30
0.0
 11
323.2670122111
 21
89.9996807063
 31
0.0
  0
ARC
  5
39E
330
1F
100
AcDbEntity
  8
0
  6
SLD-Solid
 62
     7
370
    25
100
AcDbCircle
 10
321.2670122111
 20
65.0798091176
 30
0.0
 40
25.00000000000001
100
AcDbArc
 50
74.5339900466
 51
85.4114342642
  0
ARC
  5
39F
330
1F
100
AcDbEntity
  8
0
  6
SLD-Solid
 62
     7
370
    25
100
AcDbCircle
 10
329.2670122111
 20
93.9934737072
 30
0.0
 40
5.0
100
AcDbArc
 50
254.5339900466
 51
0.0
  0
LINE
  5
3A0
330
1F
100
AcDbEntity
  8
0
  6
SLD-Solid
 62
     7
370
    25
100
AcDbLine
 10
334.2670122111
 20
93.9996807063
 30
0.0
 11
334.2670122111
 21
93.9934737072
 31
0.0
  0
LINE
  5
3A1
330
1F
100
AcDbEntity
  8
0
  6
SLD-Solid
 62
     7
370
    25
100
AcDbLine
 10
334.2670122111
 20
93.9996807063
 30
0.0
 11
343.2670122111
 21
93.9996807063
 31
0.0
  0
LINE
  5
3A2
330
1F
100
AcDbEntity
  8
0
  6
SLD-Solid
 62
     7
370
    25
100
AcDbLine
 10
343.2670122111
 20
93.9996807063
 30
0.0
 11
343.2670122111
 21
78.1565059482
 31
0.0
  0
ARC
  5
3A3
330
1F
100
AcDbEntity
  8
0
  6
SLD-Solid
 62
     7
370
    25
100
AcDbCircle
 10
348.2670122111
 20
78.1565059482
 30
0.0
 40
5.000000000000057
100
AcDbArc
 50
180.0
 51
205.8419327632
  0
ARC
  5
3A4
330
1F
100
AcDbEntity
  8
0
  6
SLD-Solid
 62
     7
370
    25
100
AcDbCircle
 10
321.2670122111
 20
65.0798091176
 30
0.0
 40
25.0
100
AcDbArc
 50
274.5885657358
 51
25.8419327632
  0
LINE
  5
3A5
330
1F
100
AcDbEntity
  8
0
  6
SLD-Solid
 62
     7
370
    25
100
AcDbLine
 10
323.2670122111
 20
40.1599375288
 30
0.0
 11
323.2670122111
 21
41.0798091176
 31
0.0
  0
ARC
  5
3A6
330
1F
100
AcDbEntity
  8
0
  6
SLD-Solid
 62
     7
370
    25
100
AcDbCircle
 10
328.2670122111
 20
41.0798091176
 30
0.0
 40
4.999999999999975
100
AcDbArc
 50
106.2602047083
 51
180.0
  0
ARC
  5
3A7
330
1F
100
AcDbEntity
  8
0
  6
SLD-Solid
 62
     7
370
    25
100
AcDbCircle
 10
321.2670122111
 20
65.0798091176
 30
0.0
 40
20.00000000000001
100
AcDbArc
 50
286.2602047083
 51
73.7397952917
  0
CIRCLE
  5
3A8
330
1F
100
AcDbEntity
  8
0
  6
SLD-Solid
 62
     7
370
    25
100
AcDbCircle
 10
320.6201521131
 20
20.3629776972
 30
0.0
 40
1.500000000000057
  0
ARC
  5
3A9
330
1F
100
AcDbEntity
  8
0
  6
SLD-Solid
 62
     7
370
    25
100
AcDbCircle
 10
331.1201521131
 20
16.2627264393
 30
0.0
 40
5.0
100
AcDbArc
 50
0.0
 51
73.7397952917
  0
LINE
  5
3AA
330
1F
100
AcDbEntity
  8
0
  6
SLD-Solid
 62
     7
370
    25
100
AcDbLine
 10
336.1201521131
 20
16.2627264393
 30
0.0
 11
336.1201521131
 21
15.3428548505
 31
0.0
  0
ARC
  5
3AB
330
1F
100
AcDbEntity
  8
0
  6
SLD-Solid
 62
     7
370
    25
100
AcDbCircle
 10
338.1201521131
 20
40.2627264393
 30
0.0
 40
25.0
100
AcDbArc
 50
254.5339900466
 51
265.4114342642
  0
ARC
  5
3AC
330
1F
100
AcDbEntity
  8
0
  6
SLD-Solid
 62
     7
370
    25
100
AcDbCircle
 10
330.1201521131
 20
11.3490618497
 30
0.0
 40
5.0
100
AcDbArc
 50
74.5339900466
 51
180.0
  0
LINE
  5
3AD
330
1F
100
AcDbEntity
  8
0
  6
SLD-Solid
 62
     7
370
    25
100
AcDbLine
 10
325.1201521131
 20
11.3428548505
 30
0.0
 11
325.1201521131
 21
11.3490618497
 31
0.0
  0
LINE
  5
3AE
330
1F
100
AcDbEntity
  8
0
  6
SLD-Solid
 62
     7
370
    25
100
AcDbLine
 10
325.1201521131
 20
11.3428548505
 30
0.0
 11
316.1201521131
 21
11.3428548505
 31
0.0
  0
LINE
  5
3AF
330
1F
100
AcDbEntity
  8
0
  6
SLD-Solid
 62
     7
370
    25
100
AcDbLine
 10
316.1201521131
 20
11.3428548505
 30
0.0
 11
316.1201521131
 21
27.1860296087
 31
0.0
  0
ARC
  5
3B0
330
1F
100
AcDbEntity
  8
0
  6
SLD-Solid
 62
     7
370
    25
100
AcDbCircle
 10
311.1201521131
 20
27.1860296087
 30
0.0
 40
5.000000000000019
100
AcDbArc
 50
0.0
 51
25.8419327632
  0
ARC
  5
3B1
330
1F
100
AcDbEntity
  8
0
  6
SLD-Solid
 62
     7
370
    25
100
AcDbCircle
 10
338.1201521131
 20
40.2627264393
 30
0.0
 40
25.0
100
AcDbArc
 50
94.5885657358
 51
205.8419327632
  0
LINE
  5
3B2
330
1F
100
AcDbEntity
  8
0
  6
SLD-Solid
 62
     7
370
    25
100
AcDbLine
 10
336.1201521131
 20
65.1825980281
 30
0.0
 11
336.1201521131
 21
64.2627264393
 31
0.0
  0
ARC
  5
3B3
330
1F
100
AcDbEntity
  8
0
  6
SLD-Solid
 62
     7
370
    25
100
AcDbCircle
 10
331.1201521131
 20
64.2627264393
 30
0.0
 40
5.000000000000007
100
AcDbArc
 50
286.2602047083
 51
0.0
  0
ARC
  5
3B4
330
1F
100
AcDbEntity
  8
0
  6
SLD-Solid
 62
     7
370
    25
100
AcDbCircle
 10
338.1201521131
 20
40.2627264393
 30
0.0
 40
20.00000000000001
100
AcDbArc
 50
106.2602047083
 51
253.7397952917
  0
ENDSEC
  0
SECTION
  2
OBJECTS
  0
DICTIONARY
  5
C
330
0
100
AcDbDictionary
281
     1
  3
ACAD_GROUP
350
D
  3
ACAD_LAYOUT
350
1A
  3
ACAD_MLINESTYLE
350
17
  3
ACAD_PLOTSETTINGS
350
19
  3
ACAD_PLOTSTYLENAME
350
E
  3
ACAD_SCALELIST
350
47
  3
DWGPROPS
350
3B5
  0
DICTIONARY
  5
D
102
{ACAD_REACTORS
330
C
102
}
330
C
100
AcDbDictionary
281
     1
  0
DICTIONARY
  5
1A
102
{ACAD_REACTORS
330
C
102
}
330
C
100
AcDbDictionary
281
     1
  3
Layout1
350
1E
  3
Layout2
350
26
  3
Model
350
22
  0
DICTIONARY
  5
17
102
{ACAD_REACTORS
330
C
102
}
330
C
100
AcDbDictionary
281
     1
  3
Standard
350
18
  0
DICTIONARY
  5
19
102
{ACAD_REACTORS
330
C
102
}
330
C
100
AcDbDictionary
281
     1
  0
ACDBDICTIONARYWDFLT
  5
E
102
{ACAD_REACTORS
330
C
102
}
330
C
100
AcDbDictionary
281
     1
  3
Normal
350
F
100
AcDbDictionaryWithDefault
340
F
  0
DICTIONARY
  5
47
102
{ACAD_REACTORS
330
C
102
}
330
C
100
AcDbDictionary
281
     1
  3
A0
350
48
  3
A1
350
49
  3
A2
350
4A
  3
A3
350
4B
  3
A4
350
4C
  3
A5
350
4D
  3
A6
350
4E
  3
A7
350
4F
  3
A8
350
50
  3
A9
350
51
  3
B0
350
52
  3
B1
350
53
  3
B2
350
54
  3
B3
350
55
  3
B4
350
56
  3
B5
350
57
  3
B6
350
58
  0
XRECORD
  5
3B5
102
{ACAD_REACTORS
330
C
102
}
330
C
100
AcDbXrecord
280
     1
  1
DWGPROPS COOKIE
  2

  3

  4

  6

  7

  8
admin
  9

300
=
301
=
302
=
303
=
304
=
305
=
306
=
307
=
308
=
309
=
 40
0.0
 41
2460271.243822465
 42
2460271.243825197
  1

 90
        0
  0
LAYOUT
  5
1E
102
{ACAD_REACTORS
330
1A
102
}
330
1A
100
AcDbPlotSettings
  1

  2
none_device
  4

  6

 40
0.0
 41
0.0
 42
0.0
 43
0.0
 44
0.0
 45
0.0
 46
0.0
 47
0.0
 48
0.0
 49
0.0
140
0.0
141
0.0
142
1.0
143
1.0
 70
   688
 72
     1
 73
     0
 74
     5
  7

 75
    16
147
1.0
148
0.0
149
0.0
100
AcDbLayout
  1
Layout1
 70
     1
 71
     1
 10
0.0
 20
0.0
 11
420.0
 21
297.0
 12
0.0
 22
0.0
 32
0.0
 14
1.0000000000E+20
 24
1.0000000000E+20
 34
1.0000000000E+20
 15
-1.0000000000E+20
 25
-1.0000000000E+20
 35
-1.0000000000E+20
146
0.0
 13
0.0
 23
0.0
 33
0.0
 16
1.0
 26
0.0
 36
0.0
 17
0.0
 27
1.0
 37
0.0
 76
     0
330
1B
  0
LAYOUT
  5
26
102
{ACAD_REACTORS
330
1A
102
}
330
1A
100
AcDbPlotSettings
  1

  2
none_device
  4

  6

 40
0.0
 41
0.0
 42
0.0
 43
0.0
 44
0.0
 45
0.0
 46
0.0
 47
0.0
 48
0.0
 49
0.0
140
0.0
141
0.0
142
1.0
143
1.0
 70
   688
 72
     1
 73
     0
 74
     5
  7

 75
    16
147
1.0
148
0.0
149
0.0
100
AcDbLayout
  1
Layout2
 70
     1
 71
     2
 10
0.0
 20
0.0
 11
0.0
 21
0.0
 12
0.0
 22
0.0
 32
0.0
 14
0.0
 24
0.0
 34
0.0
 15
0.0
 25
0.0
 35
0.0
146
0.0
 13
0.0
 23
0.0
 33
0.0
 16
1.0
 26
0.0
 36
0.0
 17
0.0
 27
1.0
 37
0.0
 76
     0
330
23
  0
LAYOUT
  5
22
102
{ACAD_REACTORS
330
1A
102
}
330
1A
100
AcDbPlotSettings
  1

  2
none_device
  4
Letter_(8.50_x_11.00_Inches)
  6

 40
6.35
 41
6.35
 42
6.35000508
 43
6.35000508
 44
215.9
 45
279.4
 46
0.0
 47
0.0
 48
0.0
 49
0.0
140
0.0
141
0.0
142
1.0
143
1.0
 70
  1712
 72
     1
 73
     0
 74
     0
  7

 75
     0
147
1.0
148
0.0
149
0.0
100
AcDbLayout
  1
Model
 70
     1
 71
     0
 10
0.0
 20
0.0
 11
400.0
 21
300.0
 12
0.0
 22
0.0
 32
0.0
 14
0.0
 24
0.0
 34
0.0
 15
400.0
 25
300.0
 35
0.0
146
0.0
 13
0.0
 23
0.0
 33
0.0
 16
1.0
 26
0.0
 36
0.0
 17
0.0
 27
1.0
 37
0.0
 76
     0
330
1F
331
29
  0
MLINESTYLE
  5
18
102
{ACAD_REACTORS
330
17
102
}
330
17
100
AcDbMlineStyle
  2
Standard
 70
     0
  3

 62
   256
 51
90.0
 52
90.0
 71
     2
 49
0.5
 62
   256
  6
BYLAYER
 49
-0.5
 62
   256
  6
BYLAYER
  0
ACDBPLACEHOLDER
  5
F
102
{ACAD_REACTORS
330
E
102
}
330
E
  0
SCALE
  5
48
102
{ACAD_REACTORS
330
47
102
}
330
47
100
AcDbScale
 70
     0
300
1:1
140
1.0
141
1.0
290
     1
  0
SCALE
  5
49
102
{ACAD_REACTORS
330
47
102
}
330
47
100
AcDbScale
 70
     0
300
1:2
140
1.0
141
2.0
290
     0
  0
SCALE
  5
4A
102
{ACAD_REACTORS
330
47
102
}
330
47
100
AcDbScale
 70
     0
300
1:4
140
1.0
141
4.0
290
     0
  0
SCALE
  5
4B
102
{ACAD_REACTORS
330
47
102
}
330
47
100
AcDbScale
 70
     0
300
1:5
140
1.0
141
5.0
290
     0
  0
SCALE
  5
4C
102
{ACAD_REACTORS
330
47
102
}
330
47
100
AcDbScale
 70
     0
300
1:8
140
1.0
141
8.0
290
     0
  0
SCALE
  5
4D
102
{ACAD_REACTORS
330
47
102
}
330
47
100
AcDbScale
 70
     0
300
1:10
140
1.0
141
10.0
290
     0
  0
SCALE
  5
4E
102
{ACAD_REACTORS
330
47
102
}
330
47
100
AcDbScale
 70
     0
300
1:16
140
1.0
141
16.0
290
     0
  0
SCALE
  5
4F
102
{ACAD_REACTORS
330
47
102
}
330
47
100
AcDbScale
 70
     0
300
1:20
140
1.0
141
20.0
290
     0
  0
SCALE
  5
50
102
{ACAD_REACTORS
330
47
102
}
330
47
100
AcDbScale
 70
     0
300
1:30
140
1.0
141
30.0
290
     0
  0
SCALE
  5
51
102
{ACAD_REACTORS
330
47
102
}
330
47
100
AcDbScale
 70
     0
300
1:40
140
1.0
141
40.0
290
     0
  0
SCALE
  5
52
102
{ACAD_REACTORS
330
47
102
}
330
47
100
AcDbScale
 70
     0
300
1:50
140
1.0
141
50.0
290
     0
  0
SCALE
  5
53
102
{ACAD_REACTORS
330
47
102
}
330
47
100
AcDbScale
 70
     0
300
1:100
140
1.0
141
100.0
290
     0
  0
SCALE
  5
54
102
{ACAD_REACTORS
330
47
102
}
330
47
100
AcDbScale
 70
     0
300
2:1
140
2.0
141
1.0
290
     0
  0
SCALE
  5
55
102
{ACAD_REACTORS
330
47
102
}
330
47
100
AcDbScale
 70
     0
300
4:1
140
4.0
141
1.0
290
     0
  0
SCALE
  5
56
102
{ACAD_REACTORS
330
47
102
}
330
47
100
AcDbScale
 70
     0
300
8:1
140
8.0
141
1.0
290
     0
  0
SCALE
  5
57
102
{ACAD_REACTORS
330
47
102
}
330
47
100
AcDbScale
 70
     0
300
10:1
140
10.0
141
1.0
290
     0
  0
SCALE
  5
58
102
{ACAD_REACTORS
330
47
102
}
330
47
100
AcDbScale
 70
     0
300
100:1
140
100.0
141
1.0
290
     0
  0
ENDSEC
  0
EOF
